solid Lid-ESP32-ULN-00
facet normal -0.13052619222003234 -0.9914448613738132 -0.0
  outer loop
    vertex -27.741180954897477 60.96592582628907 3.9999999999999996
    vertex -27.999999999999993 61.0 0.0
    vertex -27.741180954897477 60.96592582628907 0.0
  endloop
endfacet
facet normal -0.13052619222003234 -0.9914448613738132 -0.0
  outer loop
    vertex -27.999999999999993 61.0 0.0
    vertex -27.741180954897477 60.96592582628907 3.9999999999999996
    vertex -27.999999999999993 61.0 3.9999999999999996
  endloop
endfacet
facet normal 0.793353340291231 0.6087614290087263 0.0
  outer loop
    vertex -28.866025403784434 59.50000000000001 0.0
    vertex -28.70710678118654 59.292893218813454 3.9999999999999996
    vertex -28.70710678118654 59.292893218813454 0.0
  endloop
endfacet
facet normal 0.793353340291231 0.6087614290087263 0.0
  outer loop
    vertex -28.70710678118654 59.292893218813454 3.9999999999999996
    vertex -28.866025403784434 59.50000000000001 0.0
    vertex -28.866025403784434 59.50000000000001 3.9999999999999996
  endloop
endfacet
facet normal -0.38268343236510755 0.9238795325112795 0.0
  outer loop
    vertex 123.25881904510251 59.034074173710934 3.9999999999999996
    vertex 123.5 59.133974596215566 0.0
    vertex 123.25881904510251 59.034074173710934 0.0
  endloop
endfacet
facet normal -0.38268343236510755 0.9238795325112795 0.0
  outer loop
    vertex 123.5 59.133974596215566 0.0
    vertex 123.25881904510251 59.034074173710934 3.9999999999999996
    vertex 123.5 59.133974596215566 3.9999999999999996
  endloop
endfacet
facet normal -0.0 -1.0 -0.0
  outer loop
    vertex 125.0 -5.0 3.9999999999999996
    vertex -29.999999999999996 -5.0 0.0
    vertex 125.0 -5.0 0.0
  endloop
endfacet
facet normal -0.0 -1.0 -0.0
  outer loop
    vertex -29.999999999999996 -5.0 0.0
    vertex 125.0 -5.0 3.9999999999999996
    vertex -29.999999999999996 -5.0 3.9999999999999996
  endloop
endfacet
facet normal 0.9238795325112884 -0.38268343236508595 0.0
  outer loop
    vertex -28.866025403784434 60.5 0.0
    vertex -28.96592582628906 60.25881904510253 3.9999999999999996
    vertex -28.96592582628906 60.25881904510253 0.0
  endloop
endfacet
facet normal 0.9238795325112884 -0.38268343236508595 0.0
  outer loop
    vertex -28.96592582628906 60.25881904510253 3.9999999999999996
    vertex -28.866025403784434 60.5 0.0
    vertex -28.866025403784434 60.5 3.9999999999999996
  endloop
endfacet
facet normal 0.9914448613738106 -0.13052619222005077 0.0
  outer loop
    vertex -28.96592582628906 60.25881904510253 0.0
    vertex -28.999999999999993 60.0 3.9999999999999996
    vertex -28.999999999999993 60.0 0.0
  endloop
endfacet
facet normal 0.9914448613738106 -0.13052619222005077 0.0
  outer loop
    vertex -28.999999999999993 60.0 3.9999999999999996
    vertex -28.96592582628906 60.25881904510253 0.0
    vertex -28.96592582628906 60.25881904510253 3.9999999999999996
  endloop
endfacet
facet normal -0.13052619222003511 0.9914448613738126 0.0
  outer loop
    vertex 123.0 59.00000000000001 3.9999999999999996
    vertex 123.25881904510251 59.034074173710934 0.0
    vertex 123.0 59.00000000000001 0.0
  endloop
endfacet
facet normal -0.13052619222003511 0.9914448613738126 0.0
  outer loop
    vertex 123.25881904510251 59.034074173710934 0.0
    vertex 123.0 59.00000000000001 3.9999999999999996
    vertex 123.25881904510251 59.034074173710934 3.9999999999999996
  endloop
endfacet
facet normal 0.0 0.0 1.0
  outer loop
    vertex -29.999999999999996 -5.0 3.9999999999999996
    vertex -28.999999999999993 -3.0 3.9999999999999996
    vertex -29.999999999999996 62.0 3.9999999999999996
  endloop
endfacet
facet normal 0.0 0.0 1.0
  outer loop
    vertex -28.999999999999993 -3.0 3.9999999999999996
    vertex -29.999999999999996 -5.0 3.9999999999999996
    vertex -28.96592582628906 -3.2588190451025207 3.9999999999999996
  endloop
endfacet
facet normal 0.0 0.0 1.0
  outer loop
    vertex -28.96592582628906 -3.2588190451025207 3.9999999999999996
    vertex -29.999999999999996 -5.0 3.9999999999999996
    vertex -28.866025403784434 -3.499999999999999 3.9999999999999996
  endloop
endfacet
facet normal 0.0 0.0 1.0
  outer loop
    vertex -28.866025403784434 -3.499999999999999 3.9999999999999996
    vertex -29.999999999999996 -5.0 3.9999999999999996
    vertex -28.70710678118654 -3.7071067811865466 3.9999999999999996
  endloop
endfacet
facet normal 0.0 0.0 1.0
  outer loop
    vertex -28.70710678118654 -3.7071067811865466 3.9999999999999996
    vertex -29.999999999999996 -5.0 3.9999999999999996
    vertex -28.499999999999993 -3.866025403784437 3.9999999999999996
  endloop
endfacet
facet normal 0.0 0.0 1.0
  outer loop
    vertex -28.499999999999993 -3.866025403784437 3.9999999999999996
    vertex -29.999999999999996 -5.0 3.9999999999999996
    vertex -28.258819045102516 -3.9659258262890664 3.9999999999999996
  endloop
endfacet
facet normal 0.0 0.0 1.0
  outer loop
    vertex -28.258819045102516 -3.9659258262890664 3.9999999999999996
    vertex -29.999999999999996 -5.0 3.9999999999999996
    vertex -27.999999999999993 -3.9999999999999982 3.9999999999999996
  endloop
endfacet
facet normal 0.0 0.0 1.0
  outer loop
    vertex -27.999999999999993 -3.9999999999999982 3.9999999999999996
    vertex -29.999999999999996 -5.0 3.9999999999999996
    vertex 125.0 -5.0 3.9999999999999996
  endloop
endfacet
facet normal 0.0 0.0 1.0
  outer loop
    vertex -27.999999999999993 -3.9999999999999982 3.9999999999999996
    vertex 125.0 -5.0 3.9999999999999996
    vertex -27.74118095489747 -3.9659258262890664 3.9999999999999996
  endloop
endfacet
facet normal 0.0 0.0 1.0
  outer loop
    vertex -27.74118095489747 -3.9659258262890664 3.9999999999999996
    vertex 125.0 -5.0 3.9999999999999996
    vertex -27.499999999999996 -3.866025403784437 3.9999999999999996
  endloop
endfacet
facet normal 0.0 0.0 1.0
  outer loop
    vertex -27.499999999999996 -3.866025403784437 3.9999999999999996
    vertex 125.0 -5.0 3.9999999999999996
    vertex -27.29289321881345 -3.7071067811865466 3.9999999999999996
  endloop
endfacet
facet normal 0.0 0.0 1.0
  outer loop
    vertex -27.29289321881345 -3.7071067811865466 3.9999999999999996
    vertex 125.0 -5.0 3.9999999999999996
    vertex -27.133974596215555 -3.499999999999999 3.9999999999999996
  endloop
endfacet
facet normal 0.0 0.0 1.0
  outer loop
    vertex -27.133974596215555 -3.499999999999999 3.9999999999999996
    vertex 125.0 -5.0 3.9999999999999996
    vertex -27.034074173710927 -3.2588190451025203 3.9999999999999996
  endloop
endfacet
facet normal 0.0 0.0 1.0
  outer loop
    vertex -27.034074173710927 -3.2588190451025203 3.9999999999999996
    vertex 125.0 -5.0 3.9999999999999996
    vertex -26.999999999999996 -3.0 3.9999999999999996
  endloop
endfacet
facet normal 0.0 0.0 1.0
  outer loop
    vertex -26.999999999999996 -3.0 3.9999999999999996
    vertex 125.0 -5.0 3.9999999999999996
    vertex -26.999999999999996 60.0 3.9999999999999996
  endloop
endfacet
facet normal 0.0 0.0 1.0
  outer loop
    vertex -26.999999999999996 60.0 3.9999999999999996
    vertex 125.0 -5.0 3.9999999999999996
    vertex 122.5 -3.8660254037844393 3.9999999999999996
  endloop
endfacet
facet normal 0.0 0.0 1.0
  outer loop
    vertex -26.999999999999996 60.0 3.9999999999999996
    vertex 122.5 -3.8660254037844393 3.9999999999999996
    vertex 122.29289321881345 -3.707106781186549 3.9999999999999996
  endloop
endfacet
facet normal 0.0 0.0 1.0
  outer loop
    vertex -26.999999999999996 60.0 3.9999999999999996
    vertex 122.29289321881345 -3.707106781186549 3.9999999999999996
    vertex 122.13397459621557 -3.5000000000000013 3.9999999999999996
  endloop
endfacet
facet normal 0.0 0.0 1.0
  outer loop
    vertex -26.999999999999996 60.0 3.9999999999999996
    vertex 122.13397459621557 -3.5000000000000013 3.9999999999999996
    vertex 122.03407417371093 -3.258819045102522 3.9999999999999996
  endloop
endfacet
facet normal 0.0 0.0 1.0
  outer loop
    vertex -26.999999999999996 60.0 3.9999999999999996
    vertex 122.03407417371093 -3.258819045102522 3.9999999999999996
    vertex 122.0 -3.0000000000000013 3.9999999999999996
  endloop
endfacet
facet normal 0.0 0.0 1.0
  outer loop
    vertex 122.5 -3.8660254037844393 3.9999999999999996
    vertex 125.0 -5.0 3.9999999999999996
    vertex 122.74118095489749 -3.9659258262890695 3.9999999999999996
  endloop
endfacet
facet normal 0.0 0.0 1.0
  outer loop
    vertex 122.74118095489749 -3.9659258262890695 3.9999999999999996
    vertex 125.0 -5.0 3.9999999999999996
    vertex 123.0 -4.0 3.9999999999999996
  endloop
endfacet
facet normal 0.0 0.0 1.0
  outer loop
    vertex 123.0 -4.0 3.9999999999999996
    vertex 125.0 -5.0 3.9999999999999996
    vertex 123.25881904510251 -3.9659258262890686 3.9999999999999996
  endloop
endfacet
facet normal 0.0 0.0 1.0
  outer loop
    vertex 123.25881904510251 -3.9659258262890686 3.9999999999999996
    vertex 125.0 -5.0 3.9999999999999996
    vertex 123.5 -3.8660254037844393 3.9999999999999996
  endloop
endfacet
facet normal 0.0 0.0 1.0
  outer loop
    vertex 123.5 -3.8660254037844393 3.9999999999999996
    vertex 125.0 -5.0 3.9999999999999996
    vertex 123.70710678118655 -3.707106781186548 3.9999999999999996
  endloop
endfacet
facet normal 0.0 0.0 1.0
  outer loop
    vertex 123.70710678118655 -3.707106781186548 3.9999999999999996
    vertex 125.0 -5.0 3.9999999999999996
    vertex 123.86602540378443 -3.5000000000000004 3.9999999999999996
  endloop
endfacet
facet normal 0.0 0.0 1.0
  outer loop
    vertex 123.86602540378443 -3.5000000000000004 3.9999999999999996
    vertex 125.0 -5.0 3.9999999999999996
    vertex 123.96592582628907 -3.2588190451025216 3.9999999999999996
  endloop
endfacet
facet normal 0.0 0.0 1.0
  outer loop
    vertex 123.96592582628907 -3.2588190451025216 3.9999999999999996
    vertex 125.0 -5.0 3.9999999999999996
    vertex 124.0 -3.000000000000001 3.9999999999999996
  endloop
endfacet
facet normal 0.0 0.0 1.0
  outer loop
    vertex 124.0 -3.000000000000001 3.9999999999999996
    vertex 125.0 -5.0 3.9999999999999996
    vertex 124.0 60.0 3.9999999999999996
  endloop
endfacet
facet normal 0.0 0.0 1.0
  outer loop
    vertex -29.999999999999996 62.0 3.9999999999999996
    vertex -27.999999999999993 61.0 3.9999999999999996
    vertex 125.0 62.0 3.9999999999999996
  endloop
endfacet
facet normal 0.0 0.0 1.0
  outer loop
    vertex -27.999999999999993 61.0 3.9999999999999996
    vertex -29.999999999999996 62.0 3.9999999999999996
    vertex -28.258819045102516 60.965925826289066 3.9999999999999996
  endloop
endfacet
facet normal 0.0 0.0 1.0
  outer loop
    vertex -28.258819045102516 60.965925826289066 3.9999999999999996
    vertex -29.999999999999996 62.0 3.9999999999999996
    vertex -28.499999999999993 60.866025403784434 3.9999999999999996
  endloop
endfacet
facet normal 0.0 0.0 1.0
  outer loop
    vertex -28.499999999999993 60.866025403784434 3.9999999999999996
    vertex -29.999999999999996 62.0 3.9999999999999996
    vertex -28.70710678118654 60.70710678118655 3.9999999999999996
  endloop
endfacet
facet normal 0.0 0.0 1.0
  outer loop
    vertex -28.70710678118654 60.70710678118655 3.9999999999999996
    vertex -29.999999999999996 62.0 3.9999999999999996
    vertex -28.866025403784434 60.5 3.9999999999999996
  endloop
endfacet
facet normal 0.0 0.0 1.0
  outer loop
    vertex -28.866025403784434 60.5 3.9999999999999996
    vertex -29.999999999999996 62.0 3.9999999999999996
    vertex -28.96592582628906 60.25881904510253 3.9999999999999996
  endloop
endfacet
facet normal 0.0 0.0 1.0
  outer loop
    vertex -28.96592582628906 60.25881904510253 3.9999999999999996
    vertex -29.999999999999996 62.0 3.9999999999999996
    vertex -28.999999999999993 60.0 3.9999999999999996
  endloop
endfacet
facet normal 0.0 0.0 1.0
  outer loop
    vertex -28.999999999999993 60.0 3.9999999999999996
    vertex -29.999999999999996 62.0 3.9999999999999996
    vertex -28.999999999999993 -3.0 3.9999999999999996
  endloop
endfacet
facet normal 0.0 0.0 1.0
  outer loop
    vertex 125.0 62.0 3.9999999999999996
    vertex -27.999999999999993 61.0 3.9999999999999996
    vertex -27.741180954897477 60.96592582628907 3.9999999999999996
  endloop
endfacet
facet normal 0.0 0.0 1.0
  outer loop
    vertex 125.0 62.0 3.9999999999999996
    vertex -27.741180954897477 60.96592582628907 3.9999999999999996
    vertex -27.499999999999996 60.866025403784434 3.9999999999999996
  endloop
endfacet
facet normal 0.0 0.0 1.0
  outer loop
    vertex 125.0 62.0 3.9999999999999996
    vertex -27.499999999999996 60.866025403784434 3.9999999999999996
    vertex -27.29289321881345 60.70710678118655 3.9999999999999996
  endloop
endfacet
facet normal 0.0 0.0 1.0
  outer loop
    vertex 125.0 62.0 3.9999999999999996
    vertex -27.29289321881345 60.70710678118655 3.9999999999999996
    vertex -27.133974596215555 60.5 3.9999999999999996
  endloop
endfacet
facet normal 0.0 0.0 1.0
  outer loop
    vertex 125.0 62.0 3.9999999999999996
    vertex -27.133974596215555 60.5 3.9999999999999996
    vertex -27.034074173710927 60.25881904510253 3.9999999999999996
  endloop
endfacet
facet normal 0.0 0.0 1.0
  outer loop
    vertex 125.0 62.0 3.9999999999999996
    vertex -27.034074173710927 60.25881904510253 3.9999999999999996
    vertex -26.999999999999996 60.0 3.9999999999999996
  endloop
endfacet
facet normal 0.0 0.0 1.0
  outer loop
    vertex 125.0 62.0 3.9999999999999996
    vertex -26.999999999999996 60.0 3.9999999999999996
    vertex 122.5 60.866025403784434 3.9999999999999996
  endloop
endfacet
facet normal 0.0 0.0 1.0
  outer loop
    vertex 122.5 60.866025403784434 3.9999999999999996
    vertex -26.999999999999996 60.0 3.9999999999999996
    vertex 122.29289321881345 60.70710678118655 3.9999999999999996
  endloop
endfacet
facet normal 0.0 0.0 1.0
  outer loop
    vertex 122.29289321881345 60.70710678118655 3.9999999999999996
    vertex -26.999999999999996 60.0 3.9999999999999996
    vertex 122.13397459621557 60.5 3.9999999999999996
  endloop
endfacet
facet normal 0.0 0.0 1.0
  outer loop
    vertex 122.13397459621557 60.5 3.9999999999999996
    vertex -26.999999999999996 60.0 3.9999999999999996
    vertex 122.03407417371093 60.25881904510253 3.9999999999999996
  endloop
endfacet
facet normal 0.0 0.0 1.0
  outer loop
    vertex 122.03407417371093 60.25881904510253 3.9999999999999996
    vertex -26.999999999999996 60.0 3.9999999999999996
    vertex 122.0 60.0 3.9999999999999996
  endloop
endfacet
facet normal 0.0 0.0 1.0
  outer loop
    vertex 122.0 60.0 3.9999999999999996
    vertex -26.999999999999996 60.0 3.9999999999999996
    vertex 122.0 -3.0000000000000013 3.9999999999999996
  endloop
endfacet
facet normal 0.0 0.0 1.0
  outer loop
    vertex 125.0 62.0 3.9999999999999996
    vertex 122.5 60.866025403784434 3.9999999999999996
    vertex 122.74118095489749 60.96592582628907 3.9999999999999996
  endloop
endfacet
facet normal 0.0 0.0 1.0
  outer loop
    vertex 125.0 62.0 3.9999999999999996
    vertex 122.74118095489749 60.96592582628907 3.9999999999999996
    vertex 123.0 61.0 3.9999999999999996
  endloop
endfacet
facet normal 0.0 0.0 1.0
  outer loop
    vertex 125.0 62.0 3.9999999999999996
    vertex 123.0 61.0 3.9999999999999996
    vertex 123.25881904510251 60.965925826289066 3.9999999999999996
  endloop
endfacet
facet normal 0.0 0.0 1.0
  outer loop
    vertex 125.0 62.0 3.9999999999999996
    vertex 123.25881904510251 60.965925826289066 3.9999999999999996
    vertex 123.5 60.866025403784434 3.9999999999999996
  endloop
endfacet
facet normal 0.0 0.0 1.0
  outer loop
    vertex 125.0 62.0 3.9999999999999996
    vertex 123.5 60.866025403784434 3.9999999999999996
    vertex 123.70710678118655 60.70710678118655 3.9999999999999996
  endloop
endfacet
facet normal 0.0 0.0 1.0
  outer loop
    vertex 125.0 62.0 3.9999999999999996
    vertex 123.70710678118655 60.70710678118655 3.9999999999999996
    vertex 123.86602540378443 60.5 3.9999999999999996
  endloop
endfacet
facet normal 0.0 0.0 1.0
  outer loop
    vertex 125.0 62.0 3.9999999999999996
    vertex 123.86602540378443 60.5 3.9999999999999996
    vertex 123.96592582628907 60.25881904510253 3.9999999999999996
  endloop
endfacet
facet normal 0.0 0.0 1.0
  outer loop
    vertex 125.0 62.0 3.9999999999999996
    vertex 123.96592582628907 60.25881904510253 3.9999999999999996
    vertex 124.0 60.0 3.9999999999999996
  endloop
endfacet
facet normal 0.0 0.0 1.0
  outer loop
    vertex 125.0 62.0 3.9999999999999996
    vertex 124.0 60.0 3.9999999999999996
    vertex 125.0 -5.0 3.9999999999999996
  endloop
endfacet
facet normal 0.0 0.0 1.0
  outer loop
    vertex 122.03407417371093 -2.7411809548974806 3.9999999999999996
    vertex 122.0 60.0 3.9999999999999996
    vertex 122.0 -3.0000000000000013 3.9999999999999996
  endloop
endfacet
facet normal 0.0 0.0 1.0
  outer loop
    vertex 122.0 60.0 3.9999999999999996
    vertex 122.03407417371093 -2.7411809548974806 3.9999999999999996
    vertex 122.03407417371093 59.74118095489748 3.9999999999999996
  endloop
endfacet
facet normal 0.0 0.0 1.0
  outer loop
    vertex 122.03407417371093 59.74118095489748 3.9999999999999996
    vertex 122.03407417371093 -2.7411809548974806 3.9999999999999996
    vertex 122.13397459621557 -2.5000000000000018 3.9999999999999996
  endloop
endfacet
facet normal 0.0 0.0 1.0
  outer loop
    vertex 122.03407417371093 59.74118095489748 3.9999999999999996
    vertex 122.13397459621557 -2.5000000000000018 3.9999999999999996
    vertex 122.13397459621557 59.50000000000001 3.9999999999999996
  endloop
endfacet
facet normal 0.0 0.0 1.0
  outer loop
    vertex 122.13397459621557 59.50000000000001 3.9999999999999996
    vertex 122.13397459621557 -2.5000000000000018 3.9999999999999996
    vertex 122.29289321881345 -2.292893218813454 3.9999999999999996
  endloop
endfacet
facet normal 0.0 0.0 1.0
  outer loop
    vertex 122.13397459621557 59.50000000000001 3.9999999999999996
    vertex 122.29289321881345 -2.292893218813454 3.9999999999999996
    vertex 122.29289321881345 59.292893218813454 3.9999999999999996
  endloop
endfacet
facet normal 0.0 0.0 1.0
  outer loop
    vertex 122.29289321881345 59.292893218813454 3.9999999999999996
    vertex 122.29289321881345 -2.292893218813454 3.9999999999999996
    vertex 122.5 -2.1339745962155625 3.9999999999999996
  endloop
endfacet
facet normal 0.0 0.0 1.0
  outer loop
    vertex 122.29289321881345 59.292893218813454 3.9999999999999996
    vertex 122.5 -2.1339745962155625 3.9999999999999996
    vertex 122.5 59.133974596215566 3.9999999999999996
  endloop
endfacet
facet normal 0.0 0.0 1.0
  outer loop
    vertex 122.5 59.133974596215566 3.9999999999999996
    vertex 122.5 -2.1339745962155625 3.9999999999999996
    vertex 122.74118095489749 -2.034074173710933 3.9999999999999996
  endloop
endfacet
facet normal 0.0 0.0 1.0
  outer loop
    vertex 122.5 59.133974596215566 3.9999999999999996
    vertex 122.74118095489749 -2.034074173710933 3.9999999999999996
    vertex 122.74118095489749 59.03407417371094 3.9999999999999996
  endloop
endfacet
facet normal 0.0 0.0 1.0
  outer loop
    vertex 122.74118095489749 59.03407417371094 3.9999999999999996
    vertex 122.74118095489749 -2.034074173710933 3.9999999999999996
    vertex 123.0 -2.0000000000000013 3.9999999999999996
  endloop
endfacet
facet normal 0.0 0.0 1.0
  outer loop
    vertex 122.74118095489749 59.03407417371094 3.9999999999999996
    vertex 123.0 -2.0000000000000013 3.9999999999999996
    vertex 123.0 59.00000000000001 3.9999999999999996
  endloop
endfacet
facet normal 0.0 0.0 1.0
  outer loop
    vertex 123.0 59.00000000000001 3.9999999999999996
    vertex 123.0 -2.0000000000000013 3.9999999999999996
    vertex 123.25881904510251 -2.034074173710933 3.9999999999999996
  endloop
endfacet
facet normal 0.0 0.0 1.0
  outer loop
    vertex 123.0 59.00000000000001 3.9999999999999996
    vertex 123.25881904510251 -2.034074173710933 3.9999999999999996
    vertex 123.25881904510251 59.034074173710934 3.9999999999999996
  endloop
endfacet
facet normal 0.0 0.0 1.0
  outer loop
    vertex 123.25881904510251 59.034074173710934 3.9999999999999996
    vertex 123.25881904510251 -2.034074173710933 3.9999999999999996
    vertex 123.5 -2.1339745962155625 3.9999999999999996
  endloop
endfacet
facet normal 0.0 0.0 1.0
  outer loop
    vertex 123.25881904510251 59.034074173710934 3.9999999999999996
    vertex 123.5 -2.1339745962155625 3.9999999999999996
    vertex 123.5 59.133974596215566 3.9999999999999996
  endloop
endfacet
facet normal 0.0 0.0 1.0
  outer loop
    vertex 123.5 59.133974596215566 3.9999999999999996
    vertex 123.5 -2.1339745962155625 3.9999999999999996
    vertex 123.70710678118655 -2.2928932188134534 3.9999999999999996
  endloop
endfacet
facet normal 0.0 0.0 1.0
  outer loop
    vertex 123.5 59.133974596215566 3.9999999999999996
    vertex 123.70710678118655 -2.2928932188134534 3.9999999999999996
    vertex 123.70710678118655 59.292893218813454 3.9999999999999996
  endloop
endfacet
facet normal 0.0 0.0 1.0
  outer loop
    vertex 123.70710678118655 59.292893218813454 3.9999999999999996
    vertex 123.70710678118655 -2.2928932188134534 3.9999999999999996
    vertex 123.86602540378443 -2.500000000000001 3.9999999999999996
  endloop
endfacet
facet normal 0.0 0.0 1.0
  outer loop
    vertex 123.70710678118655 59.292893218813454 3.9999999999999996
    vertex 123.86602540378443 -2.500000000000001 3.9999999999999996
    vertex 123.86602540378443 59.50000000000001 3.9999999999999996
  endloop
endfacet
facet normal 0.0 0.0 1.0
  outer loop
    vertex 123.86602540378443 59.50000000000001 3.9999999999999996
    vertex 123.86602540378443 -2.500000000000001 3.9999999999999996
    vertex 123.96592582628907 -2.7411809548974797 3.9999999999999996
  endloop
endfacet
facet normal 0.0 0.0 1.0
  outer loop
    vertex 123.86602540378443 59.50000000000001 3.9999999999999996
    vertex 123.96592582628907 -2.7411809548974797 3.9999999999999996
    vertex 123.96592582628907 59.74118095489748 3.9999999999999996
  endloop
endfacet
facet normal 0.0 0.0 1.0
  outer loop
    vertex 123.96592582628907 59.74118095489748 3.9999999999999996
    vertex 123.96592582628907 -2.7411809548974797 3.9999999999999996
    vertex 124.0 -3.000000000000001 3.9999999999999996
  endloop
endfacet
facet normal 0.0 0.0 1.0
  outer loop
    vertex 123.96592582628907 59.74118095489748 3.9999999999999996
    vertex 124.0 -3.000000000000001 3.9999999999999996
    vertex 124.0 60.0 3.9999999999999996
  endloop
endfacet
facet normal 0.0 0.0 1.0
  outer loop
    vertex -28.96592582628906 -2.74118095489748 3.9999999999999996
    vertex -28.999999999999993 60.0 3.9999999999999996
    vertex -28.999999999999993 -3.0 3.9999999999999996
  endloop
endfacet
facet normal 0.0 0.0 1.0
  outer loop
    vertex -28.999999999999993 60.0 3.9999999999999996
    vertex -28.96592582628906 -2.74118095489748 3.9999999999999996
    vertex -28.96592582628906 59.74118095489748 3.9999999999999996
  endloop
endfacet
facet normal 0.0 0.0 1.0
  outer loop
    vertex -28.96592582628906 59.74118095489748 3.9999999999999996
    vertex -28.96592582628906 -2.74118095489748 3.9999999999999996
    vertex -28.866025403784434 -2.5000000000000013 3.9999999999999996
  endloop
endfacet
facet normal 0.0 0.0 1.0
  outer loop
    vertex -28.96592582628906 59.74118095489748 3.9999999999999996
    vertex -28.866025403784434 -2.5000000000000013 3.9999999999999996
    vertex -28.866025403784434 59.50000000000001 3.9999999999999996
  endloop
endfacet
facet normal 0.0 0.0 1.0
  outer loop
    vertex -28.866025403784434 59.50000000000001 3.9999999999999996
    vertex -28.866025403784434 -2.5000000000000013 3.9999999999999996
    vertex -28.707106781186543 -2.2928932188134543 3.9999999999999996
  endloop
endfacet
facet normal 0.0 0.0 1.0
  outer loop
    vertex -28.866025403784434 59.50000000000001 3.9999999999999996
    vertex -28.707106781186543 -2.2928932188134543 3.9999999999999996
    vertex -28.70710678118654 59.292893218813454 3.9999999999999996
  endloop
endfacet
facet normal 0.0 0.0 1.0
  outer loop
    vertex -28.70710678118654 59.292893218813454 3.9999999999999996
    vertex -28.707106781186543 -2.2928932188134543 3.9999999999999996
    vertex -28.499999999999993 -2.133974596215563 3.9999999999999996
  endloop
endfacet
facet normal 0.0 0.0 1.0
  outer loop
    vertex -28.70710678118654 59.292893218813454 3.9999999999999996
    vertex -28.499999999999993 -2.133974596215563 3.9999999999999996
    vertex -28.499999999999993 59.133974596215566 3.9999999999999996
  endloop
endfacet
facet normal 0.0 0.0 1.0
  outer loop
    vertex -28.499999999999993 59.133974596215566 3.9999999999999996
    vertex -28.499999999999993 -2.133974596215563 3.9999999999999996
    vertex -28.258819045102516 -2.0340741737109336 3.9999999999999996
  endloop
endfacet
facet normal 0.0 0.0 1.0
  outer loop
    vertex -28.499999999999993 59.133974596215566 3.9999999999999996
    vertex -28.258819045102516 -2.0340741737109336 3.9999999999999996
    vertex -28.258819045102516 59.034074173710934 3.9999999999999996
  endloop
endfacet
facet normal 0.0 0.0 1.0
  outer loop
    vertex -28.258819045102516 59.034074173710934 3.9999999999999996
    vertex -28.258819045102516 -2.0340741737109336 3.9999999999999996
    vertex -27.999999999999993 -2.0000000000000018 3.9999999999999996
  endloop
endfacet
facet normal 0.0 0.0 1.0
  outer loop
    vertex -28.258819045102516 59.034074173710934 3.9999999999999996
    vertex -27.999999999999993 -2.0000000000000018 3.9999999999999996
    vertex -27.999999999999993 59.00000000000001 3.9999999999999996
  endloop
endfacet
facet normal 0.0 0.0 1.0
  outer loop
    vertex -27.999999999999993 59.00000000000001 3.9999999999999996
    vertex -27.999999999999993 -2.0000000000000018 3.9999999999999996
    vertex -27.741180954897477 -2.0340741737109336 3.9999999999999996
  endloop
endfacet
facet normal 0.0 0.0 1.0
  outer loop
    vertex -27.999999999999993 59.00000000000001 3.9999999999999996
    vertex -27.741180954897477 -2.0340741737109336 3.9999999999999996
    vertex -27.74118095489747 59.03407417371094 3.9999999999999996
  endloop
endfacet
facet normal 0.0 0.0 1.0
  outer loop
    vertex -27.74118095489747 59.03407417371094 3.9999999999999996
    vertex -27.741180954897477 -2.0340741737109336 3.9999999999999996
    vertex -27.499999999999996 -2.1339745962155625 3.9999999999999996
  endloop
endfacet
facet normal 0.0 0.0 1.0
  outer loop
    vertex -27.74118095489747 59.03407417371094 3.9999999999999996
    vertex -27.499999999999996 -2.1339745962155625 3.9999999999999996
    vertex -27.499999999999996 59.133974596215566 3.9999999999999996
  endloop
endfacet
facet normal 0.0 0.0 1.0
  outer loop
    vertex -27.499999999999996 59.133974596215566 3.9999999999999996
    vertex -27.499999999999996 -2.1339745962155625 3.9999999999999996
    vertex -27.29289321881345 -2.292893218813454 3.9999999999999996
  endloop
endfacet
facet normal 0.0 0.0 1.0
  outer loop
    vertex -27.499999999999996 59.133974596215566 3.9999999999999996
    vertex -27.29289321881345 -2.292893218813454 3.9999999999999996
    vertex -27.29289321881345 59.292893218813454 3.9999999999999996
  endloop
endfacet
facet normal 0.0 0.0 1.0
  outer loop
    vertex -27.29289321881345 59.292893218813454 3.9999999999999996
    vertex -27.29289321881345 -2.292893218813454 3.9999999999999996
    vertex -27.133974596215555 -2.500000000000001 3.9999999999999996
  endloop
endfacet
facet normal 0.0 0.0 1.0
  outer loop
    vertex -27.29289321881345 59.292893218813454 3.9999999999999996
    vertex -27.133974596215555 -2.500000000000001 3.9999999999999996
    vertex -27.133974596215555 59.50000000000001 3.9999999999999996
  endloop
endfacet
facet normal 0.0 0.0 1.0
  outer loop
    vertex -27.133974596215555 59.50000000000001 3.9999999999999996
    vertex -27.133974596215555 -2.500000000000001 3.9999999999999996
    vertex -27.034074173710927 -2.7411809548974793 3.9999999999999996
  endloop
endfacet
facet normal 0.0 0.0 1.0
  outer loop
    vertex -27.133974596215555 59.50000000000001 3.9999999999999996
    vertex -27.034074173710927 -2.7411809548974793 3.9999999999999996
    vertex -27.034074173710927 59.74118095489748 3.9999999999999996
  endloop
endfacet
facet normal 0.0 0.0 1.0
  outer loop
    vertex -27.034074173710927 59.74118095489748 3.9999999999999996
    vertex -27.034074173710927 -2.7411809548974793 3.9999999999999996
    vertex -26.999999999999996 -3.0 3.9999999999999996
  endloop
endfacet
facet normal 0.0 0.0 1.0
  outer loop
    vertex -27.034074173710927 59.74118095489748 3.9999999999999996
    vertex -26.999999999999996 -3.0 3.9999999999999996
    vertex -26.999999999999996 60.0 3.9999999999999996
  endloop
endfacet
facet normal 0.13052619222007758 0.991444861373807 0.0
  outer loop
    vertex 122.74118095489749 59.03407417371094 3.9999999999999996
    vertex 123.0 59.00000000000001 0.0
    vertex 122.74118095489749 59.03407417371094 0.0
  endloop
endfacet
facet normal 0.13052619222007758 0.991444861373807 0.0
  outer loop
    vertex 123.0 59.00000000000001 0.0
    vertex 122.74118095489749 59.03407417371094 3.9999999999999996
    vertex 123.0 59.00000000000001 3.9999999999999996
  endloop
endfacet
facet normal -0.9238795325112884 0.38268343236508595 0.0
  outer loop
    vertex 123.96592582628907 59.74118095489748 3.9999999999999996
    vertex 123.86602540378443 59.50000000000001 0.0
    vertex 123.86602540378443 59.50000000000001 3.9999999999999996
  endloop
endfacet
facet normal -0.9238795325112884 0.38268343236508595 0.0
  outer loop
    vertex 123.86602540378443 59.50000000000001 0.0
    vertex 123.96592582628907 59.74118095489748 3.9999999999999996
    vertex 123.96592582628907 59.74118095489748 0.0
  endloop
endfacet
facet normal 0.0 0.0 -1.0
  outer loop
    vertex -29.999999999999996 62.0 0.0
    vertex -28.999999999999993 60.0 0.0
    vertex -29.999999999999996 -5.0 0.0
  endloop
endfacet
facet normal 0.0 0.0 -1.0
  outer loop
    vertex -28.999999999999993 60.0 0.0
    vertex -29.999999999999996 62.0 0.0
    vertex -28.96592582628906 60.25881904510253 0.0
  endloop
endfacet
facet normal 0.0 0.0 -1.0
  outer loop
    vertex -28.96592582628906 60.25881904510253 0.0
    vertex -29.999999999999996 62.0 0.0
    vertex -28.866025403784434 60.5 0.0
  endloop
endfacet
facet normal 0.0 0.0 -1.0
  outer loop
    vertex -28.866025403784434 60.5 0.0
    vertex -29.999999999999996 62.0 0.0
    vertex -28.70710678118654 60.70710678118655 0.0
  endloop
endfacet
facet normal 0.0 0.0 -1.0
  outer loop
    vertex -28.70710678118654 60.70710678118655 0.0
    vertex -29.999999999999996 62.0 0.0
    vertex -28.499999999999993 60.866025403784434 0.0
  endloop
endfacet
facet normal 0.0 0.0 -1.0
  outer loop
    vertex -28.499999999999993 60.866025403784434 0.0
    vertex -29.999999999999996 62.0 0.0
    vertex -28.258819045102516 60.965925826289066 0.0
  endloop
endfacet
facet normal 0.0 0.0 -1.0
  outer loop
    vertex -28.258819045102516 60.965925826289066 0.0
    vertex -29.999999999999996 62.0 0.0
    vertex -27.999999999999993 61.0 0.0
  endloop
endfacet
facet normal 0.0 0.0 -1.0
  outer loop
    vertex -27.999999999999993 61.0 0.0
    vertex -29.999999999999996 62.0 0.0
    vertex 125.0 62.0 0.0
  endloop
endfacet
facet normal 0.0 0.0 -1.0
  outer loop
    vertex -27.999999999999993 61.0 0.0
    vertex 125.0 62.0 0.0
    vertex -27.741180954897477 60.96592582628907 0.0
  endloop
endfacet
facet normal 0.0 0.0 -1.0
  outer loop
    vertex -27.741180954897477 60.96592582628907 0.0
    vertex 125.0 62.0 0.0
    vertex -27.499999999999996 60.866025403784434 0.0
  endloop
endfacet
facet normal 0.0 0.0 -1.0
  outer loop
    vertex -27.499999999999996 60.866025403784434 0.0
    vertex 125.0 62.0 0.0
    vertex -27.29289321881345 60.70710678118655 0.0
  endloop
endfacet
facet normal 0.0 0.0 -1.0
  outer loop
    vertex -27.29289321881345 60.70710678118655 0.0
    vertex 125.0 62.0 0.0
    vertex -27.133974596215555 60.5 0.0
  endloop
endfacet
facet normal 0.0 0.0 -1.0
  outer loop
    vertex -27.133974596215555 60.5 0.0
    vertex 125.0 62.0 0.0
    vertex -27.034074173710927 60.25881904510253 0.0
  endloop
endfacet
facet normal 0.0 0.0 -1.0
  outer loop
    vertex -27.034074173710927 60.25881904510253 0.0
    vertex 125.0 62.0 0.0
    vertex -26.999999999999996 60.0 0.0
  endloop
endfacet
facet normal 0.0 0.0 -1.0
  outer loop
    vertex -26.999999999999996 60.0 0.0
    vertex 125.0 62.0 0.0
    vertex -26.999999999999996 -3.0 0.0
  endloop
endfacet
facet normal 0.0 0.0 -1.0
  outer loop
    vertex -26.999999999999996 -3.0 0.0
    vertex 125.0 62.0 0.0
    vertex 122.5 60.866025403784434 0.0
  endloop
endfacet
facet normal 0.0 0.0 -1.0
  outer loop
    vertex -26.999999999999996 -3.0 0.0
    vertex 122.5 60.866025403784434 0.0
    vertex 122.29289321881345 60.70710678118655 0.0
  endloop
endfacet
facet normal 0.0 0.0 -1.0
  outer loop
    vertex -26.999999999999996 -3.0 0.0
    vertex 122.29289321881345 60.70710678118655 0.0
    vertex 122.13397459621557 60.5 0.0
  endloop
endfacet
facet normal 0.0 0.0 -1.0
  outer loop
    vertex -26.999999999999996 -3.0 0.0
    vertex 122.13397459621557 60.5 0.0
    vertex 122.03407417371093 60.25881904510253 0.0
  endloop
endfacet
facet normal 0.0 0.0 -1.0
  outer loop
    vertex -26.999999999999996 -3.0 0.0
    vertex 122.03407417371093 60.25881904510253 0.0
    vertex 122.0 60.0 0.0
  endloop
endfacet
facet normal 0.0 0.0 -1.0
  outer loop
    vertex 122.5 60.866025403784434 0.0
    vertex 125.0 62.0 0.0
    vertex 122.74118095489749 60.96592582628907 0.0
  endloop
endfacet
facet normal 0.0 0.0 -1.0
  outer loop
    vertex 122.74118095489749 60.96592582628907 0.0
    vertex 125.0 62.0 0.0
    vertex 123.0 61.0 0.0
  endloop
endfacet
facet normal 0.0 0.0 -1.0
  outer loop
    vertex 123.0 61.0 0.0
    vertex 125.0 62.0 0.0
    vertex 123.25881904510251 60.965925826289066 0.0
  endloop
endfacet
facet normal 0.0 0.0 -1.0
  outer loop
    vertex 123.25881904510251 60.965925826289066 0.0
    vertex 125.0 62.0 0.0
    vertex 123.5 60.866025403784434 0.0
  endloop
endfacet
facet normal 0.0 0.0 -1.0
  outer loop
    vertex 123.5 60.866025403784434 0.0
    vertex 125.0 62.0 0.0
    vertex 123.70710678118655 60.70710678118655 0.0
  endloop
endfacet
facet normal 0.0 0.0 -1.0
  outer loop
    vertex 123.70710678118655 60.70710678118655 0.0
    vertex 125.0 62.0 0.0
    vertex 123.86602540378443 60.5 0.0
  endloop
endfacet
facet normal 0.0 0.0 -1.0
  outer loop
    vertex 123.86602540378443 60.5 0.0
    vertex 125.0 62.0 0.0
    vertex 123.96592582628907 60.25881904510253 0.0
  endloop
endfacet
facet normal 0.0 0.0 -1.0
  outer loop
    vertex 123.96592582628907 60.25881904510253 0.0
    vertex 125.0 62.0 0.0
    vertex 124.0 60.0 0.0
  endloop
endfacet
facet normal 0.0 0.0 -1.0
  outer loop
    vertex 124.0 60.0 0.0
    vertex 125.0 62.0 0.0
    vertex 124.0 -3.000000000000001 0.0
  endloop
endfacet
facet normal 0.0 0.0 -1.0
  outer loop
    vertex -29.999999999999996 -5.0 0.0
    vertex -27.999999999999993 -3.9999999999999982 0.0
    vertex 125.0 -5.0 0.0
  endloop
endfacet
facet normal 0.0 0.0 -1.0
  outer loop
    vertex -27.999999999999993 -3.9999999999999982 0.0
    vertex -29.999999999999996 -5.0 0.0
    vertex -28.258819045102516 -3.9659258262890664 0.0
  endloop
endfacet
facet normal 0.0 0.0 -1.0
  outer loop
    vertex -28.258819045102516 -3.9659258262890664 0.0
    vertex -29.999999999999996 -5.0 0.0
    vertex -28.499999999999993 -3.866025403784437 0.0
  endloop
endfacet
facet normal 0.0 0.0 -1.0
  outer loop
    vertex -28.499999999999993 -3.866025403784437 0.0
    vertex -29.999999999999996 -5.0 0.0
    vertex -28.70710678118654 -3.7071067811865466 0.0
  endloop
endfacet
facet normal 0.0 0.0 -1.0
  outer loop
    vertex -28.70710678118654 -3.7071067811865466 0.0
    vertex -29.999999999999996 -5.0 0.0
    vertex -28.866025403784434 -3.499999999999999 0.0
  endloop
endfacet
facet normal 0.0 0.0 -1.0
  outer loop
    vertex -28.866025403784434 -3.499999999999999 0.0
    vertex -29.999999999999996 -5.0 0.0
    vertex -28.96592582628906 -3.2588190451025207 0.0
  endloop
endfacet
facet normal 0.0 0.0 -1.0
  outer loop
    vertex -28.96592582628906 -3.2588190451025207 0.0
    vertex -29.999999999999996 -5.0 0.0
    vertex -28.999999999999993 -3.0 0.0
  endloop
endfacet
facet normal 0.0 0.0 -1.0
  outer loop
    vertex -28.999999999999993 -3.0 0.0
    vertex -29.999999999999996 -5.0 0.0
    vertex -28.999999999999993 60.0 0.0
  endloop
endfacet
facet normal 0.0 0.0 -1.0
  outer loop
    vertex 125.0 -5.0 0.0
    vertex -27.999999999999993 -3.9999999999999982 0.0
    vertex -27.74118095489747 -3.9659258262890664 0.0
  endloop
endfacet
facet normal 0.0 0.0 -1.0
  outer loop
    vertex 125.0 -5.0 0.0
    vertex -27.74118095489747 -3.9659258262890664 0.0
    vertex -27.499999999999996 -3.866025403784437 0.0
  endloop
endfacet
facet normal 0.0 0.0 -1.0
  outer loop
    vertex 125.0 -5.0 0.0
    vertex -27.499999999999996 -3.866025403784437 0.0
    vertex -27.29289321881345 -3.7071067811865466 0.0
  endloop
endfacet
facet normal 0.0 0.0 -1.0
  outer loop
    vertex 125.0 -5.0 0.0
    vertex -27.29289321881345 -3.7071067811865466 0.0
    vertex -27.133974596215555 -3.499999999999999 0.0
  endloop
endfacet
facet normal 0.0 0.0 -1.0
  outer loop
    vertex 125.0 -5.0 0.0
    vertex -27.133974596215555 -3.499999999999999 0.0
    vertex -27.034074173710927 -3.2588190451025203 0.0
  endloop
endfacet
facet normal 0.0 0.0 -1.0
  outer loop
    vertex 125.0 -5.0 0.0
    vertex -27.034074173710927 -3.2588190451025203 0.0
    vertex -26.999999999999996 -3.0 0.0
  endloop
endfacet
facet normal 0.0 0.0 -1.0
  outer loop
    vertex 125.0 -5.0 0.0
    vertex -26.999999999999996 -3.0 0.0
    vertex 122.5 -3.8660254037844393 0.0
  endloop
endfacet
facet normal 0.0 0.0 -1.0
  outer loop
    vertex 122.5 -3.8660254037844393 0.0
    vertex -26.999999999999996 -3.0 0.0
    vertex 122.29289321881345 -3.707106781186549 0.0
  endloop
endfacet
facet normal 0.0 0.0 -1.0
  outer loop
    vertex 122.29289321881345 -3.707106781186549 0.0
    vertex -26.999999999999996 -3.0 0.0
    vertex 122.13397459621557 -3.5000000000000013 0.0
  endloop
endfacet
facet normal 0.0 0.0 -1.0
  outer loop
    vertex 122.13397459621557 -3.5000000000000013 0.0
    vertex -26.999999999999996 -3.0 0.0
    vertex 122.03407417371093 -3.258819045102522 0.0
  endloop
endfacet
facet normal 0.0 0.0 -1.0
  outer loop
    vertex 122.03407417371093 -3.258819045102522 0.0
    vertex -26.999999999999996 -3.0 0.0
    vertex 122.0 -3.0000000000000013 0.0
  endloop
endfacet
facet normal 0.0 0.0 -1.0
  outer loop
    vertex 122.0 -3.0000000000000013 0.0
    vertex -26.999999999999996 -3.0 0.0
    vertex 122.0 60.0 0.0
  endloop
endfacet
facet normal 0.0 0.0 -1.0
  outer loop
    vertex 125.0 -5.0 0.0
    vertex 122.5 -3.8660254037844393 0.0
    vertex 122.74118095489749 -3.9659258262890695 0.0
  endloop
endfacet
facet normal 0.0 0.0 -1.0
  outer loop
    vertex 125.0 -5.0 0.0
    vertex 122.74118095489749 -3.9659258262890695 0.0
    vertex 123.0 -4.0 0.0
  endloop
endfacet
facet normal 0.0 0.0 -1.0
  outer loop
    vertex 125.0 -5.0 0.0
    vertex 123.0 -4.0 0.0
    vertex 123.25881904510251 -3.9659258262890686 0.0
  endloop
endfacet
facet normal 0.0 0.0 -1.0
  outer loop
    vertex 125.0 -5.0 0.0
    vertex 123.25881904510251 -3.9659258262890686 0.0
    vertex 123.5 -3.8660254037844393 0.0
  endloop
endfacet
facet normal 0.0 0.0 -1.0
  outer loop
    vertex 125.0 -5.0 0.0
    vertex 123.5 -3.8660254037844393 0.0
    vertex 123.70710678118655 -3.707106781186548 0.0
  endloop
endfacet
facet normal 0.0 0.0 -1.0
  outer loop
    vertex 125.0 -5.0 0.0
    vertex 123.70710678118655 -3.707106781186548 0.0
    vertex 123.86602540378443 -3.5000000000000004 0.0
  endloop
endfacet
facet normal 0.0 0.0 -1.0
  outer loop
    vertex 125.0 -5.0 0.0
    vertex 123.86602540378443 -3.5000000000000004 0.0
    vertex 123.96592582628907 -3.2588190451025216 0.0
  endloop
endfacet
facet normal 0.0 0.0 -1.0
  outer loop
    vertex 125.0 -5.0 0.0
    vertex 123.96592582628907 -3.2588190451025216 0.0
    vertex 124.0 -3.000000000000001 0.0
  endloop
endfacet
facet normal 0.0 0.0 -1.0
  outer loop
    vertex 125.0 -5.0 0.0
    vertex 124.0 -3.000000000000001 0.0
    vertex 125.0 62.0 0.0
  endloop
endfacet
facet normal 0.0 0.0 -1.0
  outer loop
    vertex 122.03407417371093 59.74118095489748 0.0
    vertex 122.0 -3.0000000000000013 0.0
    vertex 122.0 60.0 0.0
  endloop
endfacet
facet normal 0.0 0.0 -1.0
  outer loop
    vertex 122.0 -3.0000000000000013 0.0
    vertex 122.03407417371093 59.74118095489748 0.0
    vertex 122.03407417371093 -2.7411809548974806 0.0
  endloop
endfacet
facet normal 0.0 0.0 -1.0
  outer loop
    vertex 122.03407417371093 -2.7411809548974806 0.0
    vertex 122.03407417371093 59.74118095489748 0.0
    vertex 122.13397459621557 59.50000000000001 0.0
  endloop
endfacet
facet normal 0.0 0.0 -1.0
  outer loop
    vertex 122.03407417371093 -2.7411809548974806 0.0
    vertex 122.13397459621557 59.50000000000001 0.0
    vertex 122.13397459621557 -2.5000000000000018 0.0
  endloop
endfacet
facet normal 0.0 0.0 -1.0
  outer loop
    vertex 122.13397459621557 -2.5000000000000018 0.0
    vertex 122.13397459621557 59.50000000000001 0.0
    vertex 122.29289321881345 59.292893218813454 0.0
  endloop
endfacet
facet normal 0.0 0.0 -1.0
  outer loop
    vertex 122.13397459621557 -2.5000000000000018 0.0
    vertex 122.29289321881345 59.292893218813454 0.0
    vertex 122.29289321881345 -2.292893218813454 0.0
  endloop
endfacet
facet normal 0.0 0.0 -1.0
  outer loop
    vertex 122.29289321881345 -2.292893218813454 0.0
    vertex 122.29289321881345 59.292893218813454 0.0
    vertex 122.5 59.133974596215566 0.0
  endloop
endfacet
facet normal 0.0 0.0 -1.0
  outer loop
    vertex 122.29289321881345 -2.292893218813454 0.0
    vertex 122.5 59.133974596215566 0.0
    vertex 122.5 -2.1339745962155625 0.0
  endloop
endfacet
facet normal 0.0 0.0 -1.0
  outer loop
    vertex 122.5 -2.1339745962155625 0.0
    vertex 122.5 59.133974596215566 0.0
    vertex 122.74118095489749 59.03407417371094 0.0
  endloop
endfacet
facet normal 0.0 0.0 -1.0
  outer loop
    vertex 122.5 -2.1339745962155625 0.0
    vertex 122.74118095489749 59.03407417371094 0.0
    vertex 122.74118095489749 -2.034074173710933 0.0
  endloop
endfacet
facet normal 0.0 0.0 -1.0
  outer loop
    vertex 122.74118095489749 -2.034074173710933 0.0
    vertex 122.74118095489749 59.03407417371094 0.0
    vertex 123.0 59.00000000000001 0.0
  endloop
endfacet
facet normal 0.0 0.0 -1.0
  outer loop
    vertex 122.74118095489749 -2.034074173710933 0.0
    vertex 123.0 59.00000000000001 0.0
    vertex 123.0 -2.0000000000000013 0.0
  endloop
endfacet
facet normal 0.0 0.0 -1.0
  outer loop
    vertex 123.0 -2.0000000000000013 0.0
    vertex 123.0 59.00000000000001 0.0
    vertex 123.25881904510251 59.034074173710934 0.0
  endloop
endfacet
facet normal 0.0 0.0 -1.0
  outer loop
    vertex 123.0 -2.0000000000000013 0.0
    vertex 123.25881904510251 59.034074173710934 0.0
    vertex 123.25881904510251 -2.034074173710933 0.0
  endloop
endfacet
facet normal 0.0 0.0 -1.0
  outer loop
    vertex 123.25881904510251 -2.034074173710933 0.0
    vertex 123.25881904510251 59.034074173710934 0.0
    vertex 123.5 59.133974596215566 0.0
  endloop
endfacet
facet normal 0.0 0.0 -1.0
  outer loop
    vertex 123.25881904510251 -2.034074173710933 0.0
    vertex 123.5 59.133974596215566 0.0
    vertex 123.5 -2.1339745962155625 0.0
  endloop
endfacet
facet normal 0.0 0.0 -1.0
  outer loop
    vertex 123.5 -2.1339745962155625 0.0
    vertex 123.5 59.133974596215566 0.0
    vertex 123.70710678118655 59.292893218813454 0.0
  endloop
endfacet
facet normal 0.0 0.0 -1.0
  outer loop
    vertex 123.5 -2.1339745962155625 0.0
    vertex 123.70710678118655 59.292893218813454 0.0
    vertex 123.70710678118655 -2.2928932188134534 0.0
  endloop
endfacet
facet normal 0.0 0.0 -1.0
  outer loop
    vertex 123.70710678118655 -2.2928932188134534 0.0
    vertex 123.70710678118655 59.292893218813454 0.0
    vertex 123.86602540378443 59.50000000000001 0.0
  endloop
endfacet
facet normal 0.0 0.0 -1.0
  outer loop
    vertex 123.70710678118655 -2.2928932188134534 0.0
    vertex 123.86602540378443 59.50000000000001 0.0
    vertex 123.86602540378443 -2.500000000000001 0.0
  endloop
endfacet
facet normal 0.0 0.0 -1.0
  outer loop
    vertex 123.86602540378443 -2.500000000000001 0.0
    vertex 123.86602540378443 59.50000000000001 0.0
    vertex 123.96592582628907 59.74118095489748 0.0
  endloop
endfacet
facet normal 0.0 0.0 -1.0
  outer loop
    vertex 123.86602540378443 -2.500000000000001 0.0
    vertex 123.96592582628907 59.74118095489748 0.0
    vertex 123.96592582628907 -2.7411809548974797 0.0
  endloop
endfacet
facet normal 0.0 0.0 -1.0
  outer loop
    vertex 123.96592582628907 -2.7411809548974797 0.0
    vertex 123.96592582628907 59.74118095489748 0.0
    vertex 124.0 60.0 0.0
  endloop
endfacet
facet normal 0.0 0.0 -1.0
  outer loop
    vertex 123.96592582628907 -2.7411809548974797 0.0
    vertex 124.0 60.0 0.0
    vertex 124.0 -3.000000000000001 0.0
  endloop
endfacet
facet normal 0.0 0.0 -1.0
  outer loop
    vertex -28.96592582628906 59.74118095489748 0.0
    vertex -28.999999999999993 -3.0 0.0
    vertex -28.999999999999993 60.0 0.0
  endloop
endfacet
facet normal 0.0 0.0 -1.0
  outer loop
    vertex -28.999999999999993 -3.0 0.0
    vertex -28.96592582628906 59.74118095489748 0.0
    vertex -28.96592582628906 -2.74118095489748 0.0
  endloop
endfacet
facet normal 0.0 0.0 -1.0
  outer loop
    vertex -28.96592582628906 -2.74118095489748 0.0
    vertex -28.96592582628906 59.74118095489748 0.0
    vertex -28.866025403784434 59.50000000000001 0.0
  endloop
endfacet
facet normal 0.0 0.0 -1.0
  outer loop
    vertex -28.96592582628906 -2.74118095489748 0.0
    vertex -28.866025403784434 59.50000000000001 0.0
    vertex -28.866025403784434 -2.5000000000000013 0.0
  endloop
endfacet
facet normal 0.0 0.0 -1.0
  outer loop
    vertex -28.866025403784434 -2.5000000000000013 0.0
    vertex -28.866025403784434 59.50000000000001 0.0
    vertex -28.70710678118654 59.292893218813454 0.0
  endloop
endfacet
facet normal 0.0 0.0 -1.0
  outer loop
    vertex -28.866025403784434 -2.5000000000000013 0.0
    vertex -28.70710678118654 59.292893218813454 0.0
    vertex -28.707106781186543 -2.2928932188134543 0.0
  endloop
endfacet
facet normal 0.0 0.0 -1.0
  outer loop
    vertex -28.707106781186543 -2.2928932188134543 0.0
    vertex -28.70710678118654 59.292893218813454 0.0
    vertex -28.499999999999993 -2.133974596215563 0.0
  endloop
endfacet
facet normal 0.0 0.0 -1.0
  outer loop
    vertex -28.499999999999993 -2.133974596215563 0.0
    vertex -28.70710678118654 59.292893218813454 0.0
    vertex -28.499999999999993 59.133974596215566 0.0
  endloop
endfacet
facet normal 0.0 0.0 -1.0
  outer loop
    vertex -28.499999999999993 -2.133974596215563 0.0
    vertex -28.499999999999993 59.133974596215566 0.0
    vertex -28.258819045102516 59.034074173710934 0.0
  endloop
endfacet
facet normal 0.0 0.0 -1.0
  outer loop
    vertex -28.499999999999993 -2.133974596215563 0.0
    vertex -28.258819045102516 59.034074173710934 0.0
    vertex -28.258819045102516 -2.0340741737109336 0.0
  endloop
endfacet
facet normal 0.0 0.0 -1.0
  outer loop
    vertex -28.258819045102516 -2.0340741737109336 0.0
    vertex -28.258819045102516 59.034074173710934 0.0
    vertex -27.999999999999993 59.00000000000001 0.0
  endloop
endfacet
facet normal 0.0 0.0 -1.0
  outer loop
    vertex -28.258819045102516 -2.0340741737109336 0.0
    vertex -27.999999999999993 59.00000000000001 0.0
    vertex -27.999999999999993 -2.0000000000000018 0.0
  endloop
endfacet
facet normal 0.0 0.0 -1.0
  outer loop
    vertex -27.999999999999993 -2.0000000000000018 0.0
    vertex -27.999999999999993 59.00000000000001 0.0
    vertex -27.74118095489747 59.03407417371094 0.0
  endloop
endfacet
facet normal 0.0 0.0 -1.0
  outer loop
    vertex -27.999999999999993 -2.0000000000000018 0.0
    vertex -27.74118095489747 59.03407417371094 0.0
    vertex -27.741180954897477 -2.0340741737109336 0.0
  endloop
endfacet
facet normal 0.0 0.0 -1.0
  outer loop
    vertex -27.741180954897477 -2.0340741737109336 0.0
    vertex -27.74118095489747 59.03407417371094 0.0
    vertex -27.499999999999996 -2.1339745962155625 0.0
  endloop
endfacet
facet normal 0.0 0.0 -1.0
  outer loop
    vertex -27.499999999999996 -2.1339745962155625 0.0
    vertex -27.74118095489747 59.03407417371094 0.0
    vertex -27.499999999999996 59.133974596215566 0.0
  endloop
endfacet
facet normal 0.0 0.0 -1.0
  outer loop
    vertex -27.499999999999996 -2.1339745962155625 0.0
    vertex -27.499999999999996 59.133974596215566 0.0
    vertex -27.29289321881345 59.292893218813454 0.0
  endloop
endfacet
facet normal 0.0 0.0 -1.0
  outer loop
    vertex -27.499999999999996 -2.1339745962155625 0.0
    vertex -27.29289321881345 59.292893218813454 0.0
    vertex -27.29289321881345 -2.292893218813454 0.0
  endloop
endfacet
facet normal 0.0 0.0 -1.0
  outer loop
    vertex -27.29289321881345 -2.292893218813454 0.0
    vertex -27.29289321881345 59.292893218813454 0.0
    vertex -27.133974596215555 59.50000000000001 0.0
  endloop
endfacet
facet normal 0.0 0.0 -1.0
  outer loop
    vertex -27.29289321881345 -2.292893218813454 0.0
    vertex -27.133974596215555 59.50000000000001 0.0
    vertex -27.133974596215555 -2.500000000000001 0.0
  endloop
endfacet
facet normal 0.0 0.0 -1.0
  outer loop
    vertex -27.133974596215555 -2.500000000000001 0.0
    vertex -27.133974596215555 59.50000000000001 0.0
    vertex -27.034074173710927 59.74118095489748 0.0
  endloop
endfacet
facet normal 0.0 0.0 -1.0
  outer loop
    vertex -27.133974596215555 -2.500000000000001 0.0
    vertex -27.034074173710927 59.74118095489748 0.0
    vertex -27.034074173710927 -2.7411809548974793 0.0
  endloop
endfacet
facet normal 0.0 0.0 -1.0
  outer loop
    vertex -27.034074173710927 -2.7411809548974793 0.0
    vertex -27.034074173710927 59.74118095489748 0.0
    vertex -26.999999999999996 60.0 0.0
  endloop
endfacet
facet normal 0.0 0.0 -1.0
  outer loop
    vertex -27.034074173710927 -2.7411809548974793 0.0
    vertex -26.999999999999996 60.0 0.0
    vertex -26.999999999999996 -3.0 0.0
  endloop
endfacet
facet normal 0.9914448613738077 0.13052619222007197 0.0
  outer loop
    vertex 122.0 60.0 0.0
    vertex 122.03407417371093 59.74118095489748 3.9999999999999996
    vertex 122.03407417371093 59.74118095489748 0.0
  endloop
endfacet
facet normal 0.9914448613738077 0.13052619222007197 0.0
  outer loop
    vertex 122.03407417371093 59.74118095489748 3.9999999999999996
    vertex 122.0 60.0 0.0
    vertex 122.0 60.0 3.9999999999999996
  endloop
endfacet
facet normal 0.38268343236510755 -0.9238795325112795 0.0
  outer loop
    vertex 122.74118095489749 60.96592582628907 3.9999999999999996
    vertex 122.5 60.866025403784434 0.0
    vertex 122.74118095489749 60.96592582628907 0.0
  endloop
endfacet
facet normal 0.38268343236510755 -0.9238795325112795 0.0
  outer loop
    vertex 122.5 60.866025403784434 0.0
    vertex 122.74118095489749 60.96592582628907 3.9999999999999996
    vertex 122.5 60.866025403784434 3.9999999999999996
  endloop
endfacet
facet normal -0.6087614290086991 -0.7933533402912518 -0.0
  outer loop
    vertex 123.70710678118655 60.70710678118655 3.9999999999999996
    vertex 123.5 60.866025403784434 0.0
    vertex 123.70710678118655 60.70710678118655 0.0
  endloop
endfacet
facet normal -0.6087614290086991 -0.7933533402912518 -0.0
  outer loop
    vertex 123.5 60.866025403784434 0.0
    vertex 123.70710678118655 60.70710678118655 3.9999999999999996
    vertex 123.5 60.866025403784434 3.9999999999999996
  endloop
endfacet
facet normal -0.9238795325112884 -0.38268343236508595 -0.0
  outer loop
    vertex 123.86602540378443 60.5 3.9999999999999996
    vertex 123.96592582628907 60.25881904510253 0.0
    vertex 123.96592582628907 60.25881904510253 3.9999999999999996
  endloop
endfacet
facet normal -0.9238795325112884 -0.38268343236508595 -0.0
  outer loop
    vertex 123.96592582628907 60.25881904510253 0.0
    vertex 123.86602540378443 60.5 3.9999999999999996
    vertex 123.86602540378443 60.5 0.0
  endloop
endfacet
facet normal -0.9914448613738077 -0.13052619222007197 -0.0
  outer loop
    vertex 123.96592582628907 60.25881904510253 3.9999999999999996
    vertex 124.0 60.0 0.0
    vertex 124.0 60.0 3.9999999999999996
  endloop
endfacet
facet normal -0.9914448613738077 -0.13052619222007197 -0.0
  outer loop
    vertex 124.0 60.0 0.0
    vertex 123.96592582628907 60.25881904510253 3.9999999999999996
    vertex 123.96592582628907 60.25881904510253 0.0
  endloop
endfacet
facet normal 0.7933533402912518 -0.6087614290086991 0.0
  outer loop
    vertex 122.29289321881345 60.70710678118655 0.0
    vertex 122.13397459621557 60.5 3.9999999999999996
    vertex 122.13397459621557 60.5 0.0
  endloop
endfacet
facet normal 0.7933533402912518 -0.6087614290086991 0.0
  outer loop
    vertex 122.13397459621557 60.5 3.9999999999999996
    vertex 122.29289321881345 60.70710678118655 0.0
    vertex 122.29289321881345 60.70710678118655 3.9999999999999996
  endloop
endfacet
facet normal 0.9238795325112884 0.38268343236508595 0.0
  outer loop
    vertex 122.03407417371093 59.74118095489748 0.0
    vertex 122.13397459621557 59.50000000000001 3.9999999999999996
    vertex 122.13397459621557 59.50000000000001 0.0
  endloop
endfacet
facet normal 0.9238795325112884 0.38268343236508595 0.0
  outer loop
    vertex 122.13397459621557 59.50000000000001 3.9999999999999996
    vertex 122.03407417371093 59.74118095489748 0.0
    vertex 122.03407417371093 59.74118095489748 3.9999999999999996
  endloop
endfacet
facet normal 0.6087614290086991 -0.7933533402912518 0.0
  outer loop
    vertex 122.5 60.866025403784434 3.9999999999999996
    vertex 122.29289321881345 60.70710678118655 0.0
    vertex 122.5 60.866025403784434 0.0
  endloop
endfacet
facet normal 0.6087614290086991 -0.7933533402912518 0.0
  outer loop
    vertex 122.29289321881345 60.70710678118655 0.0
    vertex 122.5 60.866025403784434 3.9999999999999996
    vertex 122.29289321881345 60.70710678118655 3.9999999999999996
  endloop
endfacet
facet normal -0.9914448613738077 0.13052619222007197 0.0
  outer loop
    vertex 124.0 60.0 3.9999999999999996
    vertex 123.96592582628907 59.74118095489748 0.0
    vertex 123.96592582628907 59.74118095489748 3.9999999999999996
  endloop
endfacet
facet normal -0.9914448613738077 0.13052619222007197 0.0
  outer loop
    vertex 123.96592582628907 59.74118095489748 0.0
    vertex 124.0 60.0 3.9999999999999996
    vertex 124.0 60.0 0.0
  endloop
endfacet
facet normal -0.7933533402912518 -0.6087614290086991 -0.0
  outer loop
    vertex 123.70710678118655 60.70710678118655 3.9999999999999996
    vertex 123.86602540378443 60.5 0.0
    vertex 123.86602540378443 60.5 3.9999999999999996
  endloop
endfacet
facet normal -0.7933533402912518 -0.6087614290086991 -0.0
  outer loop
    vertex 123.86602540378443 60.5 0.0
    vertex 123.70710678118655 60.70710678118655 3.9999999999999996
    vertex 123.70710678118655 60.70710678118655 0.0
  endloop
endfacet
facet normal 0.9238795325112884 -0.38268343236508595 0.0
  outer loop
    vertex 122.13397459621557 60.5 0.0
    vertex 122.03407417371093 60.25881904510253 3.9999999999999996
    vertex 122.03407417371093 60.25881904510253 0.0
  endloop
endfacet
facet normal 0.9238795325112884 -0.38268343236508595 0.0
  outer loop
    vertex 122.03407417371093 60.25881904510253 3.9999999999999996
    vertex 122.13397459621557 60.5 0.0
    vertex 122.13397459621557 60.5 3.9999999999999996
  endloop
endfacet
facet normal 0.13052619222003511 -0.9914448613738126 0.0
  outer loop
    vertex 123.0 61.0 3.9999999999999996
    vertex 122.74118095489749 60.96592582628907 0.0
    vertex 123.0 61.0 0.0
  endloop
endfacet
facet normal 0.13052619222003511 -0.9914448613738126 0.0
  outer loop
    vertex 122.74118095489749 60.96592582628907 0.0
    vertex 123.0 61.0 3.9999999999999996
    vertex 122.74118095489749 60.96592582628907 3.9999999999999996
  endloop
endfacet
facet normal -0.13052619222007197 0.9914448613738077 0.0
  outer loop
    vertex -27.999999999999993 59.00000000000001 3.9999999999999996
    vertex -27.74118095489747 59.03407417371094 0.0
    vertex -27.999999999999993 59.00000000000001 0.0
  endloop
endfacet
facet normal -0.13052619222007197 0.9914448613738077 0.0
  outer loop
    vertex -27.74118095489747 59.03407417371094 0.0
    vertex -27.999999999999993 59.00000000000001 3.9999999999999996
    vertex -27.74118095489747 59.03407417371094 3.9999999999999996
  endloop
endfacet
facet normal -0.38268343236507063 -0.9238795325112947 -0.0
  outer loop
    vertex 123.5 60.866025403784434 3.9999999999999996
    vertex 123.25881904510251 60.965925826289066 0.0
    vertex 123.5 60.866025403784434 0.0
  endloop
endfacet
facet normal -0.38268343236507063 -0.9238795325112947 -0.0
  outer loop
    vertex 123.25881904510251 60.965925826289066 0.0
    vertex 123.5 60.866025403784434 3.9999999999999996
    vertex 123.25881904510251 60.965925826289066 3.9999999999999996
  endloop
endfacet
facet normal 0.9914448613738077 -0.13052619222007197 0.0
  outer loop
    vertex 122.03407417371093 60.25881904510253 0.0
    vertex 122.0 60.0 3.9999999999999996
    vertex 122.0 60.0 0.0
  endloop
endfacet
facet normal 0.9914448613738077 -0.13052619222007197 0.0
  outer loop
    vertex 122.0 60.0 3.9999999999999996
    vertex 122.03407417371093 60.25881904510253 0.0
    vertex 122.03407417371093 60.25881904510253 3.9999999999999996
  endloop
endfacet
facet normal -0.38268343236508595 0.9238795325112884 0.0
  outer loop
    vertex -27.74118095489747 59.03407417371094 3.9999999999999996
    vertex -27.499999999999996 59.133974596215566 0.0
    vertex -27.74118095489747 59.03407417371094 0.0
  endloop
endfacet
facet normal -0.38268343236508595 0.9238795325112884 0.0
  outer loop
    vertex -27.499999999999996 59.133974596215566 0.0
    vertex -27.74118095489747 59.03407417371094 3.9999999999999996
    vertex -27.499999999999996 59.133974596215566 3.9999999999999996
  endloop
endfacet
facet normal -0.13052619222007758 -0.991444861373807 -0.0
  outer loop
    vertex 123.25881904510251 60.965925826289066 3.9999999999999996
    vertex 123.0 61.0 0.0
    vertex 123.25881904510251 60.965925826289066 0.0
  endloop
endfacet
facet normal -0.13052619222007758 -0.991444861373807 -0.0
  outer loop
    vertex 123.0 61.0 0.0
    vertex 123.25881904510251 60.965925826289066 3.9999999999999996
    vertex 123.0 61.0 3.9999999999999996
  endloop
endfacet
facet normal 0.7933533402912518 0.6087614290086991 0.0
  outer loop
    vertex 122.13397459621557 59.50000000000001 0.0
    vertex 122.29289321881345 59.292893218813454 3.9999999999999996
    vertex 122.29289321881345 59.292893218813454 0.0
  endloop
endfacet
facet normal 0.7933533402912518 0.6087614290086991 0.0
  outer loop
    vertex 122.29289321881345 59.292893218813454 3.9999999999999996
    vertex 122.13397459621557 59.50000000000001 0.0
    vertex 122.13397459621557 59.50000000000001 3.9999999999999996
  endloop
endfacet
facet normal -0.7933533402912518 0.6087614290086991 0.0
  outer loop
    vertex 123.86602540378443 59.50000000000001 3.9999999999999996
    vertex 123.70710678118655 59.292893218813454 0.0
    vertex 123.70710678118655 59.292893218813454 3.9999999999999996
  endloop
endfacet
facet normal -0.7933533402912518 0.6087614290086991 0.0
  outer loop
    vertex 123.70710678118655 59.292893218813454 0.0
    vertex 123.86602540378443 59.50000000000001 3.9999999999999996
    vertex 123.86602540378443 59.50000000000001 0.0
  endloop
endfacet
facet normal 0.6087614290086991 0.7933533402912518 0.0
  outer loop
    vertex 122.29289321881345 59.292893218813454 3.9999999999999996
    vertex 122.5 59.133974596215566 0.0
    vertex 122.29289321881345 59.292893218813454 0.0
  endloop
endfacet
facet normal 0.6087614290086991 0.7933533402912518 0.0
  outer loop
    vertex 122.5 59.133974596215566 0.0
    vertex 122.29289321881345 59.292893218813454 3.9999999999999996
    vertex 122.5 59.133974596215566 3.9999999999999996
  endloop
endfacet
facet normal -1.0 0.0 0.0
  outer loop
    vertex -29.999999999999996 62.0 3.9999999999999996
    vertex -29.999999999999996 -5.0 0.0
    vertex -29.999999999999996 -5.0 3.9999999999999996
  endloop
endfacet
facet normal -1.0 0.0 0.0
  outer loop
    vertex -29.999999999999996 -5.0 0.0
    vertex -29.999999999999996 62.0 3.9999999999999996
    vertex -29.999999999999996 62.0 0.0
  endloop
endfacet
facet normal 0.38268343236507063 0.9238795325112947 0.0
  outer loop
    vertex 122.5 59.133974596215566 3.9999999999999996
    vertex 122.74118095489749 59.03407417371094 0.0
    vertex 122.5 59.133974596215566 0.0
  endloop
endfacet
facet normal 0.38268343236507063 0.9238795325112947 0.0
  outer loop
    vertex 122.74118095489749 59.03407417371094 0.0
    vertex 122.5 59.133974596215566 3.9999999999999996
    vertex 122.74118095489749 59.03407417371094 3.9999999999999996
  endloop
endfacet
facet normal -0.6087614290086991 0.7933533402912518 0.0
  outer loop
    vertex 123.5 59.133974596215566 3.9999999999999996
    vertex 123.70710678118655 59.292893218813454 0.0
    vertex 123.5 59.133974596215566 0.0
  endloop
endfacet
facet normal -0.6087614290086991 0.7933533402912518 0.0
  outer loop
    vertex 123.70710678118655 59.292893218813454 0.0
    vertex 123.5 59.133974596215566 3.9999999999999996
    vertex 123.70710678118655 59.292893218813454 3.9999999999999996
  endloop
endfacet
facet normal -0.9238795325112884 -0.38268343236508595 -0.0
  outer loop
    vertex -27.133974596215555 60.5 3.9999999999999996
    vertex -27.034074173710927 60.25881904510253 0.0
    vertex -27.034074173710927 60.25881904510253 3.9999999999999996
  endloop
endfacet
facet normal -0.9238795325112884 -0.38268343236508595 -0.0
  outer loop
    vertex -27.034074173710927 60.25881904510253 0.0
    vertex -27.133974596215555 60.5 3.9999999999999996
    vertex -27.133974596215555 60.5 0.0
  endloop
endfacet
facet normal -0.793353340291231 -0.6087614290087263 -0.0
  outer loop
    vertex -27.29289321881345 60.70710678118655 3.9999999999999996
    vertex -27.133974596215555 60.5 0.0
    vertex -27.133974596215555 60.5 3.9999999999999996
  endloop
endfacet
facet normal -0.793353340291231 -0.6087614290087263 -0.0
  outer loop
    vertex -27.133974596215555 60.5 0.0
    vertex -27.29289321881345 60.70710678118655 3.9999999999999996
    vertex -27.29289321881345 60.70710678118655 0.0
  endloop
endfacet
facet normal -0.9914448613738106 0.13052619222005077 0.0
  outer loop
    vertex -26.999999999999996 60.0 3.9999999999999996
    vertex -27.034074173710927 59.74118095489748 0.0
    vertex -27.034074173710927 59.74118095489748 3.9999999999999996
  endloop
endfacet
facet normal -0.9914448613738106 0.13052619222005077 0.0
  outer loop
    vertex -27.034074173710927 59.74118095489748 0.0
    vertex -26.999999999999996 60.0 3.9999999999999996
    vertex -26.999999999999996 60.0 0.0
  endloop
endfacet
facet normal 0.9914448613738106 0.13052619222005077 0.0
  outer loop
    vertex -28.999999999999993 60.0 0.0
    vertex -28.96592582628906 59.74118095489748 3.9999999999999996
    vertex -28.96592582628906 59.74118095489748 0.0
  endloop
endfacet
facet normal 0.9914448613738106 0.13052619222005077 0.0
  outer loop
    vertex -28.96592582628906 59.74118095489748 3.9999999999999996
    vertex -28.999999999999993 60.0 0.0
    vertex -28.999999999999993 60.0 3.9999999999999996
  endloop
endfacet
facet normal 0.38268343236508595 -0.9238795325112884 0.0
  outer loop
    vertex -28.258819045102516 60.965925826289066 3.9999999999999996
    vertex -28.499999999999993 60.866025403784434 0.0
    vertex -28.258819045102516 60.965925826289066 0.0
  endloop
endfacet
facet normal 0.38268343236508595 -0.9238795325112884 0.0
  outer loop
    vertex -28.499999999999993 60.866025403784434 0.0
    vertex -28.258819045102516 60.965925826289066 3.9999999999999996
    vertex -28.499999999999993 60.866025403784434 3.9999999999999996
  endloop
endfacet
facet normal -0.6087614290087096 -0.7933533402912437 -0.0
  outer loop
    vertex -27.29289321881345 60.70710678118655 3.9999999999999996
    vertex -27.499999999999996 60.866025403784434 0.0
    vertex -27.29289321881345 60.70710678118655 0.0
  endloop
endfacet
facet normal -0.6087614290087096 -0.7933533402912437 -0.0
  outer loop
    vertex -27.499999999999996 60.866025403784434 0.0
    vertex -27.29289321881345 60.70710678118655 3.9999999999999996
    vertex -27.499999999999996 60.866025403784434 3.9999999999999996
  endloop
endfacet
facet normal -0.3826834323651152 -0.9238795325112764 -0.0
  outer loop
    vertex -27.499999999999996 60.866025403784434 3.9999999999999996
    vertex -27.741180954897477 60.96592582628907 0.0
    vertex -27.499999999999996 60.866025403784434 0.0
  endloop
endfacet
facet normal -0.3826834323651152 -0.9238795325112764 -0.0
  outer loop
    vertex -27.741180954897477 60.96592582628907 0.0
    vertex -27.499999999999996 60.866025403784434 3.9999999999999996
    vertex -27.741180954897477 60.96592582628907 3.9999999999999996
  endloop
endfacet
facet normal 0.6087614290087096 -0.7933533402912437 0.0
  outer loop
    vertex -28.499999999999993 60.866025403784434 3.9999999999999996
    vertex -28.70710678118654 60.70710678118655 0.0
    vertex -28.499999999999993 60.866025403784434 0.0
  endloop
endfacet
facet normal 0.6087614290087096 -0.7933533402912437 0.0
  outer loop
    vertex -28.70710678118654 60.70710678118655 0.0
    vertex -28.499999999999993 60.866025403784434 3.9999999999999996
    vertex -28.70710678118654 60.70710678118655 3.9999999999999996
  endloop
endfacet
facet normal -0.9914448613738106 -0.13052619222005077 -0.0
  outer loop
    vertex -27.034074173710927 60.25881904510253 3.9999999999999996
    vertex -26.999999999999996 60.0 0.0
    vertex -26.999999999999996 60.0 3.9999999999999996
  endloop
endfacet
facet normal -0.9914448613738106 -0.13052619222005077 -0.0
  outer loop
    vertex -26.999999999999996 60.0 0.0
    vertex -27.034074173710927 60.25881904510253 3.9999999999999996
    vertex -27.034074173710927 60.25881904510253 0.0
  endloop
endfacet
facet normal 0.13052619222007197 -0.9914448613738077 0.0
  outer loop
    vertex -27.999999999999993 61.0 3.9999999999999996
    vertex -28.258819045102516 60.965925826289066 0.0
    vertex -27.999999999999993 61.0 0.0
  endloop
endfacet
facet normal 0.13052619222007197 -0.9914448613738077 0.0
  outer loop
    vertex -28.258819045102516 60.965925826289066 0.0
    vertex -27.999999999999993 61.0 3.9999999999999996
    vertex -28.258819045102516 60.965925826289066 3.9999999999999996
  endloop
endfacet
facet normal -0.9238795325112884 0.38268343236508595 0.0
  outer loop
    vertex -27.034074173710927 59.74118095489748 3.9999999999999996
    vertex -27.133974596215555 59.50000000000001 0.0
    vertex -27.133974596215555 59.50000000000001 3.9999999999999996
  endloop
endfacet
facet normal -0.9238795325112884 0.38268343236508595 0.0
  outer loop
    vertex -27.133974596215555 59.50000000000001 0.0
    vertex -27.034074173710927 59.74118095489748 3.9999999999999996
    vertex -27.034074173710927 59.74118095489748 0.0
  endloop
endfacet
facet normal 0.793353340291231 -0.6087614290087263 0.0
  outer loop
    vertex -28.70710678118654 60.70710678118655 0.0
    vertex -28.866025403784434 60.5 3.9999999999999996
    vertex -28.866025403784434 60.5 0.0
  endloop
endfacet
facet normal 0.793353340291231 -0.6087614290087263 0.0
  outer loop
    vertex -28.866025403784434 60.5 3.9999999999999996
    vertex -28.70710678118654 60.70710678118655 0.0
    vertex -28.70710678118654 60.70710678118655 3.9999999999999996
  endloop
endfacet
facet normal -0.6087614290087096 0.7933533402912437 0.0
  outer loop
    vertex -27.499999999999996 59.133974596215566 3.9999999999999996
    vertex -27.29289321881345 59.292893218813454 0.0
    vertex -27.499999999999996 59.133974596215566 0.0
  endloop
endfacet
facet normal -0.6087614290087096 0.7933533402912437 0.0
  outer loop
    vertex -27.29289321881345 59.292893218813454 0.0
    vertex -27.499999999999996 59.133974596215566 3.9999999999999996
    vertex -27.29289321881345 59.292893218813454 3.9999999999999996
  endloop
endfacet
facet normal 0.0 1.0 0.0
  outer loop
    vertex -29.999999999999996 62.0 3.9999999999999996
    vertex 125.0 62.0 0.0
    vertex -29.999999999999996 62.0 0.0
  endloop
endfacet
facet normal 0.0 1.0 0.0
  outer loop
    vertex 125.0 62.0 0.0
    vertex -29.999999999999996 62.0 3.9999999999999996
    vertex 125.0 62.0 3.9999999999999996
  endloop
endfacet
facet normal 1.0 0.0 0.0
  outer loop
    vertex 125.0 62.0 0.0
    vertex 125.0 -5.0 3.9999999999999996
    vertex 125.0 -5.0 0.0
  endloop
endfacet
facet normal 1.0 0.0 0.0
  outer loop
    vertex 125.0 -5.0 3.9999999999999996
    vertex 125.0 62.0 0.0
    vertex 125.0 62.0 3.9999999999999996
  endloop
endfacet
facet normal 0.9238795325112884 0.38268343236508595 0.0
  outer loop
    vertex -28.96592582628906 59.74118095489748 0.0
    vertex -28.866025403784434 59.50000000000001 3.9999999999999996
    vertex -28.866025403784434 59.50000000000001 0.0
  endloop
endfacet
facet normal 0.9238795325112884 0.38268343236508595 0.0
  outer loop
    vertex -28.866025403784434 59.50000000000001 3.9999999999999996
    vertex -28.96592582628906 59.74118095489748 0.0
    vertex -28.96592582628906 59.74118095489748 3.9999999999999996
  endloop
endfacet
facet normal 0.13052619222002954 0.9914448613738135 0.0
  outer loop
    vertex -28.258819045102516 59.034074173710934 3.9999999999999996
    vertex -27.999999999999993 59.00000000000001 0.0
    vertex -28.258819045102516 59.034074173710934 0.0
  endloop
endfacet
facet normal 0.13052619222002954 0.9914448613738135 0.0
  outer loop
    vertex -27.999999999999993 59.00000000000001 0.0
    vertex -28.258819045102516 59.034074173710934 3.9999999999999996
    vertex -27.999999999999993 59.00000000000001 3.9999999999999996
  endloop
endfacet
facet normal 0.6087614290087096 0.7933533402912437 0.0
  outer loop
    vertex -28.70710678118654 59.292893218813454 3.9999999999999996
    vertex -28.499999999999993 59.133974596215566 0.0
    vertex -28.70710678118654 59.292893218813454 0.0
  endloop
endfacet
facet normal 0.6087614290087096 0.7933533402912437 0.0
  outer loop
    vertex -28.499999999999993 59.133974596215566 0.0
    vertex -28.70710678118654 59.292893218813454 3.9999999999999996
    vertex -28.499999999999993 59.133974596215566 3.9999999999999996
  endloop
endfacet
facet normal 0.38268343236512276 0.9238795325112731 0.0
  outer loop
    vertex -28.499999999999993 59.133974596215566 3.9999999999999996
    vertex -28.258819045102516 59.034074173710934 0.0
    vertex -28.499999999999993 59.133974596215566 0.0
  endloop
endfacet
facet normal 0.38268343236512276 0.9238795325112731 0.0
  outer loop
    vertex -28.258819045102516 59.034074173710934 0.0
    vertex -28.499999999999993 59.133974596215566 3.9999999999999996
    vertex -28.258819045102516 59.034074173710934 3.9999999999999996
  endloop
endfacet
facet normal -0.793353340291231 0.6087614290087263 0.0
  outer loop
    vertex -27.133974596215555 59.50000000000001 3.9999999999999996
    vertex -27.29289321881345 59.292893218813454 0.0
    vertex -27.29289321881345 59.292893218813454 3.9999999999999996
  endloop
endfacet
facet normal -0.793353340291231 0.6087614290087263 0.0
  outer loop
    vertex -27.29289321881345 59.292893218813454 0.0
    vertex -27.133974596215555 59.50000000000001 3.9999999999999996
    vertex -27.133974596215555 59.50000000000001 0.0
  endloop
endfacet
facet normal 0.7933533402912368 -0.6087614290087187 0.0
  outer loop
    vertex -28.707106781186543 -2.2928932188134543 0.0
    vertex -28.866025403784434 -2.5000000000000013 3.9999999999999996
    vertex -28.866025403784434 -2.5000000000000013 0.0
  endloop
endfacet
facet normal 0.7933533402912368 -0.6087614290087187 0.0
  outer loop
    vertex -28.866025403784434 -2.5000000000000013 3.9999999999999996
    vertex -28.707106781186543 -2.2928932188134543 0.0
    vertex -28.707106781186543 -2.2928932188134543 3.9999999999999996
  endloop
endfacet
facet normal -0.9238795325112895 -0.382683432365083 -0.0
  outer loop
    vertex -27.133974596215555 -2.500000000000001 3.9999999999999996
    vertex -27.034074173710927 -2.7411809548974793 0.0
    vertex -27.034074173710927 -2.7411809548974793 3.9999999999999996
  endloop
endfacet
facet normal -0.9238795325112895 -0.382683432365083 -0.0
  outer loop
    vertex -27.034074173710927 -2.7411809548974793 0.0
    vertex -27.133974596215555 -2.500000000000001 3.9999999999999996
    vertex -27.133974596215555 -2.500000000000001 0.0
  endloop
endfacet
facet normal 0.9914448613738104 -0.13052619222005216 0.0
  outer loop
    vertex -28.96592582628906 -2.74118095489748 0.0
    vertex -28.999999999999993 -3.0 3.9999999999999996
    vertex -28.999999999999993 -3.0 0.0
  endloop
endfacet
facet normal 0.9914448613738104 -0.13052619222005216 0.0
  outer loop
    vertex -28.999999999999993 -3.0 3.9999999999999996
    vertex -28.96592582628906 -2.74118095489748 0.0
    vertex -28.96592582628906 -2.74118095489748 3.9999999999999996
  endloop
endfacet
facet normal 0.7933533402912268 0.6087614290087315 0.0
  outer loop
    vertex -28.866025403784434 -3.499999999999999 0.0
    vertex -28.70710678118654 -3.7071067811865466 3.9999999999999996
    vertex -28.70710678118654 -3.7071067811865466 0.0
  endloop
endfacet
facet normal 0.7933533402912268 0.6087614290087315 0.0
  outer loop
    vertex -28.70710678118654 -3.7071067811865466 3.9999999999999996
    vertex -28.866025403784434 -3.499999999999999 0.0
    vertex -28.866025403784434 -3.499999999999999 3.9999999999999996
  endloop
endfacet
facet normal -0.6087614290087257 -0.7933533402912314 -0.0
  outer loop
    vertex -27.29289321881345 -2.292893218813454 3.9999999999999996
    vertex -27.499999999999996 -2.1339745962155625 0.0
    vertex -27.29289321881345 -2.292893218813454 0.0
  endloop
endfacet
facet normal -0.6087614290087257 -0.7933533402912314 -0.0
  outer loop
    vertex -27.499999999999996 -2.1339745962155625 0.0
    vertex -27.29289321881345 -2.292893218813454 3.9999999999999996
    vertex -27.499999999999996 -2.1339745962155625 3.9999999999999996
  endloop
endfacet
facet normal -0.382683432365084 -0.9238795325112892 -0.0
  outer loop
    vertex -27.499999999999996 -2.1339745962155625 3.9999999999999996
    vertex -27.741180954897477 -2.0340741737109336 0.0
    vertex -27.499999999999996 -2.1339745962155625 0.0
  endloop
endfacet
facet normal -0.382683432365084 -0.9238795325112892 -0.0
  outer loop
    vertex -27.741180954897477 -2.0340741737109336 0.0
    vertex -27.499999999999996 -2.1339745962155625 3.9999999999999996
    vertex -27.741180954897477 -2.0340741737109336 3.9999999999999996
  endloop
endfacet
facet normal 0.13052619222005077 -0.9914448613738106 0.0
  outer loop
    vertex -27.999999999999993 -2.0000000000000018 3.9999999999999996
    vertex -28.258819045102516 -2.0340741737109336 0.0
    vertex -27.999999999999993 -2.0000000000000018 0.0
  endloop
endfacet
facet normal 0.13052619222005077 -0.9914448613738106 0.0
  outer loop
    vertex -28.258819045102516 -2.0340741737109336 0.0
    vertex -27.999999999999993 -2.0000000000000018 3.9999999999999996
    vertex -28.258819045102516 -2.0340741737109336 3.9999999999999996
  endloop
endfacet
facet normal 0.38268343236509283 -0.9238795325112855 0.0
  outer loop
    vertex -28.258819045102516 -2.0340741737109336 3.9999999999999996
    vertex -28.499999999999993 -2.133974596215563 0.0
    vertex -28.258819045102516 -2.0340741737109336 0.0
  endloop
endfacet
facet normal 0.38268343236509283 -0.9238795325112855 0.0
  outer loop
    vertex -28.499999999999993 -2.133974596215563 0.0
    vertex -28.258819045102516 -2.0340741737109336 3.9999999999999996
    vertex -28.499999999999993 -2.133974596215563 3.9999999999999996
  endloop
endfacet
facet normal -0.13052619222005354 -0.9914448613738103 -0.0
  outer loop
    vertex -27.741180954897477 -2.0340741737109336 3.9999999999999996
    vertex -27.999999999999993 -2.0000000000000018 0.0
    vertex -27.741180954897477 -2.0340741737109336 0.0
  endloop
endfacet
facet normal -0.13052619222005354 -0.9914448613738103 -0.0
  outer loop
    vertex -27.999999999999993 -2.0000000000000018 0.0
    vertex -27.741180954897477 -2.0340741737109336 3.9999999999999996
    vertex -27.999999999999993 -2.0000000000000018 3.9999999999999996
  endloop
endfacet
facet normal 0.9238795325112895 0.382683432365083 0.0
  outer loop
    vertex -28.96592582628906 -3.2588190451025207 0.0
    vertex -28.866025403784434 -3.499999999999999 3.9999999999999996
    vertex -28.866025403784434 -3.499999999999999 0.0
  endloop
endfacet
facet normal 0.9238795325112895 0.382683432365083 0.0
  outer loop
    vertex -28.866025403784434 -3.499999999999999 3.9999999999999996
    vertex -28.96592582628906 -3.2588190451025207 0.0
    vertex -28.96592582628906 -3.2588190451025207 3.9999999999999996
  endloop
endfacet
facet normal -0.7933533402912264 -0.6087614290087322 -0.0
  outer loop
    vertex -27.29289321881345 -2.292893218813454 3.9999999999999996
    vertex -27.133974596215555 -2.500000000000001 0.0
    vertex -27.133974596215555 -2.500000000000001 3.9999999999999996
  endloop
endfacet
facet normal -0.7933533402912264 -0.6087614290087322 -0.0
  outer loop
    vertex -27.133974596215555 -2.500000000000001 0.0
    vertex -27.29289321881345 -2.292893218813454 3.9999999999999996
    vertex -27.29289321881345 -2.292893218813454 0.0
  endloop
endfacet
facet normal 0.6087614290087249 0.7933533402912321 0.0
  outer loop
    vertex -28.70710678118654 -3.7071067811865466 3.9999999999999996
    vertex -28.499999999999993 -3.866025403784437 0.0
    vertex -28.70710678118654 -3.7071067811865466 0.0
  endloop
endfacet
facet normal 0.6087614290087249 0.7933533402912321 0.0
  outer loop
    vertex -28.499999999999993 -3.866025403784437 0.0
    vertex -28.70710678118654 -3.7071067811865466 3.9999999999999996
    vertex -28.499999999999993 -3.866025403784437 3.9999999999999996
  endloop
endfacet
facet normal 0.13052619222005077 0.9914448613738106 0.0
  outer loop
    vertex -28.258819045102516 -3.9659258262890664 3.9999999999999996
    vertex -27.999999999999993 -3.9999999999999982 0.0
    vertex -28.258819045102516 -3.9659258262890664 0.0
  endloop
endfacet
facet normal 0.13052619222005077 0.9914448613738106 0.0
  outer loop
    vertex -27.999999999999993 -3.9999999999999982 0.0
    vertex -28.258819045102516 -3.9659258262890664 3.9999999999999996
    vertex -27.999999999999993 -3.9999999999999982 3.9999999999999996
  endloop
endfacet
facet normal -0.9914448613738104 0.13052619222005216 0.0
  outer loop
    vertex -26.999999999999996 -3.0 3.9999999999999996
    vertex -27.034074173710927 -3.2588190451025203 0.0
    vertex -27.034074173710927 -3.2588190451025203 3.9999999999999996
  endloop
endfacet
facet normal -0.9914448613738104 0.13052619222005216 0.0
  outer loop
    vertex -27.034074173710927 -3.2588190451025203 0.0
    vertex -26.999999999999996 -3.0 3.9999999999999996
    vertex -26.999999999999996 -3.0 0.0
  endloop
endfacet
facet normal -0.9914448613738104 -0.13052619222005163 -0.0
  outer loop
    vertex -27.034074173710927 -2.7411809548974793 3.9999999999999996
    vertex -26.999999999999996 -3.0 0.0
    vertex -26.999999999999996 -3.0 3.9999999999999996
  endloop
endfacet
facet normal -0.9914448613738104 -0.13052619222005163 -0.0
  outer loop
    vertex -26.999999999999996 -3.0 0.0
    vertex -27.034074173710927 -2.7411809548974793 3.9999999999999996
    vertex -27.034074173710927 -2.7411809548974793 0.0
  endloop
endfacet
facet normal 0.9914448613738104 0.1305261922200518 0.0
  outer loop
    vertex -28.999999999999993 -3.0 0.0
    vertex -28.96592582628906 -3.2588190451025207 3.9999999999999996
    vertex -28.96592582628906 -3.2588190451025207 0.0
  endloop
endfacet
facet normal 0.9914448613738104 0.1305261922200518 0.0
  outer loop
    vertex -28.96592582628906 -3.2588190451025207 3.9999999999999996
    vertex -28.999999999999993 -3.0 0.0
    vertex -28.999999999999993 -3.0 3.9999999999999996
  endloop
endfacet
facet normal 0.38268343236509283 0.9238795325112855 0.0
  outer loop
    vertex -28.499999999999993 -3.866025403784437 3.9999999999999996
    vertex -28.258819045102516 -3.9659258262890664 0.0
    vertex -28.499999999999993 -3.866025403784437 0.0
  endloop
endfacet
facet normal 0.38268343236509283 0.9238795325112855 0.0
  outer loop
    vertex -28.258819045102516 -3.9659258262890664 0.0
    vertex -28.499999999999993 -3.866025403784437 3.9999999999999996
    vertex -28.258819045102516 -3.9659258262890664 3.9999999999999996
  endloop
endfacet
facet normal 0.9238795325112898 -0.3826834323650826 0.0
  outer loop
    vertex -28.866025403784434 -2.5000000000000013 0.0
    vertex -28.96592582628906 -2.74118095489748 3.9999999999999996
    vertex -28.96592582628906 -2.74118095489748 0.0
  endloop
endfacet
facet normal 0.9238795325112898 -0.3826834323650826 0.0
  outer loop
    vertex -28.96592582628906 -2.74118095489748 3.9999999999999996
    vertex -28.866025403784434 -2.5000000000000013 0.0
    vertex -28.866025403784434 -2.5000000000000013 3.9999999999999996
  endloop
endfacet
facet normal 0.6087614290087161 -0.7933533402912386 0.0
  outer loop
    vertex -28.499999999999993 -2.133974596215563 3.9999999999999996
    vertex -28.707106781186543 -2.2928932188134543 0.0
    vertex -28.499999999999993 -2.133974596215563 0.0
  endloop
endfacet
facet normal 0.6087614290087161 -0.7933533402912386 0.0
  outer loop
    vertex -28.707106781186543 -2.2928932188134543 0.0
    vertex -28.499999999999993 -2.133974596215563 3.9999999999999996
    vertex -28.707106781186543 -2.2928932188134543 3.9999999999999996
  endloop
endfacet
facet normal -0.13052619222005077 0.9914448613738106 0.0
  outer loop
    vertex -27.999999999999993 -3.9999999999999982 3.9999999999999996
    vertex -27.74118095489747 -3.9659258262890664 0.0
    vertex -27.999999999999993 -3.9999999999999982 0.0
  endloop
endfacet
facet normal -0.13052619222005077 0.9914448613738106 0.0
  outer loop
    vertex -27.74118095489747 -3.9659258262890664 0.0
    vertex -27.999999999999993 -3.9999999999999982 3.9999999999999996
    vertex -27.74118095489747 -3.9659258262890664 3.9999999999999996
  endloop
endfacet
facet normal -0.6087614290087249 0.7933533402912321 0.0
  outer loop
    vertex -27.499999999999996 -3.866025403784437 3.9999999999999996
    vertex -27.29289321881345 -3.7071067811865466 0.0
    vertex -27.499999999999996 -3.866025403784437 0.0
  endloop
endfacet
facet normal -0.6087614290087249 0.7933533402912321 0.0
  outer loop
    vertex -27.29289321881345 -3.7071067811865466 0.0
    vertex -27.499999999999996 -3.866025403784437 3.9999999999999996
    vertex -27.29289321881345 -3.7071067811865466 3.9999999999999996
  endloop
endfacet
facet normal -0.38268343236509283 0.9238795325112855 0.0
  outer loop
    vertex -27.74118095489747 -3.9659258262890664 3.9999999999999996
    vertex -27.499999999999996 -3.866025403784437 0.0
    vertex -27.74118095489747 -3.9659258262890664 0.0
  endloop
endfacet
facet normal -0.38268343236509283 0.9238795325112855 0.0
  outer loop
    vertex -27.499999999999996 -3.866025403784437 0.0
    vertex -27.74118095489747 -3.9659258262890664 3.9999999999999996
    vertex -27.499999999999996 -3.866025403784437 3.9999999999999996
  endloop
endfacet
facet normal -0.92387953251129 0.38268343236508207 0.0
  outer loop
    vertex -27.034074173710927 -3.2588190451025203 3.9999999999999996
    vertex -27.133974596215555 -3.499999999999999 0.0
    vertex -27.133974596215555 -3.499999999999999 3.9999999999999996
  endloop
endfacet
facet normal -0.92387953251129 0.38268343236508207 0.0
  outer loop
    vertex -27.133974596215555 -3.499999999999999 0.0
    vertex -27.034074173710927 -3.2588190451025203 3.9999999999999996
    vertex -27.034074173710927 -3.2588190451025203 0.0
  endloop
endfacet
facet normal -0.7933533402912268 0.6087614290087315 0.0
  outer loop
    vertex -27.133974596215555 -3.499999999999999 3.9999999999999996
    vertex -27.29289321881345 -3.7071067811865466 0.0
    vertex -27.29289321881345 -3.7071067811865466 3.9999999999999996
  endloop
endfacet
facet normal -0.7933533402912268 0.6087614290087315 0.0
  outer loop
    vertex -27.29289321881345 -3.7071067811865466 0.0
    vertex -27.133974596215555 -3.499999999999999 3.9999999999999996
    vertex -27.133974596215555 -3.499999999999999 0.0
  endloop
endfacet
facet normal 0.7933533402912488 -0.6087614290087031 0.0
  outer loop
    vertex 122.29289321881345 -2.292893218813454 0.0
    vertex 122.13397459621557 -2.5000000000000018 3.9999999999999996
    vertex 122.13397459621557 -2.5000000000000018 0.0
  endloop
endfacet
facet normal 0.7933533402912488 -0.6087614290087031 0.0
  outer loop
    vertex 122.13397459621557 -2.5000000000000018 3.9999999999999996
    vertex 122.29289321881345 -2.292893218813454 0.0
    vertex 122.29289321881345 -2.292893218813454 3.9999999999999996
  endloop
endfacet
facet normal 0.9914448613738076 0.13052619222007286 0.0
  outer loop
    vertex 122.0 -3.0000000000000013 0.0
    vertex 122.03407417371093 -3.258819045102522 3.9999999999999996
    vertex 122.03407417371093 -3.258819045102522 0.0
  endloop
endfacet
facet normal 0.9914448613738076 0.13052619222007286 0.0
  outer loop
    vertex 122.03407417371093 -3.258819045102522 3.9999999999999996
    vertex 122.0 -3.0000000000000013 0.0
    vertex 122.0 -3.0000000000000013 3.9999999999999996
  endloop
endfacet
facet normal 0.92387953251129 0.38268343236508207 0.0
  outer loop
    vertex 122.03407417371093 -3.258819045102522 0.0
    vertex 122.13397459621557 -3.5000000000000013 3.9999999999999996
    vertex 122.13397459621557 -3.5000000000000013 0.0
  endloop
endfacet
facet normal 0.92387953251129 0.38268343236508207 0.0
  outer loop
    vertex 122.13397459621557 -3.5000000000000013 3.9999999999999996
    vertex 122.03407417371093 -3.258819045102522 0.0
    vertex 122.03407417371093 -3.258819045102522 3.9999999999999996
  endloop
endfacet
facet normal 0.38268343236507985 0.923879532511291 0.0
  outer loop
    vertex 122.5 -3.8660254037844393 3.9999999999999996
    vertex 122.74118095489749 -3.9659258262890695 0.0
    vertex 122.5 -3.8660254037844393 0.0
  endloop
endfacet
facet normal 0.38268343236507985 0.923879532511291 0.0
  outer loop
    vertex 122.74118095489749 -3.9659258262890695 0.0
    vertex 122.5 -3.8660254037844393 3.9999999999999996
    vertex 122.74118095489749 -3.9659258262890695 3.9999999999999996
  endloop
endfacet
facet normal 0.9238795325112898 -0.3826834323650826 0.0
  outer loop
    vertex 122.13397459621557 -2.5000000000000018 0.0
    vertex 122.03407417371093 -2.7411809548974806 3.9999999999999996
    vertex 122.03407417371093 -2.7411809548974806 0.0
  endloop
endfacet
facet normal 0.9238795325112898 -0.3826834323650826 0.0
  outer loop
    vertex 122.03407417371093 -2.7411809548974806 3.9999999999999996
    vertex 122.13397459621557 -2.5000000000000018 0.0
    vertex 122.13397459621557 -2.5000000000000018 3.9999999999999996
  endloop
endfacet
facet normal 0.7933533402912477 0.6087614290087043 0.0
  outer loop
    vertex 122.13397459621557 -3.5000000000000013 0.0
    vertex 122.29289321881345 -3.707106781186549 3.9999999999999996
    vertex 122.29289321881345 -3.707106781186549 0.0
  endloop
endfacet
facet normal 0.7933533402912477 0.6087614290087043 0.0
  outer loop
    vertex 122.29289321881345 -3.707106781186549 3.9999999999999996
    vertex 122.13397459621557 -3.5000000000000013 0.0
    vertex 122.13397459621557 -3.5000000000000013 3.9999999999999996
  endloop
endfacet
facet normal -0.13052619222005635 0.9914448613738099 0.0
  outer loop
    vertex 123.0 -4.0 3.9999999999999996
    vertex 123.25881904510251 -3.9659258262890686 0.0
    vertex 123.0 -4.0 0.0
  endloop
endfacet
facet normal -0.13052619222005635 0.9914448613738099 0.0
  outer loop
    vertex 123.25881904510251 -3.9659258262890686 0.0
    vertex 123.0 -4.0 3.9999999999999996
    vertex 123.25881904510251 -3.9659258262890686 3.9999999999999996
  endloop
endfacet
facet normal -0.38268343236507757 0.9238795325112918 0.0
  outer loop
    vertex 123.25881904510251 -3.9659258262890686 3.9999999999999996
    vertex 123.5 -3.8660254037844393 0.0
    vertex 123.25881904510251 -3.9659258262890686 0.0
  endloop
endfacet
facet normal -0.38268343236507757 0.9238795325112918 0.0
  outer loop
    vertex 123.5 -3.8660254037844393 0.0
    vertex 123.25881904510251 -3.9659258262890686 3.9999999999999996
    vertex 123.5 -3.8660254037844393 3.9999999999999996
  endloop
endfacet
facet normal 0.3826834323650787 -0.9238795325112913 0.0
  outer loop
    vertex 122.74118095489749 -2.034074173710933 3.9999999999999996
    vertex 122.5 -2.1339745962155625 0.0
    vertex 122.74118095489749 -2.034074173710933 0.0
  endloop
endfacet
facet normal 0.3826834323650787 -0.9238795325112913 0.0
  outer loop
    vertex 122.5 -2.1339745962155625 0.0
    vertex 122.74118095489749 -2.034074173710933 3.9999999999999996
    vertex 122.5 -2.1339745962155625 3.9999999999999996
  endloop
endfacet
facet normal -0.6087614290087161 0.7933533402912386 0.0
  outer loop
    vertex 123.5 -3.8660254037844393 3.9999999999999996
    vertex 123.70710678118655 -3.707106781186548 0.0
    vertex 123.5 -3.8660254037844393 0.0
  endloop
endfacet
facet normal -0.6087614290087161 0.7933533402912386 0.0
  outer loop
    vertex 123.70710678118655 -3.707106781186548 0.0
    vertex 123.5 -3.8660254037844393 3.9999999999999996
    vertex 123.70710678118655 -3.707106781186548 3.9999999999999996
  endloop
endfacet
facet normal -0.92387953251129 0.38268343236508207 0.0
  outer loop
    vertex 123.96592582628907 -3.2588190451025216 3.9999999999999996
    vertex 123.86602540378443 -3.5000000000000004 0.0
    vertex 123.86602540378443 -3.5000000000000004 3.9999999999999996
  endloop
endfacet
facet normal -0.92387953251129 0.38268343236508207 0.0
  outer loop
    vertex 123.86602540378443 -3.5000000000000004 0.0
    vertex 123.96592582628907 -3.2588190451025216 3.9999999999999996
    vertex 123.96592582628907 -3.2588190451025216 0.0
  endloop
endfacet
facet normal -0.9914448613738077 0.13052619222007306 0.0
  outer loop
    vertex 124.0 -3.000000000000001 3.9999999999999996
    vertex 123.96592582628907 -3.2588190451025216 0.0
    vertex 123.96592582628907 -3.2588190451025216 3.9999999999999996
  endloop
endfacet
facet normal -0.9914448613738077 0.13052619222007306 0.0
  outer loop
    vertex 123.96592582628907 -3.2588190451025216 0.0
    vertex 124.0 -3.000000000000001 3.9999999999999996
    vertex 124.0 -3.000000000000001 0.0
  endloop
endfacet
facet normal -0.9914448613738076 -0.13052619222007286 -0.0
  outer loop
    vertex 123.96592582628907 -2.7411809548974797 3.9999999999999996
    vertex 124.0 -3.000000000000001 0.0
    vertex 124.0 -3.000000000000001 3.9999999999999996
  endloop
endfacet
facet normal -0.9914448613738076 -0.13052619222007286 -0.0
  outer loop
    vertex 124.0 -3.000000000000001 0.0
    vertex 123.96592582628907 -2.7411809548974797 3.9999999999999996
    vertex 123.96592582628907 -2.7411809548974797 0.0
  endloop
endfacet
facet normal -0.9238795325112898 -0.3826834323650826 -0.0
  outer loop
    vertex 123.86602540378443 -2.500000000000001 3.9999999999999996
    vertex 123.96592582628907 -2.7411809548974797 0.0
    vertex 123.96592582628907 -2.7411809548974797 3.9999999999999996
  endloop
endfacet
facet normal -0.9238795325112898 -0.3826834323650826 -0.0
  outer loop
    vertex 123.96592582628907 -2.7411809548974797 0.0
    vertex 123.86602540378443 -2.500000000000001 3.9999999999999996
    vertex 123.86602540378443 -2.500000000000001 0.0
  endloop
endfacet
facet normal -0.7933533402912482 -0.6087614290087037 -0.0
  outer loop
    vertex 123.70710678118655 -2.2928932188134534 3.9999999999999996
    vertex 123.86602540378443 -2.500000000000001 0.0
    vertex 123.86602540378443 -2.500000000000001 3.9999999999999996
  endloop
endfacet
facet normal -0.7933533402912482 -0.6087614290087037 -0.0
  outer loop
    vertex 123.86602540378443 -2.500000000000001 0.0
    vertex 123.70710678118655 -2.2928932188134534 3.9999999999999996
    vertex 123.70710678118655 -2.2928932188134534 0.0
  endloop
endfacet
facet normal 0.6087614290087143 0.7933533402912399 0.0
  outer loop
    vertex 122.29289321881345 -3.707106781186549 3.9999999999999996
    vertex 122.5 -3.8660254037844393 0.0
    vertex 122.29289321881345 -3.707106781186549 0.0
  endloop
endfacet
facet normal 0.6087614290087143 0.7933533402912399 0.0
  outer loop
    vertex 122.5 -3.8660254037844393 0.0
    vertex 122.29289321881345 -3.707106781186549 3.9999999999999996
    vertex 122.5 -3.8660254037844393 3.9999999999999996
  endloop
endfacet
facet normal 0.6087614290087153 -0.7933533402912394 0.0
  outer loop
    vertex 122.5 -2.1339745962155625 3.9999999999999996
    vertex 122.29289321881345 -2.292893218813454 0.0
    vertex 122.5 -2.1339745962155625 0.0
  endloop
endfacet
facet normal 0.6087614290087153 -0.7933533402912394 0.0
  outer loop
    vertex 122.29289321881345 -2.292893218813454 0.0
    vertex 122.5 -2.1339745962155625 3.9999999999999996
    vertex 122.29289321881345 -2.292893218813454 3.9999999999999996
  endloop
endfacet
facet normal 0.13052619222005368 0.9914448613738103 0.0
  outer loop
    vertex 122.74118095489749 -3.9659258262890695 3.9999999999999996
    vertex 123.0 -4.0 0.0
    vertex 122.74118095489749 -3.9659258262890695 0.0
  endloop
endfacet
facet normal 0.13052619222005368 0.9914448613738103 0.0
  outer loop
    vertex 123.0 -4.0 0.0
    vertex 122.74118095489749 -3.9659258262890695 3.9999999999999996
    vertex 123.0 -4.0 3.9999999999999996
  endloop
endfacet
facet normal -0.7933533402912477 0.6087614290087043 0.0
  outer loop
    vertex 123.86602540378443 -3.5000000000000004 3.9999999999999996
    vertex 123.70710678118655 -3.707106781186548 0.0
    vertex 123.70710678118655 -3.707106781186548 3.9999999999999996
  endloop
endfacet
facet normal -0.7933533402912477 0.6087614290087043 0.0
  outer loop
    vertex 123.70710678118655 -3.707106781186548 0.0
    vertex 123.86602540378443 -3.5000000000000004 3.9999999999999996
    vertex 123.86602540378443 -3.5000000000000004 0.0
  endloop
endfacet
facet normal 0.9914448613738077 -0.13052619222007306 0.0
  outer loop
    vertex 122.03407417371093 -2.7411809548974806 0.0
    vertex 122.0 -3.0000000000000013 3.9999999999999996
    vertex 122.0 -3.0000000000000013 0.0
  endloop
endfacet
facet normal 0.9914448613738077 -0.13052619222007306 0.0
  outer loop
    vertex 122.0 -3.0000000000000013 3.9999999999999996
    vertex 122.03407417371093 -2.7411809548974806 0.0
    vertex 122.03407417371093 -2.7411809548974806 3.9999999999999996
  endloop
endfacet
facet normal 0.13052619222005635 -0.9914448613738099 0.0
  outer loop
    vertex 123.0 -2.0000000000000013 3.9999999999999996
    vertex 122.74118095489749 -2.034074173710933 0.0
    vertex 123.0 -2.0000000000000013 0.0
  endloop
endfacet
facet normal 0.13052619222005635 -0.9914448613738099 0.0
  outer loop
    vertex 122.74118095489749 -2.034074173710933 0.0
    vertex 123.0 -2.0000000000000013 3.9999999999999996
    vertex 122.74118095489749 -2.034074173710933 3.9999999999999996
  endloop
endfacet
facet normal -0.38268343236507757 -0.9238795325112918 -0.0
  outer loop
    vertex 123.5 -2.1339745962155625 3.9999999999999996
    vertex 123.25881904510251 -2.034074173710933 0.0
    vertex 123.5 -2.1339745962155625 0.0
  endloop
endfacet
facet normal -0.38268343236507757 -0.9238795325112918 -0.0
  outer loop
    vertex 123.25881904510251 -2.034074173710933 0.0
    vertex 123.5 -2.1339745962155625 3.9999999999999996
    vertex 123.25881904510251 -2.034074173710933 3.9999999999999996
  endloop
endfacet
facet normal -0.13052619222005635 -0.9914448613738099 -0.0
  outer loop
    vertex 123.25881904510251 -2.034074173710933 3.9999999999999996
    vertex 123.0 -2.0000000000000013 0.0
    vertex 123.25881904510251 -2.034074173710933 0.0
  endloop
endfacet
facet normal -0.13052619222005635 -0.9914448613738099 -0.0
  outer loop
    vertex 123.0 -2.0000000000000013 0.0
    vertex 123.25881904510251 -2.034074173710933 3.9999999999999996
    vertex 123.0 -2.0000000000000013 3.9999999999999996
  endloop
endfacet
facet normal -0.6087614290087153 -0.7933533402912394 -0.0
  outer loop
    vertex 123.70710678118655 -2.2928932188134534 3.9999999999999996
    vertex 123.5 -2.1339745962155625 0.0
    vertex 123.70710678118655 -2.2928932188134534 0.0
  endloop
endfacet
facet normal -0.6087614290087153 -0.7933533402912394 -0.0
  outer loop
    vertex 123.5 -2.1339745962155625 0.0
    vertex 123.70710678118655 -2.2928932188134534 3.9999999999999996
    vertex 123.5 -2.1339745962155625 3.9999999999999996
  endloop
endfacet
endsolid Lid-ESP32-ULN-00
