solid Bracing for E-oled lid
facet normal 0.0 -1.0 0.0
  outer loop
    vertex 90.367754421288 19.138910796422522 3.9999999999999774
    vertex 0.36775442128799635 19.138910796422522 -2.255973186038318e-14
    vertex 90.367754421288 19.138910796422522 -2.255973186038318e-14
  endloop
endfacet
facet normal 0.0 -1.0 0.0
  outer loop
    vertex 0.36775442128799635 19.138910796422522 -2.255973186038318e-14
    vertex 90.367754421288 19.138910796422522 3.9999999999999774
    vertex 0.36775442128799635 19.138910796422522 3.9999999999999774
  endloop
endfacet
facet normal 0.0 0.0 -1.0
  outer loop
    vertex 90.367754421288 23.138910796422522 -2.255973186038318e-14
    vertex 0.36775442128799635 19.138910796422522 -2.255973186038318e-14
    vertex 0.36775442128799635 23.138910796422522 -2.255973186038318e-14
  endloop
endfacet
facet normal 0.0 0.0 -1.0
  outer loop
    vertex 0.36775442128799635 19.138910796422522 -2.255973186038318e-14
    vertex 90.367754421288 23.138910796422522 -2.255973186038318e-14
    vertex 90.367754421288 19.138910796422522 -2.255973186038318e-14
  endloop
endfacet
facet normal 1.0 0.0 0.0
  outer loop
    vertex 89.72751149214761 33.07871023349925 0.0
    vertex 89.72751149214761 29.07871023349926 3.999999999999997
    vertex 89.72751149214761 29.07871023349926 0.0
  endloop
endfacet
facet normal 1.0 0.0 0.0
  outer loop
    vertex 89.72751149214761 29.07871023349926 3.999999999999997
    vertex 89.72751149214761 33.07871023349925 0.0
    vertex 89.72751149214761 33.07871023349925 3.999999999999997
  endloop
endfacet
facet normal 0.0 -1.0 0.0
  outer loop
    vertex 89.72751149214761 29.07871023349926 3.999999999999997
    vertex -0.272488507852386 29.07871023349926 0.0
    vertex 89.72751149214761 29.07871023349926 0.0
  endloop
endfacet
facet normal 0.0 -1.0 0.0
  outer loop
    vertex -0.272488507852386 29.07871023349926 0.0
    vertex 89.72751149214761 29.07871023349926 3.999999999999997
    vertex -0.272488507852386 29.07871023349926 3.999999999999997
  endloop
endfacet
facet normal 0.0 0.0 1.0
  outer loop
    vertex 89.72751149214761 29.07871023349926 3.999999999999997
    vertex -0.272488507852386 33.07871023349925 3.999999999999997
    vertex -0.272488507852386 29.07871023349926 3.999999999999997
  endloop
endfacet
facet normal 0.0 0.0 1.0
  outer loop
    vertex -0.272488507852386 33.07871023349925 3.999999999999997
    vertex 89.72751149214761 29.07871023349926 3.999999999999997
    vertex 89.72751149214761 33.07871023349925 3.999999999999997
  endloop
endfacet
facet normal 0.0 0.0 1.0
  outer loop
    vertex 90.367754421288 19.138910796422522 3.9999999999999774
    vertex 0.36775442128799635 23.138910796422522 3.9999999999999774
    vertex 0.36775442128799635 19.138910796422522 3.9999999999999774
  endloop
endfacet
facet normal 0.0 0.0 1.0
  outer loop
    vertex 0.36775442128799635 23.138910796422522 3.9999999999999774
    vertex 90.367754421288 19.138910796422522 3.9999999999999774
    vertex 90.367754421288 23.138910796422522 3.9999999999999774
  endloop
endfacet
facet normal 1.0 0.0 0.0
  outer loop
    vertex 90.367754421288 23.138910796422522 -2.255973186038318e-14
    vertex 90.367754421288 19.138910796422522 3.9999999999999774
    vertex 90.367754421288 19.138910796422522 -2.255973186038318e-14
  endloop
endfacet
facet normal 1.0 0.0 0.0
  outer loop
    vertex 90.367754421288 19.138910796422522 3.9999999999999774
    vertex 90.367754421288 23.138910796422522 -2.255973186038318e-14
    vertex 90.367754421288 23.138910796422522 3.9999999999999774
  endloop
endfacet
facet normal 0.0 1.0 0.0
  outer loop
    vertex -0.272488507852386 33.07871023349925 3.999999999999997
    vertex 89.72751149214761 33.07871023349925 0.0
    vertex -0.272488507852386 33.07871023349925 0.0
  endloop
endfacet
facet normal 0.0 1.0 0.0
  outer loop
    vertex 89.72751149214761 33.07871023349925 0.0
    vertex -0.272488507852386 33.07871023349925 3.999999999999997
    vertex 89.72751149214761 33.07871023349925 3.999999999999997
  endloop
endfacet
facet normal 0.0 0.0 -1.0
  outer loop
    vertex 89.72751149214761 33.07871023349925 0.0
    vertex -0.272488507852386 29.07871023349926 0.0
    vertex -0.272488507852386 33.07871023349925 0.0
  endloop
endfacet
facet normal 0.0 0.0 -1.0
  outer loop
    vertex -0.272488507852386 29.07871023349926 0.0
    vertex 89.72751149214761 33.07871023349925 0.0
    vertex 89.72751149214761 29.07871023349926 0.0
  endloop
endfacet
facet normal 0.0 1.0 0.0
  outer loop
    vertex 0.0 3.9999999999999996 3.9999999999999996
    vertex 90.0 3.9999999999999996 0.0
    vertex 0.0 3.9999999999999996 0.0
  endloop
endfacet
facet normal 0.0 1.0 0.0
  outer loop
    vertex 90.0 3.9999999999999996 0.0
    vertex 0.0 3.9999999999999996 3.9999999999999996
    vertex 90.0 3.9999999999999996 3.9999999999999996
  endloop
endfacet
facet normal 0.0 1.0 0.0
  outer loop
    vertex -0.04846688452886809 13.629025171303551 3.9999999999999996
    vertex 89.95153311547114 13.629025171303551 0.0
    vertex -0.04846688452886809 13.629025171303551 0.0
  endloop
endfacet
facet normal 0.0 1.0 0.0
  outer loop
    vertex 89.95153311547114 13.629025171303551 0.0
    vertex -0.04846688452886809 13.629025171303551 3.9999999999999996
    vertex 89.95153311547114 13.629025171303551 3.9999999999999996
  endloop
endfacet
facet normal -0.0 -1.0 -0.0
  outer loop
    vertex 90.0 0.0 3.9999999999999996
    vertex 0.0 0.0 0.0
    vertex 90.0 0.0 0.0
  endloop
endfacet
facet normal -0.0 -1.0 -0.0
  outer loop
    vertex 0.0 0.0 0.0
    vertex 90.0 0.0 3.9999999999999996
    vertex 0.0 0.0 3.9999999999999996
  endloop
endfacet
facet normal 1.0 0.0 0.0
  outer loop
    vertex 89.95153311547114 13.629025171303551 0.0
    vertex 89.95153311547114 9.629025171303553 3.9999999999999996
    vertex 89.95153311547114 9.629025171303553 0.0
  endloop
endfacet
facet normal 1.0 0.0 0.0
  outer loop
    vertex 89.95153311547114 9.629025171303553 3.9999999999999996
    vertex 89.95153311547114 13.629025171303551 0.0
    vertex 89.95153311547114 13.629025171303551 3.9999999999999996
  endloop
endfacet
facet normal -1.0 0.0 0.0
  outer loop
    vertex 0.0 3.9999999999999996 3.9999999999999996
    vertex 0.0 0.0 0.0
    vertex 0.0 0.0 3.9999999999999996
  endloop
endfacet
facet normal -1.0 0.0 0.0
  outer loop
    vertex 0.0 0.0 0.0
    vertex 0.0 3.9999999999999996 3.9999999999999996
    vertex 0.0 3.9999999999999996 0.0
  endloop
endfacet
facet normal 0.0 0.0 -1.0
  outer loop
    vertex 89.95153311547114 13.629025171303551 0.0
    vertex -0.04846688452886809 9.629025171303553 0.0
    vertex -0.04846688452886809 13.629025171303551 0.0
  endloop
endfacet
facet normal 0.0 0.0 -1.0
  outer loop
    vertex -0.04846688452886809 9.629025171303553 0.0
    vertex 89.95153311547114 13.629025171303551 0.0
    vertex 89.95153311547114 9.629025171303553 0.0
  endloop
endfacet
facet normal 0.0 -1.0 0.0
  outer loop
    vertex 89.95153311547114 9.629025171303553 3.9999999999999996
    vertex -0.04846688452886809 9.629025171303553 0.0
    vertex 89.95153311547114 9.629025171303553 0.0
  endloop
endfacet
facet normal 0.0 -1.0 0.0
  outer loop
    vertex -0.04846688452886809 9.629025171303553 0.0
    vertex 89.95153311547114 9.629025171303553 3.9999999999999996
    vertex -0.04846688452886809 9.629025171303553 3.9999999999999996
  endloop
endfacet
facet normal 0.0 0.0 1.0
  outer loop
    vertex 89.95153311547114 9.629025171303553 3.9999999999999996
    vertex -0.04846688452886809 13.629025171303551 3.9999999999999996
    vertex -0.04846688452886809 9.629025171303553 3.9999999999999996
  endloop
endfacet
facet normal 0.0 0.0 1.0
  outer loop
    vertex -0.04846688452886809 13.629025171303551 3.9999999999999996
    vertex 89.95153311547114 9.629025171303553 3.9999999999999996
    vertex 89.95153311547114 13.629025171303551 3.9999999999999996
  endloop
endfacet
facet normal 1.0 0.0 0.0
  outer loop
    vertex 90.0 3.9999999999999996 0.0
    vertex 90.0 0.0 3.9999999999999996
    vertex 90.0 0.0 0.0
  endloop
endfacet
facet normal 1.0 0.0 0.0
  outer loop
    vertex 90.0 0.0 3.9999999999999996
    vertex 90.0 3.9999999999999996 0.0
    vertex 90.0 3.9999999999999996 3.9999999999999996
  endloop
endfacet
facet normal -1.0 0.0 0.0
  outer loop
    vertex -0.272488507852386 33.07871023349925 3.999999999999997
    vertex -0.272488507852386 29.07871023349926 0.0
    vertex -0.272488507852386 29.07871023349926 3.999999999999997
  endloop
endfacet
facet normal -1.0 0.0 0.0
  outer loop
    vertex -0.272488507852386 29.07871023349926 0.0
    vertex -0.272488507852386 33.07871023349925 3.999999999999997
    vertex -0.272488507852386 33.07871023349925 0.0
  endloop
endfacet
facet normal 0.0 0.0 -1.0
  outer loop
    vertex 90.0 3.9999999999999996 0.0
    vertex 0.0 0.0 0.0
    vertex 0.0 3.9999999999999996 0.0
  endloop
endfacet
facet normal 0.0 0.0 -1.0
  outer loop
    vertex 0.0 0.0 0.0
    vertex 90.0 3.9999999999999996 0.0
    vertex 90.0 0.0 0.0
  endloop
endfacet
facet normal -1.0 0.0 0.0
  outer loop
    vertex -0.04846688452886809 13.629025171303551 3.9999999999999996
    vertex -0.04846688452886809 9.629025171303553 0.0
    vertex -0.04846688452886809 9.629025171303553 3.9999999999999996
  endloop
endfacet
facet normal -1.0 0.0 0.0
  outer loop
    vertex -0.04846688452886809 9.629025171303553 0.0
    vertex -0.04846688452886809 13.629025171303551 3.9999999999999996
    vertex -0.04846688452886809 13.629025171303551 0.0
  endloop
endfacet
facet normal 0.0 1.0 0.0
  outer loop
    vertex 0.36775442128799635 23.138910796422522 3.9999999999999774
    vertex 90.367754421288 23.138910796422522 -2.255973186038318e-14
    vertex 0.36775442128799635 23.138910796422522 -2.255973186038318e-14
  endloop
endfacet
facet normal 0.0 1.0 0.0
  outer loop
    vertex 90.367754421288 23.138910796422522 -2.255973186038318e-14
    vertex 0.36775442128799635 23.138910796422522 3.9999999999999774
    vertex 90.367754421288 23.138910796422522 3.9999999999999774
  endloop
endfacet
facet normal 0.0 0.0 1.0
  outer loop
    vertex 90.0 0.0 3.9999999999999996
    vertex 0.0 3.9999999999999996 3.9999999999999996
    vertex 0.0 0.0 3.9999999999999996
  endloop
endfacet
facet normal 0.0 0.0 1.0
  outer loop
    vertex 0.0 3.9999999999999996 3.9999999999999996
    vertex 90.0 0.0 3.9999999999999996
    vertex 90.0 3.9999999999999996 3.9999999999999996
  endloop
endfacet
facet normal -1.0 0.0 0.0
  outer loop
    vertex 0.36775442128799635 23.138910796422522 3.9999999999999774
    vertex 0.36775442128799635 19.138910796422522 -2.255973186038318e-14
    vertex 0.36775442128799635 19.138910796422522 3.9999999999999774
  endloop
endfacet
facet normal -1.0 0.0 0.0
  outer loop
    vertex 0.36775442128799635 19.138910796422522 -2.255973186038318e-14
    vertex 0.36775442128799635 23.138910796422522 3.9999999999999774
    vertex 0.36775442128799635 23.138910796422522 -2.255973186038318e-14
  endloop
endfacet
endsolid Bracing for E-oled lid
