solid Lid-ESP32-DRV-00
facet normal 0.0 0.0 -1.0
  outer loop
    vertex 0.0 62.0 0.0
    vertex 0.9999999999999996 60.0 0.0
    vertex 0.0 -4.999999999999999 0.0
  endloop
endfacet
facet normal 0.0 0.0 -1.0
  outer loop
    vertex 0.9999999999999996 60.0 0.0
    vertex 0.0 62.0 0.0
    vertex 1.0340741737109311 60.25881904510253 0.0
  endloop
endfacet
facet normal 0.0 0.0 -1.0
  outer loop
    vertex 1.0340741737109311 60.25881904510253 0.0
    vertex 0.0 62.0 0.0
    vertex 1.1339745962155603 60.5 0.0
  endloop
endfacet
facet normal 0.0 0.0 -1.0
  outer loop
    vertex 1.1339745962155603 60.5 0.0
    vertex 0.0 62.0 0.0
    vertex 1.2928932188134512 60.70710678118655 0.0
  endloop
endfacet
facet normal 0.0 0.0 -1.0
  outer loop
    vertex 1.2928932188134512 60.70710678118655 0.0
    vertex 0.0 62.0 0.0
    vertex 1.499999999999998 60.866025403784434 0.0
  endloop
endfacet
facet normal 0.0 0.0 -1.0
  outer loop
    vertex 1.499999999999998 60.866025403784434 0.0
    vertex 0.0 62.0 0.0
    vertex 1.7411809548974768 60.965925826289066 0.0
  endloop
endfacet
facet normal 0.0 0.0 -1.0
  outer loop
    vertex 1.7411809548974768 60.965925826289066 0.0
    vertex 0.0 62.0 0.0
    vertex 1.9999999999999967 61.0 0.0
  endloop
endfacet
facet normal 0.0 0.0 -1.0
  outer loop
    vertex 1.9999999999999967 61.0 0.0
    vertex 0.0 62.0 0.0
    vertex 125.0 62.0 0.0
  endloop
endfacet
facet normal 0.0 0.0 -1.0
  outer loop
    vertex 1.9999999999999967 61.0 0.0
    vertex 125.0 62.0 0.0
    vertex 2.258819045102517 60.96592582628907 0.0
  endloop
endfacet
facet normal 0.0 0.0 -1.0
  outer loop
    vertex 2.258819045102517 60.96592582628907 0.0
    vertex 125.0 62.0 0.0
    vertex 2.499999999999996 60.866025403784434 0.0
  endloop
endfacet
facet normal 0.0 0.0 -1.0
  outer loop
    vertex 2.499999999999996 60.866025403784434 0.0
    vertex 125.0 62.0 0.0
    vertex 2.7071067811865435 60.70710678118655 0.0
  endloop
endfacet
facet normal 0.0 0.0 -1.0
  outer loop
    vertex 2.7071067811865435 60.70710678118655 0.0
    vertex 125.0 62.0 0.0
    vertex 2.866025403784434 60.5 0.0
  endloop
endfacet
facet normal 0.0 0.0 -1.0
  outer loop
    vertex 2.866025403784434 60.5 0.0
    vertex 125.0 62.0 0.0
    vertex 2.965925826289064 60.25881904510253 0.0
  endloop
endfacet
facet normal 0.0 0.0 -1.0
  outer loop
    vertex 2.965925826289064 60.25881904510253 0.0
    vertex 125.0 62.0 0.0
    vertex 2.999999999999996 60.0 0.0
  endloop
endfacet
facet normal 0.0 0.0 -1.0
  outer loop
    vertex 2.999999999999996 60.0 0.0
    vertex 125.0 62.0 0.0
    vertex 122.5 60.866025403784434 0.0
  endloop
endfacet
facet normal 0.0 0.0 -1.0
  outer loop
    vertex 2.999999999999996 60.0 0.0
    vertex 122.5 60.866025403784434 0.0
    vertex 2.9999999999999996 -3.0 0.0
  endloop
endfacet
facet normal 0.0 0.0 -1.0
  outer loop
    vertex 2.9999999999999996 -3.0 0.0
    vertex 122.5 60.866025403784434 0.0
    vertex 122.29289321881345 60.70710678118655 0.0
  endloop
endfacet
facet normal 0.0 0.0 -1.0
  outer loop
    vertex 2.9999999999999996 -3.0 0.0
    vertex 122.29289321881345 60.70710678118655 0.0
    vertex 122.13397459621557 60.5 0.0
  endloop
endfacet
facet normal 0.0 0.0 -1.0
  outer loop
    vertex 2.9999999999999996 -3.0 0.0
    vertex 122.13397459621557 60.5 0.0
    vertex 122.03407417371093 60.25881904510253 0.0
  endloop
endfacet
facet normal 0.0 0.0 -1.0
  outer loop
    vertex 2.9999999999999996 -3.0 0.0
    vertex 122.03407417371093 60.25881904510253 0.0
    vertex 122.0 60.0 0.0
  endloop
endfacet
facet normal 0.0 0.0 -1.0
  outer loop
    vertex 122.5 60.866025403784434 0.0
    vertex 125.0 62.0 0.0
    vertex 122.74118095489749 60.96592582628907 0.0
  endloop
endfacet
facet normal 0.0 0.0 -1.0
  outer loop
    vertex 122.74118095489749 60.96592582628907 0.0
    vertex 125.0 62.0 0.0
    vertex 123.0 61.0 0.0
  endloop
endfacet
facet normal 0.0 0.0 -1.0
  outer loop
    vertex 123.0 61.0 0.0
    vertex 125.0 62.0 0.0
    vertex 123.25881904510251 60.965925826289066 0.0
  endloop
endfacet
facet normal 0.0 0.0 -1.0
  outer loop
    vertex 123.25881904510251 60.965925826289066 0.0
    vertex 125.0 62.0 0.0
    vertex 123.5 60.866025403784434 0.0
  endloop
endfacet
facet normal 0.0 0.0 -1.0
  outer loop
    vertex 123.5 60.866025403784434 0.0
    vertex 125.0 62.0 0.0
    vertex 123.70710678118655 60.70710678118655 0.0
  endloop
endfacet
facet normal 0.0 0.0 -1.0
  outer loop
    vertex 123.70710678118655 60.70710678118655 0.0
    vertex 125.0 62.0 0.0
    vertex 123.86602540378443 60.5 0.0
  endloop
endfacet
facet normal 0.0 0.0 -1.0
  outer loop
    vertex 123.86602540378443 60.5 0.0
    vertex 125.0 62.0 0.0
    vertex 123.96592582628907 60.25881904510253 0.0
  endloop
endfacet
facet normal 0.0 0.0 -1.0
  outer loop
    vertex 123.96592582628907 60.25881904510253 0.0
    vertex 125.0 62.0 0.0
    vertex 124.0 60.0 0.0
  endloop
endfacet
facet normal 0.0 0.0 -1.0
  outer loop
    vertex 124.0 60.0 0.0
    vertex 125.0 62.0 0.0
    vertex 124.0 -3.0 0.0
  endloop
endfacet
facet normal 0.0 0.0 -1.0
  outer loop
    vertex 0.0 -4.999999999999999 0.0
    vertex 1.9999999999999996 -3.9999999999999996 0.0
    vertex 125.0 -4.999999999999999 0.0
  endloop
endfacet
facet normal 0.0 0.0 -1.0
  outer loop
    vertex 1.9999999999999996 -3.9999999999999996 0.0
    vertex 0.0 -4.999999999999999 0.0
    vertex 1.7411809548974788 -3.9659258262890678 0.0
  endloop
endfacet
facet normal 0.0 0.0 -1.0
  outer loop
    vertex 1.7411809548974788 -3.9659258262890678 0.0
    vertex 0.0 -4.999999999999999 0.0
    vertex 1.5 -3.866025403784439 0.0
  endloop
endfacet
facet normal 0.0 0.0 -1.0
  outer loop
    vertex 1.5 -3.866025403784439 0.0
    vertex 0.0 -4.999999999999999 0.0
    vertex 1.292893218813452 -3.7071067811865475 0.0
  endloop
endfacet
facet normal 0.0 0.0 -1.0
  outer loop
    vertex 1.292893218813452 -3.7071067811865475 0.0
    vertex 0.0 -4.999999999999999 0.0
    vertex 1.1339745962155612 -3.5 0.0
  endloop
endfacet
facet normal 0.0 0.0 -1.0
  outer loop
    vertex 1.1339745962155612 -3.5 0.0
    vertex 0.0 -4.999999999999999 0.0
    vertex 1.0340741737109316 -3.2588190451025207 0.0
  endloop
endfacet
facet normal 0.0 0.0 -1.0
  outer loop
    vertex 1.0340741737109316 -3.2588190451025207 0.0
    vertex 0.0 -4.999999999999999 0.0
    vertex 0.9999999999999998 -3.0 0.0
  endloop
endfacet
facet normal 0.0 0.0 -1.0
  outer loop
    vertex 0.9999999999999998 -3.0 0.0
    vertex 0.0 -4.999999999999999 0.0
    vertex 0.9999999999999996 60.0 0.0
  endloop
endfacet
facet normal 0.0 0.0 -1.0
  outer loop
    vertex 125.0 -4.999999999999999 0.0
    vertex 1.9999999999999996 -3.9999999999999996 0.0
    vertex 2.2588190451025203 -3.9659258262890678 0.0
  endloop
endfacet
facet normal 0.0 0.0 -1.0
  outer loop
    vertex 125.0 -4.999999999999999 0.0
    vertex 2.2588190451025203 -3.9659258262890678 0.0
    vertex 2.4999999999999996 -3.866025403784438 0.0
  endloop
endfacet
facet normal 0.0 0.0 -1.0
  outer loop
    vertex 125.0 -4.999999999999999 0.0
    vertex 2.4999999999999996 -3.866025403784438 0.0
    vertex 2.707106781186547 -3.7071067811865475 0.0
  endloop
endfacet
facet normal 0.0 0.0 -1.0
  outer loop
    vertex 125.0 -4.999999999999999 0.0
    vertex 2.707106781186547 -3.7071067811865475 0.0
    vertex 2.866025403784438 -3.5 0.0
  endloop
endfacet
facet normal 0.0 0.0 -1.0
  outer loop
    vertex 125.0 -4.999999999999999 0.0
    vertex 2.866025403784438 -3.5 0.0
    vertex 2.9659258262890678 -3.2588190451025207 0.0
  endloop
endfacet
facet normal 0.0 0.0 -1.0
  outer loop
    vertex 125.0 -4.999999999999999 0.0
    vertex 2.9659258262890678 -3.2588190451025207 0.0
    vertex 2.9999999999999996 -3.0 0.0
  endloop
endfacet
facet normal 0.0 0.0 -1.0
  outer loop
    vertex 125.0 -4.999999999999999 0.0
    vertex 2.9999999999999996 -3.0 0.0
    vertex 122.5 -3.866025403784437 0.0
  endloop
endfacet
facet normal 0.0 0.0 -1.0
  outer loop
    vertex 122.5 -3.866025403784437 0.0
    vertex 2.9999999999999996 -3.0 0.0
    vertex 122.29289321881345 -3.7071067811865457 0.0
  endloop
endfacet
facet normal 0.0 0.0 -1.0
  outer loop
    vertex 122.29289321881345 -3.7071067811865457 0.0
    vertex 2.9999999999999996 -3.0 0.0
    vertex 122.13397459621557 -3.499999999999999 0.0
  endloop
endfacet
facet normal 0.0 0.0 -1.0
  outer loop
    vertex 122.13397459621557 -3.499999999999999 0.0
    vertex 2.9999999999999996 -3.0 0.0
    vertex 122.03407417371093 -3.2588190451025207 0.0
  endloop
endfacet
facet normal 0.0 0.0 -1.0
  outer loop
    vertex 122.03407417371093 -3.2588190451025207 0.0
    vertex 2.9999999999999996 -3.0 0.0
    vertex 122.0 -3.0 0.0
  endloop
endfacet
facet normal 0.0 0.0 -1.0
  outer loop
    vertex 122.0 -3.0 0.0
    vertex 2.9999999999999996 -3.0 0.0
    vertex 122.0 60.0 0.0
  endloop
endfacet
facet normal 0.0 0.0 -1.0
  outer loop
    vertex 125.0 -4.999999999999999 0.0
    vertex 122.5 -3.866025403784437 0.0
    vertex 122.74118095489749 -3.9659258262890664 0.0
  endloop
endfacet
facet normal 0.0 0.0 -1.0
  outer loop
    vertex 125.0 -4.999999999999999 0.0
    vertex 122.74118095489749 -3.9659258262890664 0.0
    vertex 123.0 -3.9999999999999982 0.0
  endloop
endfacet
facet normal 0.0 0.0 -1.0
  outer loop
    vertex 125.0 -4.999999999999999 0.0
    vertex 123.0 -3.9999999999999982 0.0
    vertex 123.25881904510251 -3.965925826289066 0.0
  endloop
endfacet
facet normal 0.0 0.0 -1.0
  outer loop
    vertex 125.0 -4.999999999999999 0.0
    vertex 123.25881904510251 -3.965925826289066 0.0
    vertex 123.5 -3.8660254037844366 0.0
  endloop
endfacet
facet normal 0.0 0.0 -1.0
  outer loop
    vertex 125.0 -4.999999999999999 0.0
    vertex 123.5 -3.8660254037844366 0.0
    vertex 123.70710678118655 -3.7071067811865457 0.0
  endloop
endfacet
facet normal 0.0 0.0 -1.0
  outer loop
    vertex 125.0 -4.999999999999999 0.0
    vertex 123.70710678118655 -3.7071067811865457 0.0
    vertex 123.86602540378443 -3.4999999999999987 0.0
  endloop
endfacet
facet normal 0.0 0.0 -1.0
  outer loop
    vertex 125.0 -4.999999999999999 0.0
    vertex 123.86602540378443 -3.4999999999999987 0.0
    vertex 123.96592582628907 -3.2588190451025194 0.0
  endloop
endfacet
facet normal 0.0 0.0 -1.0
  outer loop
    vertex 125.0 -4.999999999999999 0.0
    vertex 123.96592582628907 -3.2588190451025194 0.0
    vertex 124.0 -3.0 0.0
  endloop
endfacet
facet normal 0.0 0.0 -1.0
  outer loop
    vertex 125.0 -4.999999999999999 0.0
    vertex 124.0 -3.0 0.0
    vertex 125.0 62.0 0.0
  endloop
endfacet
facet normal 0.0 0.0 -1.0
  outer loop
    vertex 122.03407417371093 59.74118095489748 0.0
    vertex 122.0 -3.0 0.0
    vertex 122.0 60.0 0.0
  endloop
endfacet
facet normal 0.0 0.0 -1.0
  outer loop
    vertex 122.0 -3.0 0.0
    vertex 122.03407417371093 59.74118095489748 0.0
    vertex 122.03407417371093 -2.7411809548974797 0.0
  endloop
endfacet
facet normal 0.0 0.0 -1.0
  outer loop
    vertex 122.03407417371093 -2.7411809548974797 0.0
    vertex 122.03407417371093 59.74118095489748 0.0
    vertex 122.13397459621557 59.50000000000001 0.0
  endloop
endfacet
facet normal 0.0 0.0 -1.0
  outer loop
    vertex 122.03407417371093 -2.7411809548974797 0.0
    vertex 122.13397459621557 59.50000000000001 0.0
    vertex 122.13397459621557 -2.500000000000001 0.0
  endloop
endfacet
facet normal 0.0 0.0 -1.0
  outer loop
    vertex 122.13397459621557 -2.500000000000001 0.0
    vertex 122.13397459621557 59.50000000000001 0.0
    vertex 122.29289321881345 59.292893218813454 0.0
  endloop
endfacet
facet normal 0.0 0.0 -1.0
  outer loop
    vertex 122.13397459621557 -2.500000000000001 0.0
    vertex 122.29289321881345 59.292893218813454 0.0
    vertex 122.29289321881345 -2.292893218813454 0.0
  endloop
endfacet
facet normal 0.0 0.0 -1.0
  outer loop
    vertex 122.29289321881345 -2.292893218813454 0.0
    vertex 122.29289321881345 59.292893218813454 0.0
    vertex 122.5 59.133974596215566 0.0
  endloop
endfacet
facet normal 0.0 0.0 -1.0
  outer loop
    vertex 122.29289321881345 -2.292893218813454 0.0
    vertex 122.5 59.133974596215566 0.0
    vertex 122.5 -2.1339745962155625 0.0
  endloop
endfacet
facet normal 0.0 0.0 -1.0
  outer loop
    vertex 122.5 -2.1339745962155625 0.0
    vertex 122.5 59.133974596215566 0.0
    vertex 122.74118095489749 59.03407417371094 0.0
  endloop
endfacet
facet normal 0.0 0.0 -1.0
  outer loop
    vertex 122.5 -2.1339745962155625 0.0
    vertex 122.74118095489749 59.03407417371094 0.0
    vertex 122.74118095489749 -2.0340741737109336 0.0
  endloop
endfacet
facet normal 0.0 0.0 -1.0
  outer loop
    vertex 122.74118095489749 -2.0340741737109336 0.0
    vertex 122.74118095489749 59.03407417371094 0.0
    vertex 123.0 59.00000000000001 0.0
  endloop
endfacet
facet normal 0.0 0.0 -1.0
  outer loop
    vertex 122.74118095489749 -2.0340741737109336 0.0
    vertex 123.0 59.00000000000001 0.0
    vertex 123.0 -2.0000000000000018 0.0
  endloop
endfacet
facet normal 0.0 0.0 -1.0
  outer loop
    vertex 123.0 -2.0000000000000018 0.0
    vertex 123.0 59.00000000000001 0.0
    vertex 123.25881904510251 59.034074173710934 0.0
  endloop
endfacet
facet normal 0.0 0.0 -1.0
  outer loop
    vertex 123.0 -2.0000000000000018 0.0
    vertex 123.25881904510251 59.034074173710934 0.0
    vertex 123.25881904510251 -2.034074173710933 0.0
  endloop
endfacet
facet normal 0.0 0.0 -1.0
  outer loop
    vertex 123.25881904510251 -2.034074173710933 0.0
    vertex 123.25881904510251 59.034074173710934 0.0
    vertex 123.5 59.133974596215566 0.0
  endloop
endfacet
facet normal 0.0 0.0 -1.0
  outer loop
    vertex 123.25881904510251 -2.034074173710933 0.0
    vertex 123.5 59.133974596215566 0.0
    vertex 123.5 -2.1339745962155625 0.0
  endloop
endfacet
facet normal 0.0 0.0 -1.0
  outer loop
    vertex 123.5 -2.1339745962155625 0.0
    vertex 123.5 59.133974596215566 0.0
    vertex 123.70710678118655 59.292893218813454 0.0
  endloop
endfacet
facet normal 0.0 0.0 -1.0
  outer loop
    vertex 123.5 -2.1339745962155625 0.0
    vertex 123.70710678118655 59.292893218813454 0.0
    vertex 123.70710678118655 -2.292893218813454 0.0
  endloop
endfacet
facet normal 0.0 0.0 -1.0
  outer loop
    vertex 123.70710678118655 -2.292893218813454 0.0
    vertex 123.70710678118655 59.292893218813454 0.0
    vertex 123.86602540378443 59.50000000000001 0.0
  endloop
endfacet
facet normal 0.0 0.0 -1.0
  outer loop
    vertex 123.70710678118655 -2.292893218813454 0.0
    vertex 123.86602540378443 59.50000000000001 0.0
    vertex 123.86602540378443 -2.5000000000000004 0.0
  endloop
endfacet
facet normal 0.0 0.0 -1.0
  outer loop
    vertex 123.86602540378443 -2.5000000000000004 0.0
    vertex 123.86602540378443 59.50000000000001 0.0
    vertex 123.96592582628907 59.74118095489748 0.0
  endloop
endfacet
facet normal 0.0 0.0 -1.0
  outer loop
    vertex 123.86602540378443 -2.5000000000000004 0.0
    vertex 123.96592582628907 59.74118095489748 0.0
    vertex 123.96592582628907 -2.7411809548974793 0.0
  endloop
endfacet
facet normal 0.0 0.0 -1.0
  outer loop
    vertex 123.96592582628907 -2.7411809548974793 0.0
    vertex 123.96592582628907 59.74118095489748 0.0
    vertex 124.0 60.0 0.0
  endloop
endfacet
facet normal 0.0 0.0 -1.0
  outer loop
    vertex 123.96592582628907 -2.7411809548974793 0.0
    vertex 124.0 60.0 0.0
    vertex 124.0 -3.0 0.0
  endloop
endfacet
facet normal 0.0 0.0 -1.0
  outer loop
    vertex 1.0340741737109316 59.74118095489748 0.0
    vertex 0.9999999999999998 -3.0 0.0
    vertex 0.9999999999999996 60.0 0.0
  endloop
endfacet
facet normal 0.0 0.0 -1.0
  outer loop
    vertex 0.9999999999999998 -3.0 0.0
    vertex 1.0340741737109316 59.74118095489748 0.0
    vertex 1.0340741737109314 -2.7411809548974797 0.0
  endloop
endfacet
facet normal 0.0 0.0 -1.0
  outer loop
    vertex 1.0340741737109314 -2.7411809548974797 0.0
    vertex 1.0340741737109316 59.74118095489748 0.0
    vertex 1.133974596215561 -2.5 0.0
  endloop
endfacet
facet normal 0.0 0.0 -1.0
  outer loop
    vertex 1.133974596215561 -2.5 0.0
    vertex 1.0340741737109316 59.74118095489748 0.0
    vertex 1.133974596215561 59.50000000000001 0.0
  endloop
endfacet
facet normal 0.0 0.0 -1.0
  outer loop
    vertex 1.133974596215561 -2.5 0.0
    vertex 1.133974596215561 59.50000000000001 0.0
    vertex 1.2928932188134519 59.292893218813454 0.0
  endloop
endfacet
facet normal 0.0 0.0 -1.0
  outer loop
    vertex 1.133974596215561 -2.5 0.0
    vertex 1.2928932188134519 59.292893218813454 0.0
    vertex 1.2928932188134517 -2.2928932188134525 0.0
  endloop
endfacet
facet normal 0.0 0.0 -1.0
  outer loop
    vertex 1.2928932188134517 -2.2928932188134525 0.0
    vertex 1.2928932188134519 59.292893218813454 0.0
    vertex 1.4999999999999991 -2.133974596215561 0.0
  endloop
endfacet
facet normal 0.0 0.0 -1.0
  outer loop
    vertex 1.4999999999999991 -2.133974596215561 0.0
    vertex 1.2928932188134519 59.292893218813454 0.0
    vertex 1.4999999999999991 59.133974596215566 0.0
  endloop
endfacet
facet normal 0.0 0.0 -1.0
  outer loop
    vertex 1.4999999999999991 -2.133974596215561 0.0
    vertex 1.4999999999999991 59.133974596215566 0.0
    vertex 1.7411809548974777 59.034074173710934 0.0
  endloop
endfacet
facet normal 0.0 0.0 -1.0
  outer loop
    vertex 1.4999999999999991 -2.133974596215561 0.0
    vertex 1.7411809548974777 59.034074173710934 0.0
    vertex 1.7411809548974782 -2.034074173710932 0.0
  endloop
endfacet
facet normal 0.0 0.0 -1.0
  outer loop
    vertex 1.7411809548974782 -2.034074173710932 0.0
    vertex 1.7411809548974777 59.034074173710934 0.0
    vertex 1.999999999999999 59.00000000000001 0.0
  endloop
endfacet
facet normal 0.0 0.0 -1.0
  outer loop
    vertex 1.7411809548974782 -2.034074173710932 0.0
    vertex 1.999999999999999 59.00000000000001 0.0
    vertex 1.9999999999999991 -1.9999999999999998 0.0
  endloop
endfacet
facet normal 0.0 0.0 -1.0
  outer loop
    vertex 1.9999999999999991 -1.9999999999999998 0.0
    vertex 1.999999999999999 59.00000000000001 0.0
    vertex 2.258819045102519 59.03407417371094 0.0
  endloop
endfacet
facet normal 0.0 0.0 -1.0
  outer loop
    vertex 1.9999999999999991 -1.9999999999999998 0.0
    vertex 2.258819045102519 59.03407417371094 0.0
    vertex 2.25881904510252 -2.034074173710932 0.0
  endloop
endfacet
facet normal 0.0 0.0 -1.0
  outer loop
    vertex 2.25881904510252 -2.034074173710932 0.0
    vertex 2.258819045102519 59.03407417371094 0.0
    vertex 2.4999999999999973 59.133974596215566 0.0
  endloop
endfacet
facet normal 0.0 0.0 -1.0
  outer loop
    vertex 2.25881904510252 -2.034074173710932 0.0
    vertex 2.4999999999999973 59.133974596215566 0.0
    vertex 2.4999999999999987 -2.133974596215561 0.0
  endloop
endfacet
facet normal 0.0 0.0 -1.0
  outer loop
    vertex 2.4999999999999987 -2.133974596215561 0.0
    vertex 2.4999999999999973 59.133974596215566 0.0
    vertex 2.707106781186545 59.292893218813454 0.0
  endloop
endfacet
facet normal 0.0 0.0 -1.0
  outer loop
    vertex 2.4999999999999987 -2.133974596215561 0.0
    vertex 2.707106781186545 59.292893218813454 0.0
    vertex 2.7071067811865466 -2.292893218813452 0.0
  endloop
endfacet
facet normal 0.0 0.0 -1.0
  outer loop
    vertex 2.7071067811865466 -2.292893218813452 0.0
    vertex 2.707106781186545 59.292893218813454 0.0
    vertex 2.8660254037844357 59.50000000000001 0.0
  endloop
endfacet
facet normal 0.0 0.0 -1.0
  outer loop
    vertex 2.7071067811865466 -2.292893218813452 0.0
    vertex 2.8660254037844357 59.50000000000001 0.0
    vertex 2.8660254037844375 -2.499999999999999 0.0
  endloop
endfacet
facet normal 0.0 0.0 -1.0
  outer loop
    vertex 2.8660254037844375 -2.499999999999999 0.0
    vertex 2.8660254037844357 59.50000000000001 0.0
    vertex 2.9659258262890646 59.74118095489748 0.0
  endloop
endfacet
facet normal 0.0 0.0 -1.0
  outer loop
    vertex 2.8660254037844375 -2.499999999999999 0.0
    vertex 2.9659258262890646 59.74118095489748 0.0
    vertex 2.9659258262890673 -2.741180954897478 0.0
  endloop
endfacet
facet normal 0.0 0.0 -1.0
  outer loop
    vertex 2.9659258262890673 -2.741180954897478 0.0
    vertex 2.9659258262890646 59.74118095489748 0.0
    vertex 2.999999999999996 60.0 0.0
  endloop
endfacet
facet normal 0.0 0.0 -1.0
  outer loop
    vertex 2.9659258262890673 -2.741180954897478 0.0
    vertex 2.999999999999996 60.0 0.0
    vertex 2.9999999999999996 -3.0 0.0
  endloop
endfacet
facet normal 0.0 1.0 0.0
  outer loop
    vertex 0.0 62.0 3.9999999999999996
    vertex 125.0 62.0 0.0
    vertex 0.0 62.0 0.0
  endloop
endfacet
facet normal 0.0 1.0 0.0
  outer loop
    vertex 125.0 62.0 0.0
    vertex 0.0 62.0 3.9999999999999996
    vertex 125.0 62.0 3.9999999999999996
  endloop
endfacet
facet normal 0.7933533402912394 -0.6087614290087153 0.0
  outer loop
    vertex 1.2928932188134512 60.70710678118655 0.0
    vertex 1.1339745962155603 60.5 3.9999999999999996
    vertex 1.1339745962155603 60.5 0.0
  endloop
endfacet
facet normal 0.7933533402912394 -0.6087614290087153 0.0
  outer loop
    vertex 1.1339745962155603 60.5 3.9999999999999996
    vertex 1.2928932188134512 60.70710678118655 0.0
    vertex 1.2928932188134512 60.70710678118655 3.9999999999999996
  endloop
endfacet
facet normal 0.6087614290087057 -0.7933533402912467 0.0
  outer loop
    vertex 1.499999999999998 60.866025403784434 3.9999999999999996
    vertex 1.2928932188134512 60.70710678118655 0.0
    vertex 1.499999999999998 60.866025403784434 0.0
  endloop
endfacet
facet normal 0.6087614290087057 -0.7933533402912467 0.0
  outer loop
    vertex 1.2928932188134512 60.70710678118655 0.0
    vertex 1.499999999999998 60.866025403784434 3.9999999999999996
    vertex 1.2928932188134512 60.70710678118655 3.9999999999999996
  endloop
endfacet
facet normal 0.6087614290086991 0.7933533402912518 0.0
  outer loop
    vertex 122.29289321881345 59.292893218813454 3.9999999999999996
    vertex 122.5 59.133974596215566 0.0
    vertex 122.29289321881345 59.292893218813454 0.0
  endloop
endfacet
facet normal 0.6087614290086991 0.7933533402912518 0.0
  outer loop
    vertex 122.5 59.133974596215566 0.0
    vertex 122.29289321881345 59.292893218813454 3.9999999999999996
    vertex 122.5 59.133974596215566 3.9999999999999996
  endloop
endfacet
facet normal 1.0 0.0 0.0
  outer loop
    vertex 125.0 62.0 0.0
    vertex 125.0 -4.999999999999999 3.9999999999999996
    vertex 125.0 -4.999999999999999 0.0
  endloop
endfacet
facet normal 1.0 0.0 0.0
  outer loop
    vertex 125.0 -4.999999999999999 3.9999999999999996
    vertex 125.0 62.0 0.0
    vertex 125.0 62.0 3.9999999999999996
  endloop
endfacet
facet normal -0.9914448613738106 -0.13052619222005077 -0.0
  outer loop
    vertex 2.965925826289064 60.25881904510253 3.9999999999999996
    vertex 2.999999999999996 60.0 0.0
    vertex 2.999999999999996 60.0 3.9999999999999996
  endloop
endfacet
facet normal -0.9914448613738106 -0.13052619222005077 -0.0
  outer loop
    vertex 2.999999999999996 60.0 0.0
    vertex 2.965925826289064 60.25881904510253 3.9999999999999996
    vertex 2.965925826289064 60.25881904510253 0.0
  endloop
endfacet
facet normal -0.9914448613738108 0.13052619222004944 0.0
  outer loop
    vertex 2.999999999999996 60.0 3.9999999999999996
    vertex 2.9659258262890646 59.74118095489748 0.0
    vertex 2.9659258262890646 59.74118095489748 3.9999999999999996
  endloop
endfacet
facet normal -0.9914448613738108 0.13052619222004944 0.0
  outer loop
    vertex 2.9659258262890646 59.74118095489748 0.0
    vertex 2.999999999999996 60.0 3.9999999999999996
    vertex 2.999999999999996 60.0 0.0
  endloop
endfacet
facet normal -0.13052619222003056 -0.9914448613738133 -0.0
  outer loop
    vertex 2.258819045102517 60.96592582628907 3.9999999999999996
    vertex 1.9999999999999967 61.0 0.0
    vertex 2.258819045102517 60.96592582628907 0.0
  endloop
endfacet
facet normal -0.13052619222003056 -0.9914448613738133 -0.0
  outer loop
    vertex 1.9999999999999967 61.0 0.0
    vertex 2.258819045102517 60.96592582628907 3.9999999999999996
    vertex 1.9999999999999967 61.0 3.9999999999999996
  endloop
endfacet
facet normal 0.9238795325112855 0.38268343236509283 0.0
  outer loop
    vertex 1.0340741737109316 59.74118095489748 0.0
    vertex 1.133974596215561 59.50000000000001 3.9999999999999996
    vertex 1.133974596215561 59.50000000000001 0.0
  endloop
endfacet
facet normal 0.9238795325112855 0.38268343236509283 0.0
  outer loop
    vertex 1.133974596215561 59.50000000000001 3.9999999999999996
    vertex 1.0340741737109316 59.74118095489748 0.0
    vertex 1.0340741737109316 59.74118095489748 3.9999999999999996
  endloop
endfacet
facet normal -0.6087614290086991 -0.7933533402912518 -0.0
  outer loop
    vertex 123.70710678118655 60.70710678118655 3.9999999999999996
    vertex 123.5 60.866025403784434 0.0
    vertex 123.70710678118655 60.70710678118655 0.0
  endloop
endfacet
facet normal -0.6087614290086991 -0.7933533402912518 -0.0
  outer loop
    vertex 123.5 60.866025403784434 0.0
    vertex 123.70710678118655 60.70710678118655 3.9999999999999996
    vertex 123.5 60.866025403784434 3.9999999999999996
  endloop
endfacet
facet normal 0.13052619222007342 -0.9914448613738077 0.0
  outer loop
    vertex 1.9999999999999967 61.0 3.9999999999999996
    vertex 1.7411809548974768 60.965925826289066 0.0
    vertex 1.9999999999999967 61.0 0.0
  endloop
endfacet
facet normal 0.13052619222007342 -0.9914448613738077 0.0
  outer loop
    vertex 1.7411809548974768 60.965925826289066 0.0
    vertex 1.9999999999999967 61.0 3.9999999999999996
    vertex 1.7411809548974768 60.965925826289066 3.9999999999999996
  endloop
endfacet
facet normal 0.9914448613738106 -0.13052619222005007 0.0
  outer loop
    vertex 1.0340741737109311 60.25881904510253 0.0
    vertex 0.9999999999999996 60.0 3.9999999999999996
    vertex 0.9999999999999996 60.0 0.0
  endloop
endfacet
facet normal 0.9914448613738106 -0.13052619222005007 0.0
  outer loop
    vertex 0.9999999999999996 60.0 3.9999999999999996
    vertex 1.0340741737109311 60.25881904510253 0.0
    vertex 1.0340741737109311 60.25881904510253 3.9999999999999996
  endloop
endfacet
facet normal 0.9238795325112884 -0.38268343236508595 0.0
  outer loop
    vertex 122.13397459621557 60.5 0.0
    vertex 122.03407417371093 60.25881904510253 3.9999999999999996
    vertex 122.03407417371093 60.25881904510253 0.0
  endloop
endfacet
facet normal 0.9238795325112884 -0.38268343236508595 0.0
  outer loop
    vertex 122.03407417371093 60.25881904510253 3.9999999999999996
    vertex 122.13397459621557 60.5 0.0
    vertex 122.13397459621557 60.5 3.9999999999999996
  endloop
endfacet
facet normal -0.7933533402912402 -0.6087614290087144 -0.0
  outer loop
    vertex 2.7071067811865435 60.70710678118655 3.9999999999999996
    vertex 2.866025403784434 60.5 0.0
    vertex 2.866025403784434 60.5 3.9999999999999996
  endloop
endfacet
facet normal -0.7933533402912402 -0.6087614290087144 -0.0
  outer loop
    vertex 2.866025403784434 60.5 0.0
    vertex 2.7071067811865435 60.70710678118655 3.9999999999999996
    vertex 2.7071067811865435 60.70710678118655 0.0
  endloop
endfacet
facet normal 0.9238795325112857 -0.3826834323650922 0.0
  outer loop
    vertex 1.1339745962155603 60.5 0.0
    vertex 1.0340741737109311 60.25881904510253 3.9999999999999996
    vertex 1.0340741737109311 60.25881904510253 0.0
  endloop
endfacet
facet normal 0.9238795325112857 -0.3826834323650922 0.0
  outer loop
    vertex 1.0340741737109311 60.25881904510253 3.9999999999999996
    vertex 1.1339745962155603 60.5 0.0
    vertex 1.1339745962155603 60.5 3.9999999999999996
  endloop
endfacet
facet normal -0.13052619222007758 -0.991444861373807 -0.0
  outer loop
    vertex 123.25881904510251 60.965925826289066 3.9999999999999996
    vertex 123.0 61.0 0.0
    vertex 123.25881904510251 60.965925826289066 0.0
  endloop
endfacet
facet normal -0.13052619222007758 -0.991444861373807 -0.0
  outer loop
    vertex 123.0 61.0 0.0
    vertex 123.25881904510251 60.965925826289066 3.9999999999999996
    vertex 123.0 61.0 3.9999999999999996
  endloop
endfacet
facet normal 0.793353340291239 0.6087614290087157 0.0
  outer loop
    vertex 1.133974596215561 59.50000000000001 0.0
    vertex 1.2928932188134519 59.292893218813454 3.9999999999999996
    vertex 1.2928932188134519 59.292893218813454 0.0
  endloop
endfacet
facet normal 0.793353340291239 0.6087614290087157 0.0
  outer loop
    vertex 1.2928932188134519 59.292893218813454 3.9999999999999996
    vertex 1.133974596215561 59.50000000000001 0.0
    vertex 1.133974596215561 59.50000000000001 3.9999999999999996
  endloop
endfacet
facet normal 0.9238795325112884 0.38268343236508595 0.0
  outer loop
    vertex 122.03407417371093 59.74118095489748 0.0
    vertex 122.13397459621557 59.50000000000001 3.9999999999999996
    vertex 122.13397459621557 59.50000000000001 0.0
  endloop
endfacet
facet normal 0.9238795325112884 0.38268343236508595 0.0
  outer loop
    vertex 122.13397459621557 59.50000000000001 3.9999999999999996
    vertex 122.03407417371093 59.74118095489748 0.0
    vertex 122.03407417371093 59.74118095489748 3.9999999999999996
  endloop
endfacet
facet normal -0.7933533402912402 0.6087614290087144 0.0
  outer loop
    vertex 2.8660254037844357 59.50000000000001 3.9999999999999996
    vertex 2.707106781186545 59.292893218813454 0.0
    vertex 2.707106781186545 59.292893218813454 3.9999999999999996
  endloop
endfacet
facet normal -0.7933533402912402 0.6087614290087144 0.0
  outer loop
    vertex 2.707106781186545 59.292893218813454 0.0
    vertex 2.8660254037844357 59.50000000000001 3.9999999999999996
    vertex 2.8660254037844357 59.50000000000001 0.0
  endloop
endfacet
facet normal -0.7933533402912518 -0.6087614290086991 -0.0
  outer loop
    vertex 123.70710678118655 60.70710678118655 3.9999999999999996
    vertex 123.86602540378443 60.5 0.0
    vertex 123.86602540378443 60.5 3.9999999999999996
  endloop
endfacet
facet normal -0.7933533402912518 -0.6087614290086991 -0.0
  outer loop
    vertex 123.86602540378443 60.5 0.0
    vertex 123.70710678118655 60.70710678118655 3.9999999999999996
    vertex 123.70710678118655 60.70710678118655 0.0
  endloop
endfacet
facet normal -0.9238795325112845 -0.3826834323650951 -0.0
  outer loop
    vertex 2.866025403784434 60.5 3.9999999999999996
    vertex 2.965925826289064 60.25881904510253 0.0
    vertex 2.965925826289064 60.25881904510253 3.9999999999999996
  endloop
endfacet
facet normal -0.9238795325112845 -0.3826834323650951 -0.0
  outer loop
    vertex 2.965925826289064 60.25881904510253 0.0
    vertex 2.866025403784434 60.5 3.9999999999999996
    vertex 2.866025403784434 60.5 0.0
  endloop
endfacet
facet normal -0.9238795325112861 0.3826834323650917 0.0
  outer loop
    vertex 2.9659258262890646 59.74118095489748 3.9999999999999996
    vertex 2.8660254037844357 59.50000000000001 0.0
    vertex 2.8660254037844357 59.50000000000001 3.9999999999999996
  endloop
endfacet
facet normal -0.9238795325112861 0.3826834323650917 0.0
  outer loop
    vertex 2.8660254037844357 59.50000000000001 0.0
    vertex 2.9659258262890646 59.74118095489748 3.9999999999999996
    vertex 2.9659258262890646 59.74118095489748 0.0
  endloop
endfacet
facet normal -0.6087614290087043 -0.7933533402912477 -0.0
  outer loop
    vertex 2.7071067811865435 60.70710678118655 3.9999999999999996
    vertex 2.499999999999996 60.866025403784434 0.0
    vertex 2.7071067811865435 60.70710678118655 0.0
  endloop
endfacet
facet normal -0.6087614290087043 -0.7933533402912477 -0.0
  outer loop
    vertex 2.499999999999996 60.866025403784434 0.0
    vertex 2.7071067811865435 60.70710678118655 3.9999999999999996
    vertex 2.499999999999996 60.866025403784434 3.9999999999999996
  endloop
endfacet
facet normal 0.9914448613738105 0.1305261922200514 0.0
  outer loop
    vertex 0.9999999999999996 60.0 0.0
    vertex 1.0340741737109316 59.74118095489748 3.9999999999999996
    vertex 1.0340741737109316 59.74118095489748 0.0
  endloop
endfacet
facet normal 0.9914448613738105 0.1305261922200514 0.0
  outer loop
    vertex 1.0340741737109316 59.74118095489748 3.9999999999999996
    vertex 0.9999999999999996 60.0 0.0
    vertex 0.9999999999999996 60.0 3.9999999999999996
  endloop
endfacet
facet normal -0.7933533402912518 0.6087614290086991 0.0
  outer loop
    vertex 123.86602540378443 59.50000000000001 3.9999999999999996
    vertex 123.70710678118655 59.292893218813454 0.0
    vertex 123.70710678118655 59.292893218813454 3.9999999999999996
  endloop
endfacet
facet normal -0.7933533402912518 0.6087614290086991 0.0
  outer loop
    vertex 123.70710678118655 59.292893218813454 0.0
    vertex 123.86602540378443 59.50000000000001 3.9999999999999996
    vertex 123.86602540378443 59.50000000000001 0.0
  endloop
endfacet
facet normal 0.9914448613738077 -0.13052619222007197 0.0
  outer loop
    vertex 122.03407417371093 60.25881904510253 0.0
    vertex 122.0 60.0 3.9999999999999996
    vertex 122.0 60.0 0.0
  endloop
endfacet
facet normal 0.9914448613738077 -0.13052619222007197 0.0
  outer loop
    vertex 122.0 60.0 3.9999999999999996
    vertex 122.03407417371093 60.25881904510253 0.0
    vertex 122.03407417371093 60.25881904510253 3.9999999999999996
  endloop
endfacet
facet normal -0.3826834323650831 0.9238795325112897 0.0
  outer loop
    vertex 2.258819045102519 59.03407417371094 3.9999999999999996
    vertex 2.4999999999999973 59.133974596215566 0.0
    vertex 2.258819045102519 59.03407417371094 0.0
  endloop
endfacet
facet normal -0.3826834323650831 0.9238795325112897 0.0
  outer loop
    vertex 2.4999999999999973 59.133974596215566 0.0
    vertex 2.258819045102519 59.03407417371094 3.9999999999999996
    vertex 2.4999999999999973 59.133974596215566 3.9999999999999996
  endloop
endfacet
facet normal 0.3826834323650826 -0.9238795325112898 0.0
  outer loop
    vertex 1.7411809548974768 60.965925826289066 3.9999999999999996
    vertex 1.499999999999998 60.866025403784434 0.0
    vertex 1.7411809548974768 60.965925826289066 0.0
  endloop
endfacet
facet normal 0.3826834323650826 -0.9238795325112898 0.0
  outer loop
    vertex 1.499999999999998 60.866025403784434 0.0
    vertex 1.7411809548974768 60.965925826289066 3.9999999999999996
    vertex 1.499999999999998 60.866025403784434 3.9999999999999996
  endloop
endfacet
facet normal 0.608761429008705 0.7933533402912474 0.0
  outer loop
    vertex 1.2928932188134519 59.292893218813454 3.9999999999999996
    vertex 1.4999999999999991 59.133974596215566 0.0
    vertex 1.2928932188134519 59.292893218813454 0.0
  endloop
endfacet
facet normal 0.608761429008705 0.7933533402912474 0.0
  outer loop
    vertex 1.4999999999999991 59.133974596215566 0.0
    vertex 1.2928932188134519 59.292893218813454 3.9999999999999996
    vertex 1.4999999999999991 59.133974596215566 3.9999999999999996
  endloop
endfacet
facet normal 0.1305261922200304 0.9914448613738134 0.0
  outer loop
    vertex 1.7411809548974777 59.034074173710934 3.9999999999999996
    vertex 1.999999999999999 59.00000000000001 0.0
    vertex 1.7411809548974777 59.034074173710934 0.0
  endloop
endfacet
facet normal 0.1305261922200304 0.9914448613738134 0.0
  outer loop
    vertex 1.999999999999999 59.00000000000001 0.0
    vertex 1.7411809548974777 59.034074173710934 3.9999999999999996
    vertex 1.999999999999999 59.00000000000001 3.9999999999999996
  endloop
endfacet
facet normal -0.6087614290087043 0.7933533402912477 0.0
  outer loop
    vertex 2.4999999999999973 59.133974596215566 3.9999999999999996
    vertex 2.707106781186545 59.292893218813454 0.0
    vertex 2.4999999999999973 59.133974596215566 0.0
  endloop
endfacet
facet normal -0.6087614290087043 0.7933533402912477 0.0
  outer loop
    vertex 2.707106781186545 59.292893218813454 0.0
    vertex 2.4999999999999973 59.133974596215566 3.9999999999999996
    vertex 2.707106781186545 59.292893218813454 3.9999999999999996
  endloop
endfacet
facet normal -0.9914448613738077 0.13052619222007197 0.0
  outer loop
    vertex 124.0 60.0 3.9999999999999996
    vertex 123.96592582628907 59.74118095489748 0.0
    vertex 123.96592582628907 59.74118095489748 3.9999999999999996
  endloop
endfacet
facet normal -0.9914448613738077 0.13052619222007197 0.0
  outer loop
    vertex 123.96592582628907 59.74118095489748 0.0
    vertex 124.0 60.0 3.9999999999999996
    vertex 124.0 60.0 0.0
  endloop
endfacet
facet normal 0.9914448613738077 0.13052619222007197 0.0
  outer loop
    vertex 122.0 60.0 0.0
    vertex 122.03407417371093 59.74118095489748 3.9999999999999996
    vertex 122.03407417371093 59.74118095489748 0.0
  endloop
endfacet
facet normal 0.9914448613738077 0.13052619222007197 0.0
  outer loop
    vertex 122.03407417371093 59.74118095489748 3.9999999999999996
    vertex 122.0 60.0 0.0
    vertex 122.0 60.0 3.9999999999999996
  endloop
endfacet
facet normal 0.7933533402912518 -0.6087614290086991 0.0
  outer loop
    vertex 122.29289321881345 60.70710678118655 0.0
    vertex 122.13397459621557 60.5 3.9999999999999996
    vertex 122.13397459621557 60.5 0.0
  endloop
endfacet
facet normal 0.7933533402912518 -0.6087614290086991 0.0
  outer loop
    vertex 122.13397459621557 60.5 3.9999999999999996
    vertex 122.29289321881345 60.70710678118655 0.0
    vertex 122.29289321881345 60.70710678118655 3.9999999999999996
  endloop
endfacet
facet normal 0.7933533402912518 0.6087614290086991 0.0
  outer loop
    vertex 122.13397459621557 59.50000000000001 0.0
    vertex 122.29289321881345 59.292893218813454 3.9999999999999996
    vertex 122.29289321881345 59.292893218813454 0.0
  endloop
endfacet
facet normal 0.7933533402912518 0.6087614290086991 0.0
  outer loop
    vertex 122.29289321881345 59.292893218813454 3.9999999999999996
    vertex 122.13397459621557 59.50000000000001 0.0
    vertex 122.13397459621557 59.50000000000001 3.9999999999999996
  endloop
endfacet
facet normal -0.38268343236511954 -0.9238795325112746 -0.0
  outer loop
    vertex 2.499999999999996 60.866025403784434 3.9999999999999996
    vertex 2.258819045102517 60.96592582628907 0.0
    vertex 2.499999999999996 60.866025403784434 0.0
  endloop
endfacet
facet normal -0.38268343236511954 -0.9238795325112746 -0.0
  outer loop
    vertex 2.258819045102517 60.96592582628907 0.0
    vertex 2.499999999999996 60.866025403784434 3.9999999999999996
    vertex 2.258819045102517 60.96592582628907 3.9999999999999996
  endloop
endfacet
facet normal 0.13052619222003511 -0.9914448613738126 0.0
  outer loop
    vertex 123.0 61.0 3.9999999999999996
    vertex 122.74118095489749 60.96592582628907 0.0
    vertex 123.0 61.0 0.0
  endloop
endfacet
facet normal 0.13052619222003511 -0.9914448613738126 0.0
  outer loop
    vertex 122.74118095489749 60.96592582628907 0.0
    vertex 123.0 61.0 3.9999999999999996
    vertex 122.74118095489749 60.96592582628907 3.9999999999999996
  endloop
endfacet
facet normal 0.6087614290086991 -0.7933533402912518 0.0
  outer loop
    vertex 122.5 60.866025403784434 3.9999999999999996
    vertex 122.29289321881345 60.70710678118655 0.0
    vertex 122.5 60.866025403784434 0.0
  endloop
endfacet
facet normal 0.6087614290086991 -0.7933533402912518 0.0
  outer loop
    vertex 122.29289321881345 60.70710678118655 0.0
    vertex 122.5 60.866025403784434 3.9999999999999996
    vertex 122.29289321881345 60.70710678118655 3.9999999999999996
  endloop
endfacet
facet normal 0.38268343236511954 0.9238795325112746 0.0
  outer loop
    vertex 1.4999999999999991 59.133974596215566 3.9999999999999996
    vertex 1.7411809548974777 59.034074173710934 0.0
    vertex 1.4999999999999991 59.133974596215566 0.0
  endloop
endfacet
facet normal 0.38268343236511954 0.9238795325112746 0.0
  outer loop
    vertex 1.7411809548974777 59.034074173710934 0.0
    vertex 1.4999999999999991 59.133974596215566 3.9999999999999996
    vertex 1.7411809548974777 59.034074173710934 3.9999999999999996
  endloop
endfacet
facet normal -0.9914448613738077 -0.13052619222007197 -0.0
  outer loop
    vertex 123.96592582628907 60.25881904510253 3.9999999999999996
    vertex 124.0 60.0 0.0
    vertex 124.0 60.0 3.9999999999999996
  endloop
endfacet
facet normal -0.9914448613738077 -0.13052619222007197 -0.0
  outer loop
    vertex 124.0 60.0 0.0
    vertex 123.96592582628907 60.25881904510253 3.9999999999999996
    vertex 123.96592582628907 60.25881904510253 0.0
  endloop
endfacet
facet normal 0.38268343236510755 -0.9238795325112795 0.0
  outer loop
    vertex 122.74118095489749 60.96592582628907 3.9999999999999996
    vertex 122.5 60.866025403784434 0.0
    vertex 122.74118095489749 60.96592582628907 0.0
  endloop
endfacet
facet normal 0.38268343236510755 -0.9238795325112795 0.0
  outer loop
    vertex 122.5 60.866025403784434 0.0
    vertex 122.74118095489749 60.96592582628907 3.9999999999999996
    vertex 122.5 60.866025403784434 3.9999999999999996
  endloop
endfacet
facet normal -0.9238795325112884 0.38268343236508595 0.0
  outer loop
    vertex 123.96592582628907 59.74118095489748 3.9999999999999996
    vertex 123.86602540378443 59.50000000000001 0.0
    vertex 123.86602540378443 59.50000000000001 3.9999999999999996
  endloop
endfacet
facet normal -0.9238795325112884 0.38268343236508595 0.0
  outer loop
    vertex 123.86602540378443 59.50000000000001 0.0
    vertex 123.96592582628907 59.74118095489748 3.9999999999999996
    vertex 123.96592582628907 59.74118095489748 0.0
  endloop
endfacet
facet normal 0.0 0.0 1.0
  outer loop
    vertex 0.9999999999999998 -3.0 3.9999999999999996
    vertex 1.0340741737109316 59.74118095489748 3.9999999999999996
    vertex 0.9999999999999996 60.0 3.9999999999999996
  endloop
endfacet
facet normal 0.0 0.0 1.0
  outer loop
    vertex 1.0340741737109316 59.74118095489748 3.9999999999999996
    vertex 0.9999999999999998 -3.0 3.9999999999999996
    vertex 1.0340741737109314 -2.7411809548974797 3.9999999999999996
  endloop
endfacet
facet normal 0.0 0.0 1.0
  outer loop
    vertex 1.0340741737109316 59.74118095489748 3.9999999999999996
    vertex 1.0340741737109314 -2.7411809548974797 3.9999999999999996
    vertex 1.133974596215561 -2.5 3.9999999999999996
  endloop
endfacet
facet normal 0.0 0.0 1.0
  outer loop
    vertex 1.0340741737109316 59.74118095489748 3.9999999999999996
    vertex 1.133974596215561 -2.5 3.9999999999999996
    vertex 1.133974596215561 59.50000000000001 3.9999999999999996
  endloop
endfacet
facet normal 0.0 0.0 1.0
  outer loop
    vertex 1.133974596215561 59.50000000000001 3.9999999999999996
    vertex 1.133974596215561 -2.5 3.9999999999999996
    vertex 1.2928932188134517 -2.2928932188134525 3.9999999999999996
  endloop
endfacet
facet normal 0.0 0.0 1.0
  outer loop
    vertex 1.133974596215561 59.50000000000001 3.9999999999999996
    vertex 1.2928932188134517 -2.2928932188134525 3.9999999999999996
    vertex 1.2928932188134519 59.292893218813454 3.9999999999999996
  endloop
endfacet
facet normal 0.0 0.0 1.0
  outer loop
    vertex 1.2928932188134519 59.292893218813454 3.9999999999999996
    vertex 1.2928932188134517 -2.2928932188134525 3.9999999999999996
    vertex 1.4999999999999991 -2.133974596215561 3.9999999999999996
  endloop
endfacet
facet normal 0.0 0.0 1.0
  outer loop
    vertex 1.2928932188134519 59.292893218813454 3.9999999999999996
    vertex 1.4999999999999991 -2.133974596215561 3.9999999999999996
    vertex 1.4999999999999991 59.133974596215566 3.9999999999999996
  endloop
endfacet
facet normal 0.0 0.0 1.0
  outer loop
    vertex 1.4999999999999991 59.133974596215566 3.9999999999999996
    vertex 1.4999999999999991 -2.133974596215561 3.9999999999999996
    vertex 1.7411809548974777 59.034074173710934 3.9999999999999996
  endloop
endfacet
facet normal 0.0 0.0 1.0
  outer loop
    vertex 1.7411809548974777 59.034074173710934 3.9999999999999996
    vertex 1.4999999999999991 -2.133974596215561 3.9999999999999996
    vertex 1.7411809548974782 -2.034074173710932 3.9999999999999996
  endloop
endfacet
facet normal 0.0 0.0 1.0
  outer loop
    vertex 1.7411809548974777 59.034074173710934 3.9999999999999996
    vertex 1.7411809548974782 -2.034074173710932 3.9999999999999996
    vertex 1.999999999999999 59.00000000000001 3.9999999999999996
  endloop
endfacet
facet normal 0.0 0.0 1.0
  outer loop
    vertex 1.999999999999999 59.00000000000001 3.9999999999999996
    vertex 1.7411809548974782 -2.034074173710932 3.9999999999999996
    vertex 1.9999999999999991 -1.9999999999999998 3.9999999999999996
  endloop
endfacet
facet normal 0.0 0.0 1.0
  outer loop
    vertex 1.999999999999999 59.00000000000001 3.9999999999999996
    vertex 1.9999999999999991 -1.9999999999999998 3.9999999999999996
    vertex 2.258819045102519 59.03407417371094 3.9999999999999996
  endloop
endfacet
facet normal 0.0 0.0 1.0
  outer loop
    vertex 2.258819045102519 59.03407417371094 3.9999999999999996
    vertex 1.9999999999999991 -1.9999999999999998 3.9999999999999996
    vertex 2.25881904510252 -2.034074173710932 3.9999999999999996
  endloop
endfacet
facet normal 0.0 0.0 1.0
  outer loop
    vertex 2.258819045102519 59.03407417371094 3.9999999999999996
    vertex 2.25881904510252 -2.034074173710932 3.9999999999999996
    vertex 2.4999999999999973 59.133974596215566 3.9999999999999996
  endloop
endfacet
facet normal 0.0 0.0 1.0
  outer loop
    vertex 2.4999999999999973 59.133974596215566 3.9999999999999996
    vertex 2.25881904510252 -2.034074173710932 3.9999999999999996
    vertex 2.4999999999999987 -2.133974596215561 3.9999999999999996
  endloop
endfacet
facet normal 0.0 0.0 1.0
  outer loop
    vertex 2.4999999999999973 59.133974596215566 3.9999999999999996
    vertex 2.4999999999999987 -2.133974596215561 3.9999999999999996
    vertex 2.707106781186545 59.292893218813454 3.9999999999999996
  endloop
endfacet
facet normal 0.0 0.0 1.0
  outer loop
    vertex 2.707106781186545 59.292893218813454 3.9999999999999996
    vertex 2.4999999999999987 -2.133974596215561 3.9999999999999996
    vertex 2.7071067811865466 -2.292893218813452 3.9999999999999996
  endloop
endfacet
facet normal 0.0 0.0 1.0
  outer loop
    vertex 2.707106781186545 59.292893218813454 3.9999999999999996
    vertex 2.7071067811865466 -2.292893218813452 3.9999999999999996
    vertex 2.8660254037844357 59.50000000000001 3.9999999999999996
  endloop
endfacet
facet normal 0.0 0.0 1.0
  outer loop
    vertex 2.8660254037844357 59.50000000000001 3.9999999999999996
    vertex 2.7071067811865466 -2.292893218813452 3.9999999999999996
    vertex 2.8660254037844375 -2.499999999999999 3.9999999999999996
  endloop
endfacet
facet normal 0.0 0.0 1.0
  outer loop
    vertex 2.8660254037844357 59.50000000000001 3.9999999999999996
    vertex 2.8660254037844375 -2.499999999999999 3.9999999999999996
    vertex 2.9659258262890646 59.74118095489748 3.9999999999999996
  endloop
endfacet
facet normal 0.0 0.0 1.0
  outer loop
    vertex 2.9659258262890646 59.74118095489748 3.9999999999999996
    vertex 2.8660254037844375 -2.499999999999999 3.9999999999999996
    vertex 2.9659258262890673 -2.741180954897478 3.9999999999999996
  endloop
endfacet
facet normal 0.0 0.0 1.0
  outer loop
    vertex 2.9659258262890646 59.74118095489748 3.9999999999999996
    vertex 2.9659258262890673 -2.741180954897478 3.9999999999999996
    vertex 2.999999999999996 60.0 3.9999999999999996
  endloop
endfacet
facet normal 0.0 0.0 1.0
  outer loop
    vertex 2.999999999999996 60.0 3.9999999999999996
    vertex 2.9659258262890673 -2.741180954897478 3.9999999999999996
    vertex 2.9999999999999996 -3.0 3.9999999999999996
  endloop
endfacet
facet normal 0.0 0.0 1.0
  outer loop
    vertex 0.0 -4.999999999999999 3.9999999999999996
    vertex 0.9999999999999998 -3.0 3.9999999999999996
    vertex 0.0 62.0 3.9999999999999996
  endloop
endfacet
facet normal 0.0 0.0 1.0
  outer loop
    vertex 0.9999999999999998 -3.0 3.9999999999999996
    vertex 0.0 -4.999999999999999 3.9999999999999996
    vertex 1.0340741737109316 -3.2588190451025207 3.9999999999999996
  endloop
endfacet
facet normal 0.0 0.0 1.0
  outer loop
    vertex 1.0340741737109316 -3.2588190451025207 3.9999999999999996
    vertex 0.0 -4.999999999999999 3.9999999999999996
    vertex 1.1339745962155612 -3.5 3.9999999999999996
  endloop
endfacet
facet normal 0.0 0.0 1.0
  outer loop
    vertex 1.1339745962155612 -3.5 3.9999999999999996
    vertex 0.0 -4.999999999999999 3.9999999999999996
    vertex 1.292893218813452 -3.7071067811865475 3.9999999999999996
  endloop
endfacet
facet normal 0.0 0.0 1.0
  outer loop
    vertex 1.292893218813452 -3.7071067811865475 3.9999999999999996
    vertex 0.0 -4.999999999999999 3.9999999999999996
    vertex 1.5 -3.866025403784439 3.9999999999999996
  endloop
endfacet
facet normal 0.0 0.0 1.0
  outer loop
    vertex 1.5 -3.866025403784439 3.9999999999999996
    vertex 0.0 -4.999999999999999 3.9999999999999996
    vertex 1.7411809548974788 -3.9659258262890678 3.9999999999999996
  endloop
endfacet
facet normal 0.0 0.0 1.0
  outer loop
    vertex 1.7411809548974788 -3.9659258262890678 3.9999999999999996
    vertex 0.0 -4.999999999999999 3.9999999999999996
    vertex 1.9999999999999996 -3.9999999999999996 3.9999999999999996
  endloop
endfacet
facet normal 0.0 0.0 1.0
  outer loop
    vertex 1.9999999999999996 -3.9999999999999996 3.9999999999999996
    vertex 0.0 -4.999999999999999 3.9999999999999996
    vertex 125.0 -4.999999999999999 3.9999999999999996
  endloop
endfacet
facet normal 0.0 0.0 1.0
  outer loop
    vertex 0.0 62.0 3.9999999999999996
    vertex 0.9999999999999998 -3.0 3.9999999999999996
    vertex 0.9999999999999996 60.0 3.9999999999999996
  endloop
endfacet
facet normal 0.0 0.0 1.0
  outer loop
    vertex 1.9999999999999996 -3.9999999999999996 3.9999999999999996
    vertex 125.0 -4.999999999999999 3.9999999999999996
    vertex 2.2588190451025203 -3.9659258262890678 3.9999999999999996
  endloop
endfacet
facet normal 0.0 0.0 1.0
  outer loop
    vertex 2.2588190451025203 -3.9659258262890678 3.9999999999999996
    vertex 125.0 -4.999999999999999 3.9999999999999996
    vertex 2.4999999999999996 -3.866025403784438 3.9999999999999996
  endloop
endfacet
facet normal 0.0 0.0 1.0
  outer loop
    vertex 2.4999999999999996 -3.866025403784438 3.9999999999999996
    vertex 125.0 -4.999999999999999 3.9999999999999996
    vertex 2.707106781186547 -3.7071067811865475 3.9999999999999996
  endloop
endfacet
facet normal 0.0 0.0 1.0
  outer loop
    vertex 2.707106781186547 -3.7071067811865475 3.9999999999999996
    vertex 125.0 -4.999999999999999 3.9999999999999996
    vertex 2.866025403784438 -3.5 3.9999999999999996
  endloop
endfacet
facet normal 0.0 0.0 1.0
  outer loop
    vertex 2.866025403784438 -3.5 3.9999999999999996
    vertex 125.0 -4.999999999999999 3.9999999999999996
    vertex 2.9659258262890678 -3.2588190451025207 3.9999999999999996
  endloop
endfacet
facet normal 0.0 0.0 1.0
  outer loop
    vertex 2.9659258262890678 -3.2588190451025207 3.9999999999999996
    vertex 125.0 -4.999999999999999 3.9999999999999996
    vertex 2.9999999999999996 -3.0 3.9999999999999996
  endloop
endfacet
facet normal 0.0 0.0 1.0
  outer loop
    vertex 2.9999999999999996 -3.0 3.9999999999999996
    vertex 125.0 -4.999999999999999 3.9999999999999996
    vertex 122.5 -3.866025403784437 3.9999999999999996
  endloop
endfacet
facet normal 0.0 0.0 1.0
  outer loop
    vertex 2.9999999999999996 -3.0 3.9999999999999996
    vertex 122.5 -3.866025403784437 3.9999999999999996
    vertex 122.29289321881345 -3.7071067811865457 3.9999999999999996
  endloop
endfacet
facet normal 0.0 0.0 1.0
  outer loop
    vertex 2.9999999999999996 -3.0 3.9999999999999996
    vertex 122.29289321881345 -3.7071067811865457 3.9999999999999996
    vertex 122.13397459621557 -3.499999999999999 3.9999999999999996
  endloop
endfacet
facet normal 0.0 0.0 1.0
  outer loop
    vertex 2.9999999999999996 -3.0 3.9999999999999996
    vertex 122.13397459621557 -3.499999999999999 3.9999999999999996
    vertex 122.03407417371093 -3.2588190451025207 3.9999999999999996
  endloop
endfacet
facet normal 0.0 0.0 1.0
  outer loop
    vertex 2.9999999999999996 -3.0 3.9999999999999996
    vertex 122.03407417371093 -3.2588190451025207 3.9999999999999996
    vertex 122.0 -3.0 3.9999999999999996
  endloop
endfacet
facet normal 0.0 0.0 1.0
  outer loop
    vertex 122.5 -3.866025403784437 3.9999999999999996
    vertex 125.0 -4.999999999999999 3.9999999999999996
    vertex 122.74118095489749 -3.9659258262890664 3.9999999999999996
  endloop
endfacet
facet normal 0.0 0.0 1.0
  outer loop
    vertex 122.74118095489749 -3.9659258262890664 3.9999999999999996
    vertex 125.0 -4.999999999999999 3.9999999999999996
    vertex 123.0 -3.9999999999999982 3.9999999999999996
  endloop
endfacet
facet normal 0.0 0.0 1.0
  outer loop
    vertex 123.0 -3.9999999999999982 3.9999999999999996
    vertex 125.0 -4.999999999999999 3.9999999999999996
    vertex 123.25881904510251 -3.965925826289066 3.9999999999999996
  endloop
endfacet
facet normal 0.0 0.0 1.0
  outer loop
    vertex 123.25881904510251 -3.965925826289066 3.9999999999999996
    vertex 125.0 -4.999999999999999 3.9999999999999996
    vertex 123.5 -3.8660254037844366 3.9999999999999996
  endloop
endfacet
facet normal 0.0 0.0 1.0
  outer loop
    vertex 123.5 -3.8660254037844366 3.9999999999999996
    vertex 125.0 -4.999999999999999 3.9999999999999996
    vertex 123.70710678118655 -3.7071067811865457 3.9999999999999996
  endloop
endfacet
facet normal 0.0 0.0 1.0
  outer loop
    vertex 123.70710678118655 -3.7071067811865457 3.9999999999999996
    vertex 125.0 -4.999999999999999 3.9999999999999996
    vertex 123.86602540378443 -3.4999999999999987 3.9999999999999996
  endloop
endfacet
facet normal 0.0 0.0 1.0
  outer loop
    vertex 123.86602540378443 -3.4999999999999987 3.9999999999999996
    vertex 125.0 -4.999999999999999 3.9999999999999996
    vertex 123.96592582628907 -3.2588190451025194 3.9999999999999996
  endloop
endfacet
facet normal 0.0 0.0 1.0
  outer loop
    vertex 123.96592582628907 -3.2588190451025194 3.9999999999999996
    vertex 125.0 -4.999999999999999 3.9999999999999996
    vertex 124.0 -3.0 3.9999999999999996
  endloop
endfacet
facet normal 0.0 0.0 1.0
  outer loop
    vertex 124.0 -3.0 3.9999999999999996
    vertex 125.0 -4.999999999999999 3.9999999999999996
    vertex 124.0 60.0 3.9999999999999996
  endloop
endfacet
facet normal 0.0 0.0 1.0
  outer loop
    vertex 0.0 62.0 3.9999999999999996
    vertex 1.9999999999999967 61.0 3.9999999999999996
    vertex 125.0 62.0 3.9999999999999996
  endloop
endfacet
facet normal 0.0 0.0 1.0
  outer loop
    vertex 1.9999999999999967 61.0 3.9999999999999996
    vertex 0.0 62.0 3.9999999999999996
    vertex 1.7411809548974768 60.965925826289066 3.9999999999999996
  endloop
endfacet
facet normal 0.0 0.0 1.0
  outer loop
    vertex 1.7411809548974768 60.965925826289066 3.9999999999999996
    vertex 0.0 62.0 3.9999999999999996
    vertex 1.499999999999998 60.866025403784434 3.9999999999999996
  endloop
endfacet
facet normal 0.0 0.0 1.0
  outer loop
    vertex 1.499999999999998 60.866025403784434 3.9999999999999996
    vertex 0.0 62.0 3.9999999999999996
    vertex 1.2928932188134512 60.70710678118655 3.9999999999999996
  endloop
endfacet
facet normal 0.0 0.0 1.0
  outer loop
    vertex 1.2928932188134512 60.70710678118655 3.9999999999999996
    vertex 0.0 62.0 3.9999999999999996
    vertex 1.1339745962155603 60.5 3.9999999999999996
  endloop
endfacet
facet normal 0.0 0.0 1.0
  outer loop
    vertex 1.1339745962155603 60.5 3.9999999999999996
    vertex 0.0 62.0 3.9999999999999996
    vertex 1.0340741737109311 60.25881904510253 3.9999999999999996
  endloop
endfacet
facet normal 0.0 0.0 1.0
  outer loop
    vertex 1.0340741737109311 60.25881904510253 3.9999999999999996
    vertex 0.0 62.0 3.9999999999999996
    vertex 0.9999999999999996 60.0 3.9999999999999996
  endloop
endfacet
facet normal 0.0 0.0 1.0
  outer loop
    vertex 125.0 62.0 3.9999999999999996
    vertex 1.9999999999999967 61.0 3.9999999999999996
    vertex 2.258819045102517 60.96592582628907 3.9999999999999996
  endloop
endfacet
facet normal 0.0 0.0 1.0
  outer loop
    vertex 125.0 62.0 3.9999999999999996
    vertex 2.258819045102517 60.96592582628907 3.9999999999999996
    vertex 2.499999999999996 60.866025403784434 3.9999999999999996
  endloop
endfacet
facet normal 0.0 0.0 1.0
  outer loop
    vertex 125.0 62.0 3.9999999999999996
    vertex 2.499999999999996 60.866025403784434 3.9999999999999996
    vertex 2.7071067811865435 60.70710678118655 3.9999999999999996
  endloop
endfacet
facet normal 0.0 0.0 1.0
  outer loop
    vertex 125.0 62.0 3.9999999999999996
    vertex 2.7071067811865435 60.70710678118655 3.9999999999999996
    vertex 2.866025403784434 60.5 3.9999999999999996
  endloop
endfacet
facet normal 0.0 0.0 1.0
  outer loop
    vertex 125.0 62.0 3.9999999999999996
    vertex 2.866025403784434 60.5 3.9999999999999996
    vertex 2.965925826289064 60.25881904510253 3.9999999999999996
  endloop
endfacet
facet normal 0.0 0.0 1.0
  outer loop
    vertex 125.0 62.0 3.9999999999999996
    vertex 2.965925826289064 60.25881904510253 3.9999999999999996
    vertex 2.999999999999996 60.0 3.9999999999999996
  endloop
endfacet
facet normal 0.0 0.0 1.0
  outer loop
    vertex 125.0 62.0 3.9999999999999996
    vertex 2.999999999999996 60.0 3.9999999999999996
    vertex 122.5 60.866025403784434 3.9999999999999996
  endloop
endfacet
facet normal 0.0 0.0 1.0
  outer loop
    vertex 122.5 60.866025403784434 3.9999999999999996
    vertex 2.999999999999996 60.0 3.9999999999999996
    vertex 2.9999999999999996 -3.0 3.9999999999999996
  endloop
endfacet
facet normal 0.0 0.0 1.0
  outer loop
    vertex 122.5 60.866025403784434 3.9999999999999996
    vertex 2.9999999999999996 -3.0 3.9999999999999996
    vertex 122.29289321881345 60.70710678118655 3.9999999999999996
  endloop
endfacet
facet normal 0.0 0.0 1.0
  outer loop
    vertex 122.29289321881345 60.70710678118655 3.9999999999999996
    vertex 2.9999999999999996 -3.0 3.9999999999999996
    vertex 122.13397459621557 60.5 3.9999999999999996
  endloop
endfacet
facet normal 0.0 0.0 1.0
  outer loop
    vertex 122.13397459621557 60.5 3.9999999999999996
    vertex 2.9999999999999996 -3.0 3.9999999999999996
    vertex 122.03407417371093 60.25881904510253 3.9999999999999996
  endloop
endfacet
facet normal 0.0 0.0 1.0
  outer loop
    vertex 122.03407417371093 60.25881904510253 3.9999999999999996
    vertex 2.9999999999999996 -3.0 3.9999999999999996
    vertex 122.0 60.0 3.9999999999999996
  endloop
endfacet
facet normal 0.0 0.0 1.0
  outer loop
    vertex 122.0 60.0 3.9999999999999996
    vertex 2.9999999999999996 -3.0 3.9999999999999996
    vertex 122.0 -3.0 3.9999999999999996
  endloop
endfacet
facet normal 0.0 0.0 1.0
  outer loop
    vertex 125.0 62.0 3.9999999999999996
    vertex 122.5 60.866025403784434 3.9999999999999996
    vertex 122.74118095489749 60.96592582628907 3.9999999999999996
  endloop
endfacet
facet normal 0.0 0.0 1.0
  outer loop
    vertex 125.0 62.0 3.9999999999999996
    vertex 122.74118095489749 60.96592582628907 3.9999999999999996
    vertex 123.0 61.0 3.9999999999999996
  endloop
endfacet
facet normal 0.0 0.0 1.0
  outer loop
    vertex 125.0 62.0 3.9999999999999996
    vertex 123.0 61.0 3.9999999999999996
    vertex 123.25881904510251 60.965925826289066 3.9999999999999996
  endloop
endfacet
facet normal 0.0 0.0 1.0
  outer loop
    vertex 125.0 62.0 3.9999999999999996
    vertex 123.25881904510251 60.965925826289066 3.9999999999999996
    vertex 123.5 60.866025403784434 3.9999999999999996
  endloop
endfacet
facet normal 0.0 0.0 1.0
  outer loop
    vertex 125.0 62.0 3.9999999999999996
    vertex 123.5 60.866025403784434 3.9999999999999996
    vertex 123.70710678118655 60.70710678118655 3.9999999999999996
  endloop
endfacet
facet normal 0.0 0.0 1.0
  outer loop
    vertex 125.0 62.0 3.9999999999999996
    vertex 123.70710678118655 60.70710678118655 3.9999999999999996
    vertex 123.86602540378443 60.5 3.9999999999999996
  endloop
endfacet
facet normal 0.0 0.0 1.0
  outer loop
    vertex 125.0 62.0 3.9999999999999996
    vertex 123.86602540378443 60.5 3.9999999999999996
    vertex 123.96592582628907 60.25881904510253 3.9999999999999996
  endloop
endfacet
facet normal 0.0 0.0 1.0
  outer loop
    vertex 125.0 62.0 3.9999999999999996
    vertex 123.96592582628907 60.25881904510253 3.9999999999999996
    vertex 124.0 60.0 3.9999999999999996
  endloop
endfacet
facet normal 0.0 0.0 1.0
  outer loop
    vertex 125.0 62.0 3.9999999999999996
    vertex 124.0 60.0 3.9999999999999996
    vertex 125.0 -4.999999999999999 3.9999999999999996
  endloop
endfacet
facet normal 0.0 0.0 1.0
  outer loop
    vertex 122.03407417371093 -2.7411809548974797 3.9999999999999996
    vertex 122.0 60.0 3.9999999999999996
    vertex 122.0 -3.0 3.9999999999999996
  endloop
endfacet
facet normal 0.0 0.0 1.0
  outer loop
    vertex 122.0 60.0 3.9999999999999996
    vertex 122.03407417371093 -2.7411809548974797 3.9999999999999996
    vertex 122.03407417371093 59.74118095489748 3.9999999999999996
  endloop
endfacet
facet normal 0.0 0.0 1.0
  outer loop
    vertex 122.03407417371093 59.74118095489748 3.9999999999999996
    vertex 122.03407417371093 -2.7411809548974797 3.9999999999999996
    vertex 122.13397459621557 -2.500000000000001 3.9999999999999996
  endloop
endfacet
facet normal 0.0 0.0 1.0
  outer loop
    vertex 122.03407417371093 59.74118095489748 3.9999999999999996
    vertex 122.13397459621557 -2.500000000000001 3.9999999999999996
    vertex 122.13397459621557 59.50000000000001 3.9999999999999996
  endloop
endfacet
facet normal 0.0 0.0 1.0
  outer loop
    vertex 122.13397459621557 59.50000000000001 3.9999999999999996
    vertex 122.13397459621557 -2.500000000000001 3.9999999999999996
    vertex 122.29289321881345 -2.292893218813454 3.9999999999999996
  endloop
endfacet
facet normal 0.0 0.0 1.0
  outer loop
    vertex 122.13397459621557 59.50000000000001 3.9999999999999996
    vertex 122.29289321881345 -2.292893218813454 3.9999999999999996
    vertex 122.29289321881345 59.292893218813454 3.9999999999999996
  endloop
endfacet
facet normal 0.0 0.0 1.0
  outer loop
    vertex 122.29289321881345 59.292893218813454 3.9999999999999996
    vertex 122.29289321881345 -2.292893218813454 3.9999999999999996
    vertex 122.5 -2.1339745962155625 3.9999999999999996
  endloop
endfacet
facet normal 0.0 0.0 1.0
  outer loop
    vertex 122.29289321881345 59.292893218813454 3.9999999999999996
    vertex 122.5 -2.1339745962155625 3.9999999999999996
    vertex 122.5 59.133974596215566 3.9999999999999996
  endloop
endfacet
facet normal 0.0 0.0 1.0
  outer loop
    vertex 122.5 59.133974596215566 3.9999999999999996
    vertex 122.5 -2.1339745962155625 3.9999999999999996
    vertex 122.74118095489749 -2.0340741737109336 3.9999999999999996
  endloop
endfacet
facet normal 0.0 0.0 1.0
  outer loop
    vertex 122.5 59.133974596215566 3.9999999999999996
    vertex 122.74118095489749 -2.0340741737109336 3.9999999999999996
    vertex 122.74118095489749 59.03407417371094 3.9999999999999996
  endloop
endfacet
facet normal 0.0 0.0 1.0
  outer loop
    vertex 122.74118095489749 59.03407417371094 3.9999999999999996
    vertex 122.74118095489749 -2.0340741737109336 3.9999999999999996
    vertex 123.0 -2.0000000000000018 3.9999999999999996
  endloop
endfacet
facet normal 0.0 0.0 1.0
  outer loop
    vertex 122.74118095489749 59.03407417371094 3.9999999999999996
    vertex 123.0 -2.0000000000000018 3.9999999999999996
    vertex 123.0 59.00000000000001 3.9999999999999996
  endloop
endfacet
facet normal 0.0 0.0 1.0
  outer loop
    vertex 123.0 59.00000000000001 3.9999999999999996
    vertex 123.0 -2.0000000000000018 3.9999999999999996
    vertex 123.25881904510251 -2.034074173710933 3.9999999999999996
  endloop
endfacet
facet normal 0.0 0.0 1.0
  outer loop
    vertex 123.0 59.00000000000001 3.9999999999999996
    vertex 123.25881904510251 -2.034074173710933 3.9999999999999996
    vertex 123.25881904510251 59.034074173710934 3.9999999999999996
  endloop
endfacet
facet normal 0.0 0.0 1.0
  outer loop
    vertex 123.25881904510251 59.034074173710934 3.9999999999999996
    vertex 123.25881904510251 -2.034074173710933 3.9999999999999996
    vertex 123.5 -2.1339745962155625 3.9999999999999996
  endloop
endfacet
facet normal 0.0 0.0 1.0
  outer loop
    vertex 123.25881904510251 59.034074173710934 3.9999999999999996
    vertex 123.5 -2.1339745962155625 3.9999999999999996
    vertex 123.5 59.133974596215566 3.9999999999999996
  endloop
endfacet
facet normal 0.0 0.0 1.0
  outer loop
    vertex 123.5 59.133974596215566 3.9999999999999996
    vertex 123.5 -2.1339745962155625 3.9999999999999996
    vertex 123.70710678118655 -2.292893218813454 3.9999999999999996
  endloop
endfacet
facet normal 0.0 0.0 1.0
  outer loop
    vertex 123.5 59.133974596215566 3.9999999999999996
    vertex 123.70710678118655 -2.292893218813454 3.9999999999999996
    vertex 123.70710678118655 59.292893218813454 3.9999999999999996
  endloop
endfacet
facet normal 0.0 0.0 1.0
  outer loop
    vertex 123.70710678118655 59.292893218813454 3.9999999999999996
    vertex 123.70710678118655 -2.292893218813454 3.9999999999999996
    vertex 123.86602540378443 -2.5000000000000004 3.9999999999999996
  endloop
endfacet
facet normal 0.0 0.0 1.0
  outer loop
    vertex 123.70710678118655 59.292893218813454 3.9999999999999996
    vertex 123.86602540378443 -2.5000000000000004 3.9999999999999996
    vertex 123.86602540378443 59.50000000000001 3.9999999999999996
  endloop
endfacet
facet normal 0.0 0.0 1.0
  outer loop
    vertex 123.86602540378443 59.50000000000001 3.9999999999999996
    vertex 123.86602540378443 -2.5000000000000004 3.9999999999999996
    vertex 123.96592582628907 -2.7411809548974793 3.9999999999999996
  endloop
endfacet
facet normal 0.0 0.0 1.0
  outer loop
    vertex 123.86602540378443 59.50000000000001 3.9999999999999996
    vertex 123.96592582628907 -2.7411809548974793 3.9999999999999996
    vertex 123.96592582628907 59.74118095489748 3.9999999999999996
  endloop
endfacet
facet normal 0.0 0.0 1.0
  outer loop
    vertex 123.96592582628907 59.74118095489748 3.9999999999999996
    vertex 123.96592582628907 -2.7411809548974793 3.9999999999999996
    vertex 124.0 -3.0 3.9999999999999996
  endloop
endfacet
facet normal 0.0 0.0 1.0
  outer loop
    vertex 123.96592582628907 59.74118095489748 3.9999999999999996
    vertex 124.0 -3.0 3.9999999999999996
    vertex 124.0 60.0 3.9999999999999996
  endloop
endfacet
facet normal -0.38268343236507063 -0.9238795325112947 -0.0
  outer loop
    vertex 123.5 60.866025403784434 3.9999999999999996
    vertex 123.25881904510251 60.965925826289066 0.0
    vertex 123.5 60.866025403784434 0.0
  endloop
endfacet
facet normal -0.38268343236507063 -0.9238795325112947 -0.0
  outer loop
    vertex 123.25881904510251 60.965925826289066 0.0
    vertex 123.5 60.866025403784434 3.9999999999999996
    vertex 123.25881904510251 60.965925826289066 3.9999999999999996
  endloop
endfacet
facet normal -0.9238795325112884 -0.38268343236508595 -0.0
  outer loop
    vertex 123.86602540378443 60.5 3.9999999999999996
    vertex 123.96592582628907 60.25881904510253 0.0
    vertex 123.96592582628907 60.25881904510253 3.9999999999999996
  endloop
endfacet
facet normal -0.9238795325112884 -0.38268343236508595 -0.0
  outer loop
    vertex 123.96592582628907 60.25881904510253 0.0
    vertex 123.86602540378443 60.5 3.9999999999999996
    vertex 123.86602540378443 60.5 0.0
  endloop
endfacet
facet normal -0.1305261922200732 0.9914448613738076 0.0
  outer loop
    vertex 1.999999999999999 59.00000000000001 3.9999999999999996
    vertex 2.258819045102519 59.03407417371094 0.0
    vertex 1.999999999999999 59.00000000000001 0.0
  endloop
endfacet
facet normal -0.1305261922200732 0.9914448613738076 0.0
  outer loop
    vertex 2.258819045102519 59.03407417371094 0.0
    vertex 1.999999999999999 59.00000000000001 3.9999999999999996
    vertex 2.258819045102519 59.03407417371094 3.9999999999999996
  endloop
endfacet
facet normal -1.0 0.0 0.0
  outer loop
    vertex 0.0 62.0 3.9999999999999996
    vertex 0.0 -4.999999999999999 0.0
    vertex 0.0 -4.999999999999999 3.9999999999999996
  endloop
endfacet
facet normal -1.0 0.0 0.0
  outer loop
    vertex 0.0 -4.999999999999999 0.0
    vertex 0.0 62.0 3.9999999999999996
    vertex 0.0 62.0 0.0
  endloop
endfacet
facet normal -0.38268343236510755 0.9238795325112795 0.0
  outer loop
    vertex 123.25881904510251 59.034074173710934 3.9999999999999996
    vertex 123.5 59.133974596215566 0.0
    vertex 123.25881904510251 59.034074173710934 0.0
  endloop
endfacet
facet normal -0.38268343236510755 0.9238795325112795 0.0
  outer loop
    vertex 123.5 59.133974596215566 0.0
    vertex 123.25881904510251 59.034074173710934 3.9999999999999996
    vertex 123.5 59.133974596215566 3.9999999999999996
  endloop
endfacet
facet normal -0.0 -1.0 -0.0
  outer loop
    vertex 125.0 -4.999999999999999 3.9999999999999996
    vertex 0.0 -4.999999999999999 0.0
    vertex 125.0 -4.999999999999999 0.0
  endloop
endfacet
facet normal -0.0 -1.0 -0.0
  outer loop
    vertex 0.0 -4.999999999999999 0.0
    vertex 125.0 -4.999999999999999 3.9999999999999996
    vertex 0.0 -4.999999999999999 3.9999999999999996
  endloop
endfacet
facet normal 0.13052619222007758 0.991444861373807 0.0
  outer loop
    vertex 122.74118095489749 59.03407417371094 3.9999999999999996
    vertex 123.0 59.00000000000001 0.0
    vertex 122.74118095489749 59.03407417371094 0.0
  endloop
endfacet
facet normal 0.13052619222007758 0.991444861373807 0.0
  outer loop
    vertex 123.0 59.00000000000001 0.0
    vertex 122.74118095489749 59.03407417371094 3.9999999999999996
    vertex 123.0 59.00000000000001 3.9999999999999996
  endloop
endfacet
facet normal -0.6087614290086991 0.7933533402912518 0.0
  outer loop
    vertex 123.5 59.133974596215566 3.9999999999999996
    vertex 123.70710678118655 59.292893218813454 0.0
    vertex 123.5 59.133974596215566 0.0
  endloop
endfacet
facet normal -0.6087614290086991 0.7933533402912518 0.0
  outer loop
    vertex 123.70710678118655 59.292893218813454 0.0
    vertex 123.5 59.133974596215566 3.9999999999999996
    vertex 123.70710678118655 59.292893218813454 3.9999999999999996
  endloop
endfacet
facet normal -0.13052619222003511 0.9914448613738126 0.0
  outer loop
    vertex 123.0 59.00000000000001 3.9999999999999996
    vertex 123.25881904510251 59.034074173710934 0.0
    vertex 123.0 59.00000000000001 0.0
  endloop
endfacet
facet normal -0.13052619222003511 0.9914448613738126 0.0
  outer loop
    vertex 123.25881904510251 59.034074173710934 0.0
    vertex 123.0 59.00000000000001 3.9999999999999996
    vertex 123.25881904510251 59.034074173710934 3.9999999999999996
  endloop
endfacet
facet normal 0.38268343236507063 0.9238795325112947 0.0
  outer loop
    vertex 122.5 59.133974596215566 3.9999999999999996
    vertex 122.74118095489749 59.03407417371094 0.0
    vertex 122.5 59.133974596215566 0.0
  endloop
endfacet
facet normal 0.38268343236507063 0.9238795325112947 0.0
  outer loop
    vertex 122.74118095489749 59.03407417371094 0.0
    vertex 122.5 59.133974596215566 3.9999999999999996
    vertex 122.74118095489749 59.03407417371094 3.9999999999999996
  endloop
endfacet
facet normal 0.9914448613738104 0.13052619222005163 0.0
  outer loop
    vertex 0.9999999999999998 -3.0 0.0
    vertex 1.0340741737109316 -3.2588190451025207 3.9999999999999996
    vertex 1.0340741737109316 -3.2588190451025207 0.0
  endloop
endfacet
facet normal 0.9914448613738104 0.13052619222005163 0.0
  outer loop
    vertex 1.0340741737109316 -3.2588190451025207 3.9999999999999996
    vertex 0.9999999999999998 -3.0 0.0
    vertex 0.9999999999999998 -3.0 3.9999999999999996
  endloop
endfacet
facet normal 0.9914448613738105 -0.1305261922200513 0.0
  outer loop
    vertex 1.0340741737109314 -2.7411809548974797 0.0
    vertex 0.9999999999999998 -3.0 3.9999999999999996
    vertex 0.9999999999999998 -3.0 0.0
  endloop
endfacet
facet normal 0.9914448613738105 -0.1305261922200513 0.0
  outer loop
    vertex 0.9999999999999998 -3.0 3.9999999999999996
    vertex 1.0340741737109314 -2.7411809548974797 0.0
    vertex 1.0340741737109314 -2.7411809548974797 3.9999999999999996
  endloop
endfacet
facet normal -0.9914448613738104 0.13052619222005163 0.0
  outer loop
    vertex 2.9999999999999996 -3.0 3.9999999999999996
    vertex 2.9659258262890678 -3.2588190451025207 0.0
    vertex 2.9659258262890678 -3.2588190451025207 3.9999999999999996
  endloop
endfacet
facet normal -0.9914448613738104 0.13052619222005163 0.0
  outer loop
    vertex 2.9659258262890678 -3.2588190451025207 0.0
    vertex 2.9999999999999996 -3.0 3.9999999999999996
    vertex 2.9999999999999996 -3.0 0.0
  endloop
endfacet
facet normal 0.3826834323650892 0.923879532511287 0.0
  outer loop
    vertex 1.5 -3.866025403784439 3.9999999999999996
    vertex 1.7411809548974788 -3.9659258262890678 0.0
    vertex 1.5 -3.866025403784439 0.0
  endloop
endfacet
facet normal 0.3826834323650892 0.923879532511287 0.0
  outer loop
    vertex 1.7411809548974788 -3.9659258262890678 0.0
    vertex 1.5 -3.866025403784439 3.9999999999999996
    vertex 1.7411809548974788 -3.9659258262890678 3.9999999999999996
  endloop
endfacet
facet normal 0.3826834323650904 -0.9238795325112865 0.0
  outer loop
    vertex 1.7411809548974782 -2.034074173710932 3.9999999999999996
    vertex 1.4999999999999991 -2.133974596215561 0.0
    vertex 1.7411809548974782 -2.034074173710932 0.0
  endloop
endfacet
facet normal 0.3826834323650904 -0.9238795325112865 0.0
  outer loop
    vertex 1.4999999999999991 -2.133974596215561 0.0
    vertex 1.7411809548974782 -2.034074173710932 3.9999999999999996
    vertex 1.4999999999999991 -2.133974596215561 3.9999999999999996
  endloop
endfacet
facet normal -0.7933533402912347 -0.6087614290087211 -0.0
  outer loop
    vertex 2.7071067811865466 -2.292893218813452 3.9999999999999996
    vertex 2.8660254037844375 -2.499999999999999 0.0
    vertex 2.8660254037844375 -2.499999999999999 3.9999999999999996
  endloop
endfacet
facet normal -0.7933533402912347 -0.6087614290087211 -0.0
  outer loop
    vertex 2.8660254037844375 -2.499999999999999 0.0
    vertex 2.7071067811865466 -2.292893218813452 3.9999999999999996
    vertex 2.7071067811865466 -2.292893218813452 0.0
  endloop
endfacet
facet normal -0.60876142900872 -0.7933533402912356 -0.0
  outer loop
    vertex 2.7071067811865466 -2.292893218813452 3.9999999999999996
    vertex 2.4999999999999987 -2.133974596215561 0.0
    vertex 2.7071067811865466 -2.292893218813452 0.0
  endloop
endfacet
facet normal -0.60876142900872 -0.7933533402912356 -0.0
  outer loop
    vertex 2.4999999999999987 -2.133974596215561 0.0
    vertex 2.7071067811865466 -2.292893218813452 3.9999999999999996
    vertex 2.4999999999999987 -2.133974596215561 3.9999999999999996
  endloop
endfacet
facet normal 0.9238795325112867 0.3826834323650902 0.0
  outer loop
    vertex 1.0340741737109316 -3.2588190451025207 0.0
    vertex 1.1339745962155612 -3.5 3.9999999999999996
    vertex 1.1339745962155612 -3.5 0.0
  endloop
endfacet
facet normal 0.9238795325112867 0.3826834323650902 0.0
  outer loop
    vertex 1.1339745962155612 -3.5 3.9999999999999996
    vertex 1.0340741737109316 -3.2588190451025207 0.0
    vertex 1.0340741737109316 -3.2588190451025207 3.9999999999999996
  endloop
endfacet
facet normal 0.7933533402912354 0.6087614290087205 0.0
  outer loop
    vertex 1.1339745962155612 -3.5 0.0
    vertex 1.292893218813452 -3.7071067811865475 3.9999999999999996
    vertex 1.292893218813452 -3.7071067811865475 0.0
  endloop
endfacet
facet normal 0.7933533402912354 0.6087614290087205 0.0
  outer loop
    vertex 1.292893218813452 -3.7071067811865475 3.9999999999999996
    vertex 1.1339745962155612 -3.5 0.0
    vertex 1.1339745962155612 -3.5 3.9999999999999996
  endloop
endfacet
facet normal -0.3826834323650895 -0.923879532511287 -0.0
  outer loop
    vertex 2.4999999999999987 -2.133974596215561 3.9999999999999996
    vertex 2.25881904510252 -2.034074173710932 0.0
    vertex 2.4999999999999987 -2.133974596215561 0.0
  endloop
endfacet
facet normal -0.3826834323650895 -0.923879532511287 -0.0
  outer loop
    vertex 2.25881904510252 -2.034074173710932 0.0
    vertex 2.4999999999999987 -2.133974596215561 3.9999999999999996
    vertex 2.25881904510252 -2.034074173710932 3.9999999999999996
  endloop
endfacet
facet normal -0.9914448613738104 -0.13052619222005263 -0.0
  outer loop
    vertex 2.9659258262890673 -2.741180954897478 3.9999999999999996
    vertex 2.9999999999999996 -3.0 0.0
    vertex 2.9999999999999996 -3.0 3.9999999999999996
  endloop
endfacet
facet normal -0.9914448613738104 -0.13052619222005263 -0.0
  outer loop
    vertex 2.9999999999999996 -3.0 0.0
    vertex 2.9659258262890673 -2.741180954897478 3.9999999999999996
    vertex 2.9659258262890673 -2.741180954897478 0.0
  endloop
endfacet
facet normal 0.7933533402912357 -0.6087614290087201 0.0
  outer loop
    vertex 1.2928932188134517 -2.2928932188134525 0.0
    vertex 1.133974596215561 -2.5 3.9999999999999996
    vertex 1.133974596215561 -2.5 0.0
  endloop
endfacet
facet normal 0.7933533402912357 -0.6087614290087201 0.0
  outer loop
    vertex 1.133974596215561 -2.5 3.9999999999999996
    vertex 1.2928932188134517 -2.2928932188134525 0.0
    vertex 1.2928932188134517 -2.2928932188134525 3.9999999999999996
  endloop
endfacet
facet normal 0.9238795325112872 -0.38268343236508917 0.0
  outer loop
    vertex 1.133974596215561 -2.5 0.0
    vertex 1.0340741737109314 -2.7411809548974797 3.9999999999999996
    vertex 1.0340741737109314 -2.7411809548974797 0.0
  endloop
endfacet
facet normal 0.9238795325112872 -0.38268343236508917 0.0
  outer loop
    vertex 1.0340741737109314 -2.7411809548974797 3.9999999999999996
    vertex 1.133974596215561 -2.5 0.0
    vertex 1.133974596215561 -2.5 3.9999999999999996
  endloop
endfacet
facet normal -0.9238795325112867 0.3826834323650902 0.0
  outer loop
    vertex 2.9659258262890678 -3.2588190451025207 3.9999999999999996
    vertex 2.866025403784438 -3.5 0.0
    vertex 2.866025403784438 -3.5 3.9999999999999996
  endloop
endfacet
facet normal -0.9238795325112867 0.3826834323650902 0.0
  outer loop
    vertex 2.866025403784438 -3.5 0.0
    vertex 2.9659258262890678 -3.2588190451025207 3.9999999999999996
    vertex 2.9659258262890678 -3.2588190451025207 0.0
  endloop
endfacet
facet normal -0.9238795325112864 -0.3826834323650906 -0.0
  outer loop
    vertex 2.8660254037844375 -2.499999999999999 3.9999999999999996
    vertex 2.9659258262890673 -2.741180954897478 0.0
    vertex 2.9659258262890673 -2.741180954897478 3.9999999999999996
  endloop
endfacet
facet normal -0.9238795325112864 -0.3826834323650906 -0.0
  outer loop
    vertex 2.9659258262890673 -2.741180954897478 0.0
    vertex 2.8660254037844375 -2.499999999999999 3.9999999999999996
    vertex 2.8660254037844375 -2.499999999999999 0.0
  endloop
endfacet
facet normal 0.13052619222005163 -0.9914448613738104 0.0
  outer loop
    vertex 1.9999999999999991 -1.9999999999999998 3.9999999999999996
    vertex 1.7411809548974782 -2.034074173710932 0.0
    vertex 1.9999999999999991 -1.9999999999999998 0.0
  endloop
endfacet
facet normal 0.13052619222005163 -0.9914448613738104 0.0
  outer loop
    vertex 1.7411809548974782 -2.034074173710932 0.0
    vertex 1.9999999999999991 -1.9999999999999998 3.9999999999999996
    vertex 1.7411809548974782 -2.034074173710932 3.9999999999999996
  endloop
endfacet
facet normal -0.1305261922200518 -0.9914448613738104 -0.0
  outer loop
    vertex 2.25881904510252 -2.034074173710932 3.9999999999999996
    vertex 1.9999999999999991 -1.9999999999999998 0.0
    vertex 2.25881904510252 -2.034074173710932 0.0
  endloop
endfacet
facet normal -0.1305261922200518 -0.9914448613738104 -0.0
  outer loop
    vertex 1.9999999999999991 -1.9999999999999998 0.0
    vertex 2.25881904510252 -2.034074173710932 3.9999999999999996
    vertex 1.9999999999999991 -1.9999999999999998 3.9999999999999996
  endloop
endfacet
facet normal 0.608761429008721 -0.7933533402912349 0.0
  outer loop
    vertex 1.4999999999999991 -2.133974596215561 3.9999999999999996
    vertex 1.2928932188134517 -2.2928932188134525 0.0
    vertex 1.4999999999999991 -2.133974596215561 0.0
  endloop
endfacet
facet normal 0.608761429008721 -0.7933533402912349 0.0
  outer loop
    vertex 1.2928932188134517 -2.2928932188134525 0.0
    vertex 1.4999999999999991 -2.133974596215561 3.9999999999999996
    vertex 1.2928932188134517 -2.2928932188134525 3.9999999999999996
  endloop
endfacet
facet normal 0.6087614290087208 0.7933533402912353 0.0
  outer loop
    vertex 1.292893218813452 -3.7071067811865475 3.9999999999999996
    vertex 1.5 -3.866025403784439 0.0
    vertex 1.292893218813452 -3.7071067811865475 0.0
  endloop
endfacet
facet normal 0.6087614290087208 0.7933533402912353 0.0
  outer loop
    vertex 1.5 -3.866025403784439 0.0
    vertex 1.292893218813452 -3.7071067811865475 3.9999999999999996
    vertex 1.5 -3.866025403784439 3.9999999999999996
  endloop
endfacet
facet normal -0.7933533402912354 0.6087614290087205 0.0
  outer loop
    vertex 2.866025403784438 -3.5 3.9999999999999996
    vertex 2.707106781186547 -3.7071067811865475 0.0
    vertex 2.707106781186547 -3.7071067811865475 3.9999999999999996
  endloop
endfacet
facet normal -0.7933533402912354 0.6087614290087205 0.0
  outer loop
    vertex 2.707106781186547 -3.7071067811865475 0.0
    vertex 2.866025403784438 -3.5 3.9999999999999996
    vertex 2.866025403784438 -3.5 0.0
  endloop
endfacet
facet normal -0.13052619222005163 0.9914448613738104 0.0
  outer loop
    vertex 1.9999999999999996 -3.9999999999999996 3.9999999999999996
    vertex 2.2588190451025203 -3.9659258262890678 0.0
    vertex 1.9999999999999996 -3.9999999999999996 0.0
  endloop
endfacet
facet normal -0.13052619222005163 0.9914448613738104 0.0
  outer loop
    vertex 2.2588190451025203 -3.9659258262890678 0.0
    vertex 1.9999999999999996 -3.9999999999999996 3.9999999999999996
    vertex 2.2588190451025203 -3.9659258262890678 3.9999999999999996
  endloop
endfacet
facet normal -0.6087614290087197 0.7933533402912359 0.0
  outer loop
    vertex 2.4999999999999996 -3.866025403784438 3.9999999999999996
    vertex 2.707106781186547 -3.7071067811865475 0.0
    vertex 2.4999999999999996 -3.866025403784438 0.0
  endloop
endfacet
facet normal -0.6087614290087197 0.7933533402912359 0.0
  outer loop
    vertex 2.707106781186547 -3.7071067811865475 0.0
    vertex 2.4999999999999996 -3.866025403784438 3.9999999999999996
    vertex 2.707106781186547 -3.7071067811865475 3.9999999999999996
  endloop
endfacet
facet normal -0.3826834323650913 0.9238795325112861 0.0
  outer loop
    vertex 2.2588190451025203 -3.9659258262890678 3.9999999999999996
    vertex 2.4999999999999996 -3.866025403784438 0.0
    vertex 2.2588190451025203 -3.9659258262890678 0.0
  endloop
endfacet
facet normal -0.3826834323650913 0.9238795325112861 0.0
  outer loop
    vertex 2.4999999999999996 -3.866025403784438 0.0
    vertex 2.2588190451025203 -3.9659258262890678 3.9999999999999996
    vertex 2.4999999999999996 -3.866025403784438 3.9999999999999996
  endloop
endfacet
facet normal 0.1305261922200518 0.9914448613738104 0.0
  outer loop
    vertex 1.7411809548974788 -3.9659258262890678 3.9999999999999996
    vertex 1.9999999999999996 -3.9999999999999996 0.0
    vertex 1.7411809548974788 -3.9659258262890678 0.0
  endloop
endfacet
facet normal 0.1305261922200518 0.9914448613738104 0.0
  outer loop
    vertex 1.9999999999999996 -3.9999999999999996 0.0
    vertex 1.7411809548974788 -3.9659258262890678 3.9999999999999996
    vertex 1.9999999999999996 -3.9999999999999996 3.9999999999999996
  endloop
endfacet
facet normal 0.7933533402912467 0.6087614290087057 0.0
  outer loop
    vertex 122.13397459621557 -3.499999999999999 0.0
    vertex 122.29289321881345 -3.7071067811865457 3.9999999999999996
    vertex 122.29289321881345 -3.7071067811865457 0.0
  endloop
endfacet
facet normal 0.7933533402912467 0.6087614290087057 0.0
  outer loop
    vertex 122.29289321881345 -3.7071067811865457 3.9999999999999996
    vertex 122.13397459621557 -3.499999999999999 0.0
    vertex 122.13397459621557 -3.499999999999999 3.9999999999999996
  endloop
endfacet
facet normal 0.38268343236507757 0.9238795325112918 0.0
  outer loop
    vertex 122.5 -3.866025403784437 3.9999999999999996
    vertex 122.74118095489749 -3.9659258262890664 0.0
    vertex 122.5 -3.866025403784437 0.0
  endloop
endfacet
facet normal 0.38268343236507757 0.9238795325112918 0.0
  outer loop
    vertex 122.74118095489749 -3.9659258262890664 0.0
    vertex 122.5 -3.866025403784437 3.9999999999999996
    vertex 122.74118095489749 -3.9659258262890664 3.9999999999999996
  endloop
endfacet
facet normal 0.6087614290087153 -0.7933533402912394 0.0
  outer loop
    vertex 122.5 -2.1339745962155625 3.9999999999999996
    vertex 122.29289321881345 -2.292893218813454 0.0
    vertex 122.5 -2.1339745962155625 0.0
  endloop
endfacet
facet normal 0.6087614290087153 -0.7933533402912394 0.0
  outer loop
    vertex 122.29289321881345 -2.292893218813454 0.0
    vertex 122.5 -2.1339745962155625 3.9999999999999996
    vertex 122.29289321881345 -2.292893218813454 3.9999999999999996
  endloop
endfacet
facet normal 0.9914448613738076 -0.1305261922200732 0.0
  outer loop
    vertex 122.03407417371093 -2.7411809548974797 0.0
    vertex 122.0 -3.0 3.9999999999999996
    vertex 122.0 -3.0 0.0
  endloop
endfacet
facet normal 0.9914448613738076 -0.1305261922200732 0.0
  outer loop
    vertex 122.0 -3.0 3.9999999999999996
    vertex 122.03407417371093 -2.7411809548974797 0.0
    vertex 122.03407417371093 -2.7411809548974797 3.9999999999999996
  endloop
endfacet
facet normal -0.13052619222005898 0.9914448613738094 0.0
  outer loop
    vertex 123.0 -3.9999999999999982 3.9999999999999996
    vertex 123.25881904510251 -3.965925826289066 0.0
    vertex 123.0 -3.9999999999999982 0.0
  endloop
endfacet
facet normal -0.13052619222005898 0.9914448613738094 0.0
  outer loop
    vertex 123.25881904510251 -3.965925826289066 0.0
    vertex 123.0 -3.9999999999999982 3.9999999999999996
    vertex 123.25881904510251 -3.965925826289066 3.9999999999999996
  endloop
endfacet
facet normal 0.9914448613738076 0.13052619222007286 0.0
  outer loop
    vertex 122.0 -3.0 0.0
    vertex 122.03407417371093 -3.2588190451025207 3.9999999999999996
    vertex 122.03407417371093 -3.2588190451025207 0.0
  endloop
endfacet
facet normal 0.9914448613738076 0.13052619222007286 0.0
  outer loop
    vertex 122.03407417371093 -3.2588190451025207 3.9999999999999996
    vertex 122.0 -3.0 0.0
    vertex 122.0 -3.0 3.9999999999999996
  endloop
endfacet
facet normal 0.9238795325112895 0.382683432365083 0.0
  outer loop
    vertex 122.03407417371093 -3.2588190451025207 0.0
    vertex 122.13397459621557 -3.499999999999999 3.9999999999999996
    vertex 122.13397459621557 -3.499999999999999 0.0
  endloop
endfacet
facet normal 0.9238795325112895 0.382683432365083 0.0
  outer loop
    vertex 122.13397459621557 -3.499999999999999 3.9999999999999996
    vertex 122.03407417371093 -3.2588190451025207 0.0
    vertex 122.03407417371093 -3.2588190451025207 3.9999999999999996
  endloop
endfacet
facet normal -0.6087614290087143 0.7933533402912399 0.0
  outer loop
    vertex 123.5 -3.8660254037844366 3.9999999999999996
    vertex 123.70710678118655 -3.7071067811865457 0.0
    vertex 123.5 -3.8660254037844366 0.0
  endloop
endfacet
facet normal -0.6087614290087143 0.7933533402912399 0.0
  outer loop
    vertex 123.70710678118655 -3.7071067811865457 0.0
    vertex 123.5 -3.8660254037844366 3.9999999999999996
    vertex 123.70710678118655 -3.7071067811865457 3.9999999999999996
  endloop
endfacet
facet normal -0.7933533402912477 0.6087614290087043 0.0
  outer loop
    vertex 123.86602540378443 -3.4999999999999987 3.9999999999999996
    vertex 123.70710678118655 -3.7071067811865457 0.0
    vertex 123.70710678118655 -3.7071067811865457 3.9999999999999996
  endloop
endfacet
facet normal -0.7933533402912477 0.6087614290087043 0.0
  outer loop
    vertex 123.70710678118655 -3.7071067811865457 0.0
    vertex 123.86602540378443 -3.4999999999999987 3.9999999999999996
    vertex 123.86602540378443 -3.4999999999999987 0.0
  endloop
endfacet
facet normal 0.6087614290087161 0.7933533402912386 0.0
  outer loop
    vertex 122.29289321881345 -3.7071067811865457 3.9999999999999996
    vertex 122.5 -3.866025403784437 0.0
    vertex 122.29289321881345 -3.7071067811865457 0.0
  endloop
endfacet
facet normal 0.6087614290087161 0.7933533402912386 0.0
  outer loop
    vertex 122.5 -3.866025403784437 0.0
    vertex 122.29289321881345 -3.7071067811865457 3.9999999999999996
    vertex 122.5 -3.866025403784437 3.9999999999999996
  endloop
endfacet
facet normal -0.38268343236507757 0.9238795325112918 0.0
  outer loop
    vertex 123.25881904510251 -3.965925826289066 3.9999999999999996
    vertex 123.5 -3.8660254037844366 0.0
    vertex 123.25881904510251 -3.965925826289066 0.0
  endloop
endfacet
facet normal -0.38268343236507757 0.9238795325112918 0.0
  outer loop
    vertex 123.5 -3.8660254037844366 0.0
    vertex 123.25881904510251 -3.965925826289066 3.9999999999999996
    vertex 123.5 -3.8660254037844366 3.9999999999999996
  endloop
endfacet
facet normal -0.9914448613738077 -0.13052619222007306 -0.0
  outer loop
    vertex 123.96592582628907 -2.7411809548974793 3.9999999999999996
    vertex 124.0 -3.0 0.0
    vertex 124.0 -3.0 3.9999999999999996
  endloop
endfacet
facet normal -0.9914448613738077 -0.13052619222007306 -0.0
  outer loop
    vertex 124.0 -3.0 0.0
    vertex 123.96592582628907 -2.7411809548974793 3.9999999999999996
    vertex 123.96592582628907 -2.7411809548974793 0.0
  endloop
endfacet
facet normal -0.92387953251129 0.38268343236508207 0.0
  outer loop
    vertex 123.96592582628907 -3.2588190451025194 3.9999999999999996
    vertex 123.86602540378443 -3.4999999999999987 0.0
    vertex 123.86602540378443 -3.4999999999999987 3.9999999999999996
  endloop
endfacet
facet normal -0.92387953251129 0.38268343236508207 0.0
  outer loop
    vertex 123.86602540378443 -3.4999999999999987 0.0
    vertex 123.96592582628907 -3.2588190451025194 3.9999999999999996
    vertex 123.96592582628907 -3.2588190451025194 0.0
  endloop
endfacet
facet normal -0.9914448613738075 0.13052619222007356 0.0
  outer loop
    vertex 124.0 -3.0 3.9999999999999996
    vertex 123.96592582628907 -3.2588190451025194 0.0
    vertex 123.96592582628907 -3.2588190451025194 3.9999999999999996
  endloop
endfacet
facet normal -0.9914448613738075 0.13052619222007356 0.0
  outer loop
    vertex 123.96592582628907 -3.2588190451025194 0.0
    vertex 124.0 -3.0 3.9999999999999996
    vertex 124.0 -3.0 0.0
  endloop
endfacet
facet normal -0.9238795325112898 -0.3826834323650826 -0.0
  outer loop
    vertex 123.86602540378443 -2.5000000000000004 3.9999999999999996
    vertex 123.96592582628907 -2.7411809548974793 0.0
    vertex 123.96592582628907 -2.7411809548974793 3.9999999999999996
  endloop
endfacet
facet normal -0.9238795325112898 -0.3826834323650826 -0.0
  outer loop
    vertex 123.96592582628907 -2.7411809548974793 0.0
    vertex 123.86602540378443 -2.5000000000000004 3.9999999999999996
    vertex 123.86602540378443 -2.5000000000000004 0.0
  endloop
endfacet
facet normal 0.13052619222005635 0.9914448613738099 0.0
  outer loop
    vertex 122.74118095489749 -3.9659258262890664 3.9999999999999996
    vertex 123.0 -3.9999999999999982 0.0
    vertex 122.74118095489749 -3.9659258262890664 0.0
  endloop
endfacet
facet normal 0.13052619222005635 0.9914448613738099 0.0
  outer loop
    vertex 123.0 -3.9999999999999982 0.0
    vertex 122.74118095489749 -3.9659258262890664 3.9999999999999996
    vertex 123.0 -3.9999999999999982 3.9999999999999996
  endloop
endfacet
facet normal -0.7933533402912467 -0.6087614290087057 -0.0
  outer loop
    vertex 123.70710678118655 -2.292893218813454 3.9999999999999996
    vertex 123.86602540378443 -2.5000000000000004 0.0
    vertex 123.86602540378443 -2.5000000000000004 3.9999999999999996
  endloop
endfacet
facet normal -0.7933533402912467 -0.6087614290087057 -0.0
  outer loop
    vertex 123.86602540378443 -2.5000000000000004 0.0
    vertex 123.70710678118655 -2.292893218813454 3.9999999999999996
    vertex 123.70710678118655 -2.292893218813454 0.0
  endloop
endfacet
facet normal 0.7933533402912472 -0.6087614290087049 0.0
  outer loop
    vertex 122.29289321881345 -2.292893218813454 0.0
    vertex 122.13397459621557 -2.500000000000001 3.9999999999999996
    vertex 122.13397459621557 -2.500000000000001 0.0
  endloop
endfacet
facet normal 0.7933533402912472 -0.6087614290087049 0.0
  outer loop
    vertex 122.13397459621557 -2.500000000000001 3.9999999999999996
    vertex 122.29289321881345 -2.292893218813454 0.0
    vertex 122.29289321881345 -2.292893218813454 3.9999999999999996
  endloop
endfacet
facet normal 0.9238795325112898 -0.3826834323650826 0.0
  outer loop
    vertex 122.13397459621557 -2.500000000000001 0.0
    vertex 122.03407417371093 -2.7411809548974797 3.9999999999999996
    vertex 122.03407417371093 -2.7411809548974797 0.0
  endloop
endfacet
facet normal 0.9238795325112898 -0.3826834323650826 0.0
  outer loop
    vertex 122.03407417371093 -2.7411809548974797 3.9999999999999996
    vertex 122.13397459621557 -2.500000000000001 0.0
    vertex 122.13397459621557 -2.500000000000001 3.9999999999999996
  endloop
endfacet
facet normal -0.6087614290087153 -0.7933533402912394 -0.0
  outer loop
    vertex 123.70710678118655 -2.292893218813454 3.9999999999999996
    vertex 123.5 -2.1339745962155625 0.0
    vertex 123.70710678118655 -2.292893218813454 0.0
  endloop
endfacet
facet normal -0.6087614290087153 -0.7933533402912394 -0.0
  outer loop
    vertex 123.5 -2.1339745962155625 0.0
    vertex 123.70710678118655 -2.292893218813454 3.9999999999999996
    vertex 123.5 -2.1339745962155625 3.9999999999999996
  endloop
endfacet
facet normal -0.3826834323650787 -0.9238795325112913 -0.0
  outer loop
    vertex 123.5 -2.1339745962155625 3.9999999999999996
    vertex 123.25881904510251 -2.034074173710933 0.0
    vertex 123.5 -2.1339745962155625 0.0
  endloop
endfacet
facet normal -0.3826834323650787 -0.9238795325112913 -0.0
  outer loop
    vertex 123.25881904510251 -2.034074173710933 0.0
    vertex 123.5 -2.1339745962155625 3.9999999999999996
    vertex 123.25881904510251 -2.034074173710933 3.9999999999999996
  endloop
endfacet
facet normal -0.13052619222005502 -0.99144486137381 -0.0
  outer loop
    vertex 123.25881904510251 -2.034074173710933 3.9999999999999996
    vertex 123.0 -2.0000000000000018 0.0
    vertex 123.25881904510251 -2.034074173710933 0.0
  endloop
endfacet
facet normal -0.13052619222005502 -0.99144486137381 -0.0
  outer loop
    vertex 123.0 -2.0000000000000018 0.0
    vertex 123.25881904510251 -2.034074173710933 3.9999999999999996
    vertex 123.0 -2.0000000000000018 3.9999999999999996
  endloop
endfacet
facet normal 0.38268343236507757 -0.9238795325112918 0.0
  outer loop
    vertex 122.74118095489749 -2.0340741737109336 3.9999999999999996
    vertex 122.5 -2.1339745962155625 0.0
    vertex 122.74118095489749 -2.0340741737109336 0.0
  endloop
endfacet
facet normal 0.38268343236507757 -0.9238795325112918 0.0
  outer loop
    vertex 122.5 -2.1339745962155625 0.0
    vertex 122.74118095489749 -2.0340741737109336 3.9999999999999996
    vertex 122.5 -2.1339745962155625 3.9999999999999996
  endloop
endfacet
facet normal 0.13052619222005635 -0.9914448613738099 0.0
  outer loop
    vertex 123.0 -2.0000000000000018 3.9999999999999996
    vertex 122.74118095489749 -2.0340741737109336 0.0
    vertex 123.0 -2.0000000000000018 0.0
  endloop
endfacet
facet normal 0.13052619222005635 -0.9914448613738099 0.0
  outer loop
    vertex 122.74118095489749 -2.0340741737109336 0.0
    vertex 123.0 -2.0000000000000018 3.9999999999999996
    vertex 122.74118095489749 -2.0340741737109336 3.9999999999999996
  endloop
endfacet
endsolid Lid-ESP32-DRV-00
